<?xml version="1.0" encoding="UTF-8" standalone="no"?>
<!-- Created with Inkscape (http://www.inkscape.org/) -->

<svg
   width="48"
   height="48"
   viewBox="0 0 48 48"
   version="1.1"
   id="svg1"
   xml:space="preserve"
   inkscape:version="1.3.2 (091e20e, 2023-11-25, custom)"
   sodipodi:docname="agility-solid.svg"
   xmlns:inkscape="http://www.inkscape.org/namespaces/inkscape"
   xmlns:sodipodi="http://sodipodi.sourceforge.net/DTD/sodipodi-0.dtd"
   xmlns="http://www.w3.org/2000/svg"
   xmlns:svg="http://www.w3.org/2000/svg"><sodipodi:namedview
     id="namedview1"
     pagecolor="#505050"
     bordercolor="#eeeeee"
     borderopacity="1"
     inkscape:showpageshadow="0"
     inkscape:pageopacity="0"
     inkscape:pagecheckerboard="0"
     inkscape:deskcolor="#505050"
     inkscape:document-units="px"
     inkscape:zoom="11.313708"
     inkscape:cx="11.844039"
     inkscape:cy="28.416854"
     inkscape:window-width="2560"
     inkscape:window-height="1369"
     inkscape:window-x="-8"
     inkscape:window-y="-8"
     inkscape:window-maximized="1"
     inkscape:current-layer="layer1" /><defs
     id="defs1"><inkscape:path-effect
       effect="powerclip"
       id="path-effect7"
       is_visible="true"
       lpeversion="1"
       inverse="true"
       flatten="false"
       hide_clip="false"
       message="Use fill-rule evenodd on &lt;b&gt;fill and stroke&lt;/b&gt; dialog if no flatten result after convert clip to paths." /><inkscape:path-effect
       effect="powerclip"
       id="path-effect5"
       is_visible="true"
       lpeversion="1"
       inverse="true"
       flatten="false"
       hide_clip="false"
       message="Use fill-rule evenodd on &lt;b&gt;fill and stroke&lt;/b&gt; dialog if no flatten result after convert clip to paths." /><inkscape:path-effect
       effect="powerclip"
       id="path-effect2"
       is_visible="true"
       lpeversion="1"
       inverse="true"
       flatten="false"
       hide_clip="false"
       message="Use fill-rule evenodd on &lt;b&gt;fill and stroke&lt;/b&gt; dialog if no flatten result after convert clip to paths." /><inkscape:path-effect
       effect="powerclip"
       id="path-effect19"
       is_visible="true"
       lpeversion="1"
       inverse="true"
       flatten="false"
       hide_clip="false"
       message="Use fill-rule evenodd on &lt;b&gt;fill and stroke&lt;/b&gt; dialog if no flatten result after convert clip to paths." /><clipPath
       clipPathUnits="userSpaceOnUse"
       id="clipPath19"><path
         style="color:#000000;display:none;fill:#808080;-inkscape-stroke:none"
         d="m 30.435363,5.7221535 c -1.093451,0.035117 -1.762593,0.376236 -2.165832,0.9419134 -0.403239,0.5656774 -0.840751,1.2707798 -0.923368,2.1210938 -0.04903,6.9253703 -0.01872,13.8561763 -0.01958,20.7832023 l 1.550321,-1.3125 C 29.600298,27.516918 30.435996,26.87624 31.457031,26.375 l 0.208985,-0.103516 0.113281,-0.201172 c 0.386293,-0.68153 1.013604,-1.232303 1.435815,-1.691406 l 0.197265,-0.216797 c -0.06112,-4.87868 0.07462,-9.761904 -0.10937,-14.6386715 C 33.253216,8.4996641 33.219928,7.9859693 33.07058,7.5410156 32.718437,6.491671 31.528814,5.6870365 30.435363,5.7221535 Z"
         id="path19"
         sodipodi:nodetypes="csccccccccccc" /><path
         id="lpe_path-effect19"
         style="color:#000000;fill:#808080;-inkscape-stroke:none"
         class="powerclip"
         d="M 13.785282,-3.982744 H 37.927418 V 20.022878 H 13.785282 Z m 16.650081,9.7048975 c -1.093451,0.035117 -1.762593,0.376236 -2.165832,0.9419134 -0.403239,0.5656774 -0.840751,1.2707798 -0.923368,2.1210938 -0.04903,6.9253703 -0.01872,13.8561763 -0.01958,20.7832023 l 1.550321,-1.3125 C 29.600298,27.516918 30.435996,26.87624 31.457031,26.375 l 0.208985,-0.103516 0.113281,-0.201172 c 0.386293,-0.68153 1.013604,-1.232303 1.435815,-1.691406 l 0.197265,-0.216797 c -0.06112,-4.87868 0.07462,-9.761904 -0.10937,-14.6386715 C 33.253216,8.4996641 33.219928,7.9859693 33.07058,7.5410156 32.718437,6.491671 31.528814,5.6870365 30.435363,5.7221535 Z"
         sodipodi:nodetypes="ccccccsccccccccccc" /></clipPath><clipPath
       clipPathUnits="userSpaceOnUse"
       id="clipPath5"><path
         style="color:#000000;display:none;fill:#808080;stroke-width:1.20527;stroke-linejoin:round;-inkscape-stroke:none"
         d="m 30.977339,7.8052638 c 0,4.7068902 -3.81569,8.5225792 -8.522579,8.5225792 -4.706891,0 -8.522579,-3.815689 -8.522579,-8.5225792 0,-11.1440561 17.045158,-11.144058 17.045158,0 z"
         id="path5"
         clip-path="none"
         sodipodi:nodetypes="ssss" /><path
         id="lpe_path-effect5"
         style="color:#000000;display:inline;fill:#808080;stroke-width:1.20527;stroke-linejoin:round;-inkscape-stroke:none"
         class="powerclip"
         d="M 5.8528732,-0.13302991 H 42.147038 V 48.133041 H 5.8528732 Z M 30.977339,7.8052638 c 0,-11.144058 -17.045158,-11.1440561 -17.045158,0 0,4.7068902 3.815688,8.5225792 8.522579,8.5225792 4.706889,0 8.522579,-3.815689 8.522579,-8.5225792 z" /></clipPath></defs><g
     inkscape:label="Layer 1"
     inkscape:groupmode="layer"
     id="layer1"><rect
       style="display:none;fill:none;stroke:#000000;stroke-width:8;stroke-dasharray:none;stroke-opacity:1"
       id="rect1"
       width="48"
       height="48"
       x="0"
       y="0"
       inkscape:label="border spacer"
       sodipodi:insensitive="true" /><path
       style="color:#000000;display:inline;fill:#ffffff;stroke-linejoin:round;-inkscape-stroke:none"
       d="m 32.927418,7.9518102 c 0,3.9052428 -3.165825,7.0710678 -7.071068,7.0710678 -3.905243,0 -7.071068,-3.165825 -7.071068,-7.0710678 0,-9.2460715 14.142136,-9.246073 14.142136,0 z"
       id="path9"
       clip-path="url(#clipPath19)"
       inkscape:path-effect="#path-effect19"
       inkscape:original-d="m 32.927418,7.9518102 c 0,3.9052428 -3.165825,7.0710678 -7.071068,7.0710678 -3.905243,0 -7.071068,-3.165825 -7.071068,-7.0710678 0,-9.2460715 14.142136,-9.246073 14.142136,0 z"
       sodipodi:nodetypes="ssss"
       transform="translate(-3.4015905,-0.13253503)" /><path
       style="color:#000000;display:none;fill:#000000;stroke-width:1.19445;stroke-linejoin:round;-inkscape-stroke:none"
       d="m 35.537476,15.022878 a 8.4460677,8.4460677 0 0 1 -8.446068,8.446068 8.4460677,8.4460677 0 0 1 -8.446068,-8.446068 8.4460677,8.4460677 0 0 1 8.446068,-8.4460681 8.4460677,8.4460677 0 0 1 8.446068,8.4460681 z"
       id="path12" /><path
       id="path13"
       style="display:inline;fill:#ffffff;stroke-width:0.850484"
       d="m 20.625708,4.867471 c -0.150897,-0.0036 -0.319077,0.01209 -0.50586,0.05078 -1.494254,0.309515 -1.862481,1.100663 -1.71875,2.578125 0.499619,5.135659 1.338315,15.200716 2.021485,18.667969 l -0.0039,-0.002 c 0.142792,0.877363 -0.02075,1.680993 -0.246093,2.470703 -0.107054,0.409959 -0.676585,0.966169 -1.244141,1.087891 -0.744368,0.159637 -1.674268,-0.123245 -1.990234,-0.605469 l -0.154297,-0.236328 -0.421875,0.435547 c -0.569279,0.585742 -1.161868,0.842425 -1.777344,0.769531 -0.575466,-0.06816 -1.247117,-0.479593 -1.697266,-1.039063 -0.432167,-0.537122 -1.063023,-1.80739 -1.287109,-2.589843 -0.09908,-0.345942 -0.213921,-0.628907 -0.253906,-0.628907 -0.07288,0 -0.0754,0.01993 -0.02344,0.285157 0.0154,0.07866 0.08158,0.466076 0.144532,0.859375 0.06296,0.393298 0.361421,1.594906 0.664062,2.669922 0.30264,1.075015 0.702314,2.74667 0.888672,3.71679 0.575501,2.99596 1.152665,4.77126 2.029297,6.23047 0.683344,1.13746 0.909291,1.76256 0.980469,2.73242 l 0.05859,0.8125 h 5.767578 5.769532 l 0.0625,-1.05078 c 0.08148,-1.34506 0.701178,-3.55092 1.453125,-5.17578 0.767669,-1.68804 1.311958,-2.64196 1.490234,-3.31445 l 2.685547,-5.630858 3.605469,-4.298828 c 1.05612,-1.076884 -1.9059,-1.710032 -2.847657,-1.46875 -2.336274,0.598563 -4.33158,1.340669 -5.980468,4.349609 -3.570272,1.686884 -5.415978,4.728507 -5.712891,8.371097 -0.316492,1.27999 -0.359371,0.29548 -0.367187,-0.64844 -0.01144,-1.38105 0.01796,-1.83918 0.154296,-2.33789 0.218184,-0.79818 0.712319,-1.767109 1.248047,-2.609376 l 0.441407,-0.695313 1.082031,-1.02539 c 0.774276,-0.79097 1.681795,-1.487643 2.785156,-2.029297 0.411845,-0.726609 0.851388,-1.326551 1.314453,-1.830078 l -0.02148,-9.767578 C 29.003112,9.8206 28.893811,8.113782 28.737042,7.64672 28.455758,6.80853 27.871764,6.306219 26.903058,6.312735 c -0.06458,4.35e-4 -0.131204,0.0028 -0.199219,0.0078 -1.088247,0.08012 -1.596106,0.840485 -1.748047,2.404297 -0.05094,0.524396 -0.01231,1.278478 -0.01367,4.634766 l 0.07812,7.851623 -1.4375,-0.05469 L 22.080789,7.295203 C 21.913543,5.909341 21.681984,4.892832 20.625708,4.867471 Z m -4.191406,12.119141 c -0.164167,-1.02e-4 -0.338844,0.01895 -0.525391,0.05664 -1.492372,0.301522 -1.352764,1.573667 -0.5,4.769531 0.627766,2.352656 1.514454,5.388865 1.697265,5.685547 0.515467,0.836546 1.494488,1.104906 2.058594,0.564453 0.496542,-0.475704 0.639345,-1.512496 0.351563,-2.548828 -0.283745,-1.021762 -0.606574,-2.64012 -0.808594,-4.048828 -0.495068,-3.452158 -1.124271,-4.477805 -2.273437,-4.478515 z m -3.994141,3.300781 c -0.154676,0.0012 -0.32064,0.02705 -0.498047,0.08398 -1.419259,0.455492 -1.143481,1.711724 -0.863281,2.451172 0.469652,1.239486 1.67529,4.073004 1.978515,4.650391 0.42132,0.802258 0.987216,1.40625 1.31836,1.40625 0.355348,-1e-6 0.869008,-0.242081 1.140625,-0.535157 0.358347,-0.386662 0.30872,-0.802062 -0.330078,-2.759765 -0.3127,-0.958299 -0.699259,-2.262253 -0.859375,-2.896485 -0.259667,-1.151306 -0.803988,-2.408992 -1.886719,-2.40039 z"
       sodipodi:nodetypes="ssscccscccssssssssscccccccccsccsscccccccscsccccssssssssssscsssscss"
       inkscape:label="hand-two-fingers-up"
       clip-path="url(#clipPath5)"
       inkscape:path-effect="#path-effect5"
       inkscape:original-d="m 20.625708,4.867471 c -0.150897,-0.0036 -0.319077,0.01209 -0.50586,0.05078 -1.494254,0.309515 -1.862481,1.100663 -1.71875,2.578125 0.499619,5.135659 1.338315,15.200716 2.021485,18.667969 l -0.0039,-0.002 c 0.142792,0.877363 -0.02075,1.680993 -0.246093,2.470703 -0.107054,0.409959 -0.676585,0.966169 -1.244141,1.087891 -0.744368,0.159637 -1.674268,-0.123245 -1.990234,-0.605469 l -0.154297,-0.236328 -0.421875,0.435547 c -0.569279,0.585742 -1.161868,0.842425 -1.777344,0.769531 -0.575466,-0.06816 -1.247117,-0.479593 -1.697266,-1.039063 -0.432167,-0.537122 -1.063023,-1.80739 -1.287109,-2.589843 -0.09908,-0.345942 -0.213921,-0.628907 -0.253906,-0.628907 -0.07288,0 -0.0754,0.01993 -0.02344,0.285157 0.0154,0.07866 0.08158,0.466076 0.144532,0.859375 0.06296,0.393298 0.361421,1.594906 0.664062,2.669922 0.30264,1.075015 0.702314,2.74667 0.888672,3.71679 0.575501,2.99596 1.152665,4.77126 2.029297,6.23047 0.683344,1.13746 0.909291,1.76256 0.980469,2.73242 l 0.05859,0.8125 h 5.767578 5.769532 l 0.0625,-1.05078 c 0.08148,-1.34506 0.701178,-3.55092 1.453125,-5.17578 0.767669,-1.68804 1.311958,-2.64196 1.490234,-3.31445 l 2.685547,-5.630858 3.605469,-4.298828 c 1.05612,-1.076884 -1.9059,-1.710032 -2.847657,-1.46875 -2.336274,0.598563 -4.33158,1.340669 -5.980468,4.349609 -3.570272,1.686884 -5.415978,4.728507 -5.712891,8.371097 -0.316492,1.27999 -0.359371,0.29548 -0.367187,-0.64844 -0.01144,-1.38105 0.01796,-1.83918 0.154296,-2.33789 0.218184,-0.79818 0.712319,-1.767109 1.248047,-2.609376 l 0.441407,-0.695313 1.082031,-1.02539 c 0.774276,-0.79097 1.681795,-1.487643 2.785156,-2.029297 0.411845,-0.726609 0.851388,-1.326551 1.314453,-1.830078 l -0.02148,-9.767578 C 29.003112,9.8206 28.893811,8.113782 28.737042,7.64672 28.455758,6.80853 27.871764,6.306219 26.903058,6.312735 c -0.06458,4.35e-4 -0.131204,0.0028 -0.199219,0.0078 -1.088247,0.08012 -1.596106,0.840485 -1.748047,2.404297 -0.05094,0.524396 -0.01231,1.278478 -0.01367,4.634766 l 0.07812,7.851623 -1.4375,-0.05469 L 22.080789,7.295203 C 21.913543,5.909341 21.681984,4.892832 20.625708,4.867471 Z m -4.191406,12.119141 c -0.164167,-1.02e-4 -0.338844,0.01895 -0.525391,0.05664 -1.492372,0.301522 -1.352764,1.573667 -0.5,4.769531 0.627766,2.352656 1.514454,5.388865 1.697265,5.685547 0.515467,0.836546 1.494488,1.104906 2.058594,0.564453 0.496542,-0.475704 0.639345,-1.512496 0.351563,-2.548828 -0.283745,-1.021762 -0.606574,-2.64012 -0.808594,-4.048828 -0.495068,-3.452158 -1.124271,-4.477805 -2.273437,-4.478515 z m -3.994141,3.300781 c -0.154676,0.0012 -0.32064,0.02705 -0.498047,0.08398 -1.419259,0.455492 -1.143481,1.711724 -0.863281,2.451172 0.469652,1.239486 1.67529,4.073004 1.978515,4.650391 0.42132,0.802258 0.987216,1.40625 1.31836,1.40625 0.355348,-1e-6 0.869008,-0.242081 1.140625,-0.535157 0.358347,-0.386662 0.30872,-0.802062 -0.330078,-2.759765 -0.3127,-0.958299 -0.699259,-2.262253 -0.859375,-2.896485 -0.259667,-1.151306 -0.803988,-2.408992 -1.886719,-2.40039 z" /><path
       id="path6"
       style="display:inline;fill:#ffffff;stroke-width:0.850484"
       d="M 29.020007,14.750629 C 29.004827,10.60029 28.893811,8.113782 28.737042,7.64672 28.455758,6.80853 27.871764,6.306219 26.903058,6.312735 c -0.06458,4.35e-4 -0.131204,0.0028 -0.199219,0.0078 -1.088247,0.08012 -1.596106,0.840485 -1.748047,2.404297 -0.05094,0.524396 0.01571,4.094403 0.01435,7.450691 z"
       sodipodi:nodetypes="ccscscc"
       inkscape:label="hand-two-fingers-up"
       clip-path="none" /></g></svg>
