<?xml version="1.0" encoding="UTF-8" standalone="no"?>
<!-- Created with Inkscape (http://www.inkscape.org/) -->

<svg
   width="48"
   height="48"
   viewBox="0 0 48 48"
   version="1.1"
   id="svg1"
   xml:space="preserve"
   inkscape:version="1.3.2 (091e20e, 2023-11-25, custom)"
   sodipodi:docname="arcana-solid.svg"
   xmlns:inkscape="http://www.inkscape.org/namespaces/inkscape"
   xmlns:sodipodi="http://sodipodi.sourceforge.net/DTD/sodipodi-0.dtd"
   xmlns="http://www.w3.org/2000/svg"
   xmlns:svg="http://www.w3.org/2000/svg"><sodipodi:namedview
     id="namedview1"
     pagecolor="#505050"
     bordercolor="#eeeeee"
     borderopacity="1"
     inkscape:showpageshadow="0"
     inkscape:pageopacity="0"
     inkscape:pagecheckerboard="0"
     inkscape:deskcolor="#505050"
     inkscape:document-units="px"
     inkscape:zoom="22.627418"
     inkscape:cx="19.622212"
     inkscape:cy="25.345357"
     inkscape:window-width="2560"
     inkscape:window-height="1369"
     inkscape:window-x="-8"
     inkscape:window-y="-8"
     inkscape:window-maximized="1"
     inkscape:current-layer="layer1" /><defs
     id="defs1" /><g
     inkscape:label="Layer 1"
     inkscape:groupmode="layer"
     id="layer1"><rect
       style="display:none;fill:none;stroke:#000000;stroke-width:8;stroke-dasharray:none;stroke-opacity:1"
       id="rect1"
       width="48"
       height="48"
       x="0"
       y="0"
       inkscape:label="border spacer"
       sodipodi:insensitive="true" /><circle
       style="display:inline;fill:none;stroke:#ffffff;stroke-width:0.645292;stroke-linecap:round;stroke-linejoin:round;stroke-dasharray:none;stroke-dashoffset:0.6;stroke-opacity:1"
       id="path12"
       cx="24"
       cy="24"
       r="20.649403" /><circle
       style="display:inline;fill:none;stroke:#ffffff;stroke-width:2.12691;stroke-linecap:round;stroke-linejoin:round;stroke-dasharray:none;stroke-dashoffset:0.6;stroke-opacity:1"
       id="circle13"
       cx="24"
       cy="24"
       r="18.075344" /><path
       style="fill:none;stroke:#ffffff;stroke-width:0.791156;stroke-linecap:round;stroke-linejoin:round;stroke-dasharray:none;stroke-dashoffset:0.6;stroke-opacity:1"
       d="M 39.678107,32.995263 H 8.3218831 L 23.951062,5.9247227 Z"
       id="path23" /><path
       id="circle32"
       style="color:#000000;fill:#ffffff;stroke-width:0.757945;stroke-linecap:round;stroke-linejoin:round;stroke-dashoffset:0.6;-inkscape-stroke:none"
       d="m 39.923241,22.066468 c -6.168711,0 -11.174587,5.005875 -11.174587,11.174588 0,2.854339 1.07275,5.458254 2.835566,7.433932 0.154711,-0.07052 0.30976,-0.140396 0.462139,-0.215064 -1.742763,-1.900782 -2.806131,-4.434865 -2.806131,-7.218868 0,-5.903042 4.779976,-10.683003 10.683013,-10.683003 0.810041,0 1.597196,0.09314 2.3555,0.263712 -0.01023,-0.171603 -0.02276,-0.343055 -0.03846,-0.513346 -0.747617,-0.157828 -1.522703,-0.241951 -2.317095,-0.241951 z m 0,9.566695 a 1.6072635,1.6072635 0 0 0 -1.606607,1.607893 1.6072635,1.6072635 0 0 0 0.67976,1.275046 c 0.605297,-0.861379 1.139374,-1.775554 1.59125,-2.736999 A 1.6072635,1.6072635 0 0 0 39.923241,31.63317 Z" /><path
       id="path35"
       style="color:#000000;fill:#ffffff;stroke-width:0.757945;stroke-linecap:round;stroke-linejoin:round;stroke-dashoffset:0.6;-inkscape-stroke:none"
       d="m 8.0767638,22.066468 c 6.1687112,0 11.1745862,5.005875 11.1745862,11.174588 0,2.854339 -1.072749,5.458254 -2.835566,7.433934 -0.154726,-0.07052 -0.30976,-0.140397 -0.462138,-0.215068 1.742761,-1.90078 2.80613,-4.434863 2.80613,-7.218866 0,-5.903042 -4.779975,-10.683003 -10.6830122,-10.683003 -0.8100421,0 -1.597196,0.09314 -2.3555009,0.263712 0.010274,-0.171603 0.022756,-0.343055 0.038465,-0.513346 0.747617,-0.157828 1.5226881,-0.241951 2.3170944,-0.241951 z m 0,9.566695 a 1.6072635,1.6072635 0 0 1 1.6066064,1.607893 1.6072635,1.6072635 0 0 1 -0.6797598,1.275046 C 8.3983141,33.654723 7.8642368,32.740548 7.4123604,31.779103 A 1.6072635,1.6072635 0 0 1 8.0767638,31.63317 Z" /><path
       id="path39"
       style="color:#000000;fill:#ffffff;stroke-width:0.757945;stroke-linecap:round;stroke-linejoin:round;stroke-dashoffset:0.6;-inkscape-stroke:none"
       d="m 23.999994,5.6783262 c -0.537424,0 -1.068124,0.027586 -1.593804,0.072966 A 1.6072635,1.6072635 0 0 0 23.999994,7.2862141 1.6072635,1.6072635 0 0 0 25.592522,5.751292 C 25.067254,5.7059861 24.536979,5.6783262 23.999994,5.6783262 Z M 13.779136,8.7942565 c -0.142409,0.095898 -0.280427,0.1972523 -0.4199,0.2969987 1.44335,4.5011898 5.662043,7.7629378 10.640758,7.7629378 4.978717,0 9.197409,-3.261748 10.64076,-7.7629378 -0.139473,-0.099745 -0.277565,-0.2011048 -0.419901,-0.2969987 -1.332462,4.3816715 -5.401801,7.5683525 -10.220859,7.5683525 -4.819056,0 -8.88841,-3.186681 -10.220858,-7.5683525 z" /><g
       id="g1"
       inkscape:label="cube"
       transform="matrix(0.95377287,0,0,0.95377287,1.1094511,1.1094511)"><path
         style="fill:none;stroke:#ffffff;stroke-width:1.83;stroke-linecap:round;stroke-linejoin:round;stroke-dasharray:none;stroke-dashoffset:0.6;stroke-opacity:1"
         d="m 23.999994,31.492147 -6.544981,-3.778743 v -7.401357 l 6.544981,-3.804194"
         id="path40" /><path
         style="fill:none;stroke:#ffffff;stroke-width:1.83;stroke-linecap:round;stroke-linejoin:round;stroke-dasharray:none;stroke-dashoffset:0.6;stroke-opacity:1"
         d="m 17.455013,20.312047 6.544981,3.677386"
         id="path41" /><path
         style="fill:none;stroke:#ffffff;stroke-width:1.83;stroke-linecap:round;stroke-linejoin:round;stroke-dasharray:none;stroke-dashoffset:0.6;stroke-opacity:1"
         d="M 23.999994,31.492147 30.54496,27.713404 V 20.312047 L 23.999994,16.507853"
         id="path42" /><path
         style="fill:none;stroke:#ffffff;stroke-width:1.83;stroke-linecap:round;stroke-linejoin:round;stroke-dasharray:none;stroke-dashoffset:0.6;stroke-opacity:1"
         d="m 30.54496,20.312047 -6.544966,3.677386"
         id="path43" /><path
         style="fill:none;stroke:#ffffff;stroke-width:1.83;stroke-linecap:round;stroke-linejoin:round;stroke-dasharray:none;stroke-dashoffset:0.6;stroke-opacity:1"
         d="m 23.999994,23.989433 v 7.502714"
         id="path44" /></g></g></svg>
