<?xml version="1.0" encoding="UTF-8" standalone="no"?>
<!-- Created with Inkscape (http://www.inkscape.org/) -->

<svg
   width="48"
   height="48"
   viewBox="0 0 48 48"
   version="1.1"
   id="svg1"
   xml:space="preserve"
   inkscape:version="1.3.2 (091e20e, 2023-11-25, custom)"
   sodipodi:docname="awareness-solid.svg"
   xmlns:inkscape="http://www.inkscape.org/namespaces/inkscape"
   xmlns:sodipodi="http://sodipodi.sourceforge.net/DTD/sodipodi-0.dtd"
   xmlns="http://www.w3.org/2000/svg"
   xmlns:svg="http://www.w3.org/2000/svg"><sodipodi:namedview
     id="namedview1"
     pagecolor="#505050"
     bordercolor="#eeeeee"
     borderopacity="1"
     inkscape:showpageshadow="0"
     inkscape:pageopacity="0"
     inkscape:pagecheckerboard="0"
     inkscape:deskcolor="#505050"
     inkscape:document-units="px"
     inkscape:zoom="11.313709"
     inkscape:cx="15.026019"
     inkscape:cy="31.068504"
     inkscape:window-width="2560"
     inkscape:window-height="1369"
     inkscape:window-x="-8"
     inkscape:window-y="-8"
     inkscape:window-maximized="1"
     inkscape:current-layer="layer1" /><defs
     id="defs1" /><g
     inkscape:label="Layer 1"
     inkscape:groupmode="layer"
     id="layer1"><rect
       style="display:none;fill:none;stroke:#000000;stroke-width:8;stroke-dasharray:none;stroke-opacity:1"
       id="rect1"
       width="48"
       height="48"
       x="0"
       y="0"
       inkscape:label="border spacer"
       sodipodi:insensitive="true" /><path
       id="path1"
       style="color:#000000;fill:#ffffff;stroke-width:0.0249652;stroke-linejoin:round;-inkscape-stroke:none"
       d="m 24.035522,11.605391 c -0.262336,7.67e-4 -0.524515,0.0057 -0.786453,0.01477 C 15.027095,11.90519 7.1075278,16.239725 1.4385979,23.661874 l -0.2416067,0.338103 c 0.022995,0.03108 0.2416067,0.338152 0.2416067,0.338152 5.6689293,7.422151 13.5884971,11.756685 21.8104711,12.041713 8.25584,0.286203 16.741648,-3.553315 23.332763,-12.070628 l 0.221177,-0.327911 c -0.02075,-0.02751 -0.22064,-0.290075 -0.22064,-0.290075 C 40.200306,15.443743 32.041754,11.582091 24.035522,11.605391 Z m 0.09172,3.691242 c 2.34482,0 4.592236,0.930884 6.250274,2.588922 1.658037,1.658037 2.588921,3.905453 2.588921,6.250272 0,2.344819 -0.930884,4.592187 -2.588921,6.250225 -1.658038,1.658037 -3.905454,2.58897 -6.250274,2.58897 -2.344818,0 -4.592186,-0.930933 -6.250224,-2.58897 -1.658037,-1.658038 -2.58897,-3.905406 -2.58897,-6.250225 0,-2.344819 0.930933,-4.592235 2.58897,-6.250272 1.658038,-1.658038 3.905406,-2.588922 6.250224,-2.588922 z m -7.813036,0.296706 c -0.12668,0.115864 -0.251838,0.233748 -0.373746,0.355656 -2.1709,2.170901 -3.391124,5.116716 -3.391123,8.186832 0,3.035495 1.194504,5.948126 3.319689,8.111741 C 11.681437,30.657378 7.7672072,27.866686 4.5047346,23.999981 7.8822966,19.996882 11.95934,17.151455 16.314203,15.593339 Z m 15.655524,0.02799 c 4.067161,1.500442 8.001495,4.233336 11.513592,8.378703 -3.380792,3.990384 -7.15284,6.672193 -11.057977,8.205654 2.09986,-2.15931 3.279804,-5.053678 3.279804,-8.069856 0,-3.070116 -1.220175,-6.015931 -3.391074,-8.186832 -0.112317,-0.112316 -0.22797,-0.220478 -0.344345,-0.327669 z m -7.842488,2.441861 a 6.0726548,6.0726548 0 0 0 -1.226512,0.140575 3.3893888,3.3893888 0 0 1 2.038565,3.107583 3.3893888,3.3893888 0 0 1 -3.389417,3.389367 3.3893888,3.3893888 0 0 1 -3.221097,-2.35141 6.0726548,6.0726548 0 0 0 -0.274178,1.786524 6.0726548,6.0726548 0 0 0 6.072639,6.07264 6.0726548,6.0726548 0 0 0 6.07264,-6.07264 6.0726548,6.0726548 0 0 0 -6.07264,-6.072639 z" /></g></svg>
