<?xml version="1.0" encoding="UTF-8" standalone="no"?>
<!-- Created with Inkscape (http://www.inkscape.org/) -->

<svg
   width="48"
   height="48"
   viewBox="0 0 48 48"
   version="1.1"
   id="svg1"
   xml:space="preserve"
   inkscape:version="1.3.2 (091e20e, 2023-11-25, custom)"
   sodipodi:docname="base-initiative-solid.svg"
   xmlns:inkscape="http://www.inkscape.org/namespaces/inkscape"
   xmlns:sodipodi="http://sodipodi.sourceforge.net/DTD/sodipodi-0.dtd"
   xmlns:xlink="http://www.w3.org/1999/xlink"
   xmlns="http://www.w3.org/2000/svg"
   xmlns:svg="http://www.w3.org/2000/svg"><sodipodi:namedview
     id="namedview1"
     pagecolor="#505050"
     bordercolor="#eeeeee"
     borderopacity="1"
     inkscape:showpageshadow="0"
     inkscape:pageopacity="0"
     inkscape:pagecheckerboard="0"
     inkscape:deskcolor="#505050"
     inkscape:document-units="px"
     inkscape:zoom="16"
     inkscape:cx="11.875"
     inkscape:cy="24.90625"
     inkscape:window-width="2560"
     inkscape:window-height="1369"
     inkscape:window-x="-8"
     inkscape:window-y="-8"
     inkscape:window-maximized="1"
     inkscape:current-layer="layer1" /><defs
     id="defs1"><linearGradient
       id="linearGradient7"
       inkscape:collect="always"><stop
         style="stop-color:#ffffff;stop-opacity:0;"
         offset="0.03404255"
         id="stop7" /><stop
         style="stop-color:#ffffff;stop-opacity:1;"
         offset="0.53404254"
         id="stop8" /></linearGradient><linearGradient
       inkscape:collect="always"
       xlink:href="#linearGradient7"
       id="linearGradient8"
       x1="19.888876"
       y1="17.633475"
       x2="44.634618"
       y2="17.633475"
       gradientUnits="userSpaceOnUse"
       gradientTransform="matrix(0.71509434,0,0,1,5.1724485,-1.1779518)" /><linearGradient
       inkscape:collect="always"
       xlink:href="#linearGradient7"
       id="linearGradient10"
       gradientUnits="userSpaceOnUse"
       gradientTransform="matrix(1.0773585,0,0,1,-10.757466,11.726746)"
       x1="19.888876"
       y1="17.633475"
       x2="44.634618"
       y2="17.633475" /><linearGradient
       inkscape:collect="always"
       xlink:href="#linearGradient7"
       id="linearGradient12"
       gradientUnits="userSpaceOnUse"
       gradientTransform="matrix(0.71509434,0,0,1,5.1724485,24.631445)"
       x1="19.888876"
       y1="17.633475"
       x2="44.634618"
       y2="17.633475" /></defs><g
     inkscape:label="Layer 1"
     inkscape:groupmode="layer"
     id="layer1"><rect
       style="display:none;fill:none;stroke:#000000;stroke-width:8;stroke-dasharray:none;stroke-opacity:1"
       id="rect1"
       width="48"
       height="48"
       x="0"
       y="0"
       inkscape:label="border spacer"
       sodipodi:insensitive="true" /><g
       id="g12"
       transform="matrix(1.1141557,0,0,1.1141557,-6.1772379,-2.7397378)"><g
         id="g2"
         inkscape:label="person"
         transform="matrix(0.29077107,0,0,0.29077107,22.70921,3.3280787)"
         style="display:inline"><path
           id="path2"
           style="fill:#ffffff;stroke-width:3;stroke-linecap:round;stroke-linejoin:round"
           d="m 29.039848,20.701172 c -1.464682,1.111652 -3.666681,2.091947 -5.50543,2.099609 -1.832058,-0.0077 -4.043545,-1.014879 -5.505429,-2.11914 -4.414651,2.585974 -7.816277,8.622855 -7.786679,18.213801 0.0065,0.214461 26.521717,0 26.521717,0 0.01133,-8.902838 -3.313419,-15.599779 -7.724179,-18.19427 z"
           sodipodi:nodetypes="cccccc" /><circle
           style="fill:#ffffff;stroke-width:3;stroke-linecap:round;stroke-linejoin:round"
           id="path1"
           cx="23.503046"
           cy="14.323995"
           r="7.2496953" /></g><path
         style="fill:none;stroke:url(#linearGradient8);stroke-width:0.7;stroke-linecap:butt;stroke-linejoin:round;stroke-dasharray:none;stroke-opacity:1"
         d="M 36.617437,16.455523 H 19.867844"
         id="path7" /><g
         id="g9"
         inkscape:label="person"
         transform="matrix(0.29077107,0,0,0.29077107,11.307114,16.232777)"
         style="display:inline"><path
           id="path8"
           style="fill:#ffffff;stroke-width:3;stroke-linecap:round;stroke-linejoin:round"
           d="m 29.039848,20.701172 c -1.464682,1.111652 -3.666681,2.091947 -5.50543,2.099609 -1.832058,-0.0077 -4.043545,-1.014879 -5.505429,-2.11914 -4.414651,2.585974 -7.816277,8.622855 -7.786679,18.213801 0.0065,0.214461 26.521717,0 26.521717,0 0.01133,-8.902838 -3.313419,-15.599779 -7.724179,-18.19427 z"
           sodipodi:nodetypes="cccccc" /><circle
           style="fill:#ffffff;stroke-width:3;stroke-linecap:round;stroke-linejoin:round"
           id="circle8"
           cx="23.503046"
           cy="14.323995"
           r="7.2496953" /></g><path
         style="fill:none;stroke:url(#linearGradient10);stroke-width:0.7;stroke-linecap:butt;stroke-linejoin:round;stroke-dasharray:none;stroke-opacity:1"
         d="M 36.617437,29.360221 H 11.382564"
         id="path9" /><g
         id="g11"
         inkscape:label="person"
         transform="matrix(0.29077107,0,0,0.29077107,22.70921,29.137476)"
         style="display:inline"><path
           id="path10"
           style="fill:#ffffff;stroke-width:3;stroke-linecap:round;stroke-linejoin:round"
           d="m 29.039848,20.701172 c -1.464682,1.111652 -3.666681,2.091947 -5.50543,2.099609 -1.832058,-0.0077 -4.043545,-1.014879 -5.505429,-2.11914 -4.414651,2.585974 -7.816277,8.622855 -7.786679,18.213801 0.0065,0.214461 26.521717,0 26.521717,0 0.01133,-8.902838 -3.313419,-15.599779 -7.724179,-18.19427 z"
           sodipodi:nodetypes="cccccc" /><circle
           style="fill:#ffffff;stroke-width:3;stroke-linecap:round;stroke-linejoin:round"
           id="circle10"
           cx="23.503046"
           cy="14.323995"
           r="7.2496953" /></g><path
         style="fill:none;stroke:url(#linearGradient12);stroke-width:0.7;stroke-linecap:butt;stroke-linejoin:round;stroke-dasharray:none;stroke-opacity:1"
         d="M 36.617437,42.26492 H 19.867844"
         id="path11" /></g></g></svg>
