<?xml version="1.0" encoding="UTF-8" standalone="no"?>
<!-- Created with Inkscape (http://www.inkscape.org/) -->

<svg
   width="64"
   height="64"
   viewBox="0 0 16.933333 16.933333"
   version="1.1"
   id="svg1"
   xml:space="preserve"
   inkscape:version="1.3.2 (091e20e, 2023-11-25, custom)"
   sodipodi:docname="crafting.svg"
   xmlns:inkscape="http://www.inkscape.org/namespaces/inkscape"
   xmlns:sodipodi="http://sodipodi.sourceforge.net/DTD/sodipodi-0.dtd"
   xmlns="http://www.w3.org/2000/svg"
   xmlns:svg="http://www.w3.org/2000/svg"><sodipodi:namedview
     id="namedview1"
     pagecolor="#505050"
     bordercolor="#eeeeee"
     borderopacity="1"
     inkscape:showpageshadow="0"
     inkscape:pageopacity="0"
     inkscape:pagecheckerboard="0"
     inkscape:deskcolor="#505050"
     inkscape:document-units="mm"
     inkscape:zoom="11.313709"
     inkscape:cx="22.539029"
     inkscape:cy="38.493125"
     inkscape:window-width="2560"
     inkscape:window-height="1369"
     inkscape:window-x="-8"
     inkscape:window-y="-8"
     inkscape:window-maximized="1"
     inkscape:current-layer="layer1" /><defs
     id="defs1" /><g
     inkscape:label="Layer 1"
     inkscape:groupmode="layer"
     id="layer1"><path
       id="path1"
       style="color:#000000;fill:#ffffff;stroke-width:1;-inkscape-stroke:none"
       d="m 9.2602731,12.490618 c -1.99456,0 -3.6233564,1.628796 -3.6233564,3.623355 H 6.747777 c 0,-1.394171 1.1183251,-2.512495 2.5124961,-2.512495 1.3941709,0 2.5127839,1.118324 2.5127839,2.512495 h 1.11086 c 0,-1.994559 -1.629084,-3.623355 -3.6236439,-3.623355 z" /><g
       id="g3"
       transform="rotate(-105,13.945136,7.2840527)"
       style="fill:#ffffff"><rect
         style="fill:#ffffff;stroke:none;stroke-width:2;stroke-dasharray:none;stroke-opacity:1"
         id="rect2"
         width="4.5971355"
         height="2.0174479"
         x="10.897526"
         y="0.826823"
         rx="0.58584869"
         ry="0.58584869" /><path
         style="fill:none;stroke:#ffffff;stroke-width:1.3;stroke-linecap:round;stroke-dasharray:none;stroke-opacity:1"
         d="M 13.196094,2.7468861 V 8.8947806"
         id="path2"
         sodipodi:nodetypes="cc" /></g><path
       style="fill:#ffffff;stroke:none;stroke-width:1.3;stroke-linecap:round;stroke-dasharray:none;stroke-opacity:1"
       d="m 13.602525,11.907197 0.106288,0.59401 -2.614763,-0.005 z"
       id="path7"
       sodipodi:nodetypes="cccc" /><path
       style="fill:#ffffff;stroke:none;stroke-width:1.3;stroke-linecap:round;stroke-dasharray:none;stroke-opacity:1"
       d="m 12.266918,10.001214 0.608039,0.608038 -1.824115,1.216077 z"
       id="path8"
       sodipodi:nodetypes="cccc" /><path
       style="fill:#ffffff;stroke:none;stroke-width:1.3;stroke-linecap:round;stroke-dasharray:none;stroke-opacity:1"
       d="m 4.8779667,11.907197 -0.106288,0.59401 2.6147626,-0.005 z"
       id="path9"
       sodipodi:nodetypes="cccc" /><path
       style="fill:#ffffff;stroke:none;stroke-width:1.3;stroke-linecap:round;stroke-dasharray:none;stroke-opacity:1"
       d="m 6.2135733,10.001214 -0.608039,0.608038 1.824115,1.216077 z"
       id="path11"
       sodipodi:nodetypes="cccc" /><g
       id="g23"
       transform="matrix(1.4719764,0,0,1.4719764,8.8915414,-0.91433439)"
       inkscape:label="Beaker"
       style="stroke-width:0.679359"><path
         id="path12"
         style="fill:#ffffff;stroke:none;stroke-width:0.883166;stroke-linecap:round;stroke-dasharray:none;stroke-opacity:1"
         d="m -4.7811035,1.201477 0.4707723,0.467155 v 1.9631876 l -1.4050822,2.4334432 0.3302124,0.3917074 h 5.168e-4 3.3631022 5.167e-4 L -1.6908528,6.0652628 -3.095935,3.6318196 V 1.668632 l 0.4707723,-0.467155 h -0.2475302 -1.6608805 z m 0.432015,0.1524455 h 0.5808431 0.1302246 0.5808431 L -3.348116,1.6319417 V 3.709851 l 0.2873209,0.478007 h -1.2846761 l 0.287321,-0.478007 V 1.6319417 Z" /><path
         id="path16"
         style="color:#000000;fill:#000000;stroke-width:0.679359;stroke-linecap:round;-inkscape-stroke:none"
         d="m -4.7351114,4.367692 -0.1736328,0.3007569 h 0.7374226 A 0.15000001,0.15000001 0 0 0 -4.0209431,4.5180705 0.15000001,0.15000001 0 0 0 -4.1713216,4.367692 Z M -5.1392211,5.0668742 -5.3128539,5.367631 h 1.1415323 A 0.15000001,0.15000001 0 0 0 -4.0209431,5.2172526 0.15000001,0.15000001 0 0 0 -4.1713216,5.0668742 Z m -0.403593,0.6991821 -0.1725993,0.2992065 h 1.5440918 A 0.15000001,0.15000001 0 0 0 -4.0209431,5.9169515 0.15000001,0.15000001 0 0 0 -4.1713216,5.7660563 Z" /></g></g></svg>
