<?xml version="1.0" encoding="UTF-8" standalone="no"?>
<!-- Created with Inkscape (http://www.inkscape.org/) -->

<svg
   width="64"
   height="64"
   viewBox="0 0 16.933333 16.933333"
   version="1.1"
   id="svg1"
   xml:space="preserve"
   inkscape:version="1.3.2 (091e20e, 2023-11-25, custom)"
   sodipodi:docname="desperate_measure_cornered.svg"
   xmlns:inkscape="http://www.inkscape.org/namespaces/inkscape"
   xmlns:sodipodi="http://sodipodi.sourceforge.net/DTD/sodipodi-0.dtd"
   xmlns:xlink="http://www.w3.org/1999/xlink"
   xmlns="http://www.w3.org/2000/svg"
   xmlns:svg="http://www.w3.org/2000/svg"><sodipodi:namedview
     id="namedview1"
     pagecolor="#505050"
     bordercolor="#eeeeee"
     borderopacity="1"
     inkscape:showpageshadow="0"
     inkscape:pageopacity="0"
     inkscape:pagecheckerboard="0"
     inkscape:deskcolor="#505050"
     inkscape:document-units="mm"
     inkscape:zoom="11.313708"
     inkscape:cx="6.7175144"
     inkscape:cy="31.156893"
     inkscape:window-width="2560"
     inkscape:window-height="1369"
     inkscape:window-x="-8"
     inkscape:window-y="-8"
     inkscape:window-maximized="1"
     inkscape:current-layer="layer1"
     showgrid="false"><inkscape:grid
       id="grid157"
       units="mm"
       originx="0"
       originy="0"
       spacingx="0.99999998"
       spacingy="0.99999998"
       empcolor="#0099e5"
       empopacity="0.30196078"
       color="#0099e5"
       opacity="0.14901961"
       empspacing="5"
       dotted="false"
       gridanglex="30"
       gridanglez="30"
       visible="false" /></sodipodi:namedview><defs
     id="defs1"><linearGradient
       id="linearGradient29"
       inkscape:collect="always"><stop
         style="stop-color:#80092c;stop-opacity:1;"
         offset="0"
         id="stop29" /><stop
         style="stop-color:#410613;stop-opacity:1;"
         offset="1"
         id="stop30" /></linearGradient><radialGradient
       inkscape:collect="always"
       xlink:href="#linearGradient29"
       id="radialGradient30"
       cx="-4.2943563"
       cy="43.659042"
       fx="-4.2943563"
       fy="43.659042"
       r="8.4666662"
       gradientUnits="userSpaceOnUse"
       gradientTransform="matrix(1,0,0,1.9999998,12.761023,-70.384744)" /><linearGradient
       inkscape:collect="always"
       xlink:href="#linearGradient1"
       id="linearGradient2"
       x1="14.077259"
       y1="24.043116"
       x2="14.064429"
       y2="30.450903"
       gradientUnits="userSpaceOnUse" /><linearGradient
       id="linearGradient1"
       inkscape:collect="always"><stop
         style="stop-color:#9f0e21;stop-opacity:1;"
         offset="0"
         id="stop1" /><stop
         style="stop-color:#611626;stop-opacity:1;"
         offset="1"
         id="stop2" /></linearGradient><linearGradient
       inkscape:collect="always"
       xlink:href="#linearGradient27"
       id="linearGradient28"
       x1="8.4957857"
       y1="7.310183"
       x2="8.5036945"
       y2="16.967474"
       gradientUnits="userSpaceOnUse" /><linearGradient
       id="linearGradient27"
       inkscape:collect="always"><stop
         style="stop-color:#9f0e21;stop-opacity:1;"
         offset="0"
         id="stop27" /><stop
         style="stop-color:#611626;stop-opacity:1;"
         offset="1"
         id="stop28" /></linearGradient><linearGradient
       inkscape:collect="always"
       xlink:href="#linearGradient1"
       id="linearGradient30"
       gradientUnits="userSpaceOnUse"
       x1="14.077259"
       y1="24.043116"
       x2="14.064429"
       y2="30.450903" /><linearGradient
       inkscape:collect="always"
       xlink:href="#linearGradient1"
       id="linearGradient32"
       gradientUnits="userSpaceOnUse"
       x1="14.077259"
       y1="24.043116"
       x2="14.064429"
       y2="30.450903" /></defs><g
     inkscape:label="Layer 1"
     inkscape:groupmode="layer"
     id="layer1"><rect
       style="fill:url(#radialGradient30);stroke:none;stroke-width:0.79375;stroke-linejoin:round"
       id="rect29"
       width="16.933332"
       height="16.933332"
       x="0"
       y="8.9009603e-07"
       inkscape:label="bg" /><g
       id="g19"
       inkscape:label="thorns"><path
         id="path2"
         style="fill:#5d091c;fill-opacity:1;stroke-width:0.661458;stroke-linecap:round;stroke-linejoin:round"
         d="M 9.3224284 12.450403 L 9.785966 16.933333 L 10.921297 16.933333 L 10.961088 16.925582 L 9.3224284 12.450403 z " /><path
         id="path4"
         style="fill:#5d091c;fill-opacity:1;stroke-width:0.661458;stroke-linecap:round;stroke-linejoin:round"
         d="M 0 6.7034668 L 0 7.8656698 L 7.007841 7.3540731 L 0 6.7034668 z " /><path
         id="path5"
         style="fill:#5d091c;fill-opacity:1;stroke-width:0.661458;stroke-linecap:round;stroke-linejoin:round"
         d="M 16.294613 0 L 12.121741 5.1671265 L 16.933333 0.83767497 L 16.933333 0 L 16.294613 0 z " /><path
         id="path6"
         style="fill:#5d091c;fill-opacity:1;stroke-width:0.661458;stroke-linecap:round;stroke-linejoin:round"
         d="M 3.8777995 13.373861 L 0.38033854 16.933333 L 1.6717326 16.933333 L 3.8777995 13.373861 z " /><path
         id="path7"
         style="fill:#5d091c;fill-opacity:1;stroke-width:0.661458;stroke-linecap:round;stroke-linejoin:round"
         d="M 1.352889 0 L 6.4600708 4.9004761 L 2.7300659 0 L 1.352889 0 z " /><path
         id="path8"
         style="fill:#5d091c;fill-opacity:1;stroke-width:0.661458;stroke-linecap:round;stroke-linejoin:round"
         d="M 7.6119385 11.755355 L 4.8131429 16.933333 L 5.999117 16.933333 L 7.6119385 11.755355 z " /><path
         id="path9"
         style="fill:#5d091c;fill-opacity:1;stroke-width:0.661458;stroke-linecap:round;stroke-linejoin:round"
         d="M 11.968778 10.287227 L 16.933333 12.238013 L 16.933333 11.157975 L 11.968778 10.287227 z " /><path
         id="path10"
         style="fill:#5d091c;fill-opacity:1;stroke-width:0.661458;stroke-linecap:round;stroke-linejoin:round"
         d="M 8.3214559 13.976408 L 7.9106283 16.933333 L 8.7736247 16.933333 L 8.3214559 13.976408 z " /><path
         id="path11"
         style="fill:#5d091c;fill-opacity:1;stroke-width:0.661458;stroke-linecap:round;stroke-linejoin:round"
         d="M 13.681852 0 L 12.135693 3.5641235 L 14.684892 0 L 13.681852 0 z " /><path
         id="path12"
         style="fill:#5d091c;fill-opacity:1;stroke-width:0.661458;stroke-linecap:round;stroke-linejoin:round"
         d="M 16.933333 4.5904175 L 12.282971 6.3897909 L 16.933333 5.5030233 L 16.933333 4.5904175 z " /><path
         id="path13"
         style="fill:#5d091c;fill-opacity:1;stroke-width:0.661458;stroke-linecap:round;stroke-linejoin:round"
         d="M 5.3159546 8.7446859 L 0 9.777181 L 0 10.965222 L 5.3159546 8.7446859 z " /><path
         id="path14"
         style="fill:#5d091c;fill-opacity:1;stroke-width:0.661458;stroke-linecap:round;stroke-linejoin:round"
         d="M 12.142928 13.451892 L 15.031641 16.933333 L 16.268774 16.933333 L 12.142928 13.451892 z " /><path
         id="path15"
         style="fill:#5d091c;fill-opacity:1;stroke-width:0.661458;stroke-linecap:round;stroke-linejoin:round"
         d="M 3.6524902 11.440129 L 0 12.679846 L 0 13.694255 L 3.6524902 11.440129 z " /><path
         id="path16"
         style="fill:#5d091c;fill-opacity:1;stroke-width:0.661458;stroke-linecap:round;stroke-linejoin:round"
         d="M 0 2.3605794 L 0 3.365686 L 4.1434163 4.6436442 L 0 2.3605794 z " /><path
         id="path17"
         style="fill:#5d091c;fill-opacity:1;stroke-width:0.661458;stroke-linecap:round;stroke-linejoin:round"
         d="M 0 0 L 0 1.0578166 L 3.0251383 3.0070516 L 0.11368815 0 L 0 0 z " /><path
         id="path18"
         style="fill:#5d091c;fill-opacity:1;stroke-width:0.661458;stroke-linecap:round;stroke-linejoin:round"
         d="M 7.1132609 0 L 8.1054484 5.4043213 L 7.97264 0 L 7.1132609 0 z " /><path
         id="path19"
         style="fill:#5d091c;fill-opacity:1;stroke-width:0.661458;stroke-linecap:round;stroke-linejoin:round"
         d="M 9.7751139 0 L 10.008175 5.2989014 L 10.959538 0 L 9.7751139 0 z " /><path
         id="path20"
         style="fill:#5d091c;fill-opacity:1;stroke-width:0.661458;stroke-linecap:round;stroke-linejoin:round"
         d="M 16.933333 7.1949097 L 14.1087 7.9214803 L 16.933333 8.0289673 L 16.933333 7.1949097 z " /></g><g
       id="g5"
       transform="rotate(90,15.722922,10.475947)"><path
         style="color:#000000;fill:#c41d3c;fill-opacity:1;stroke-width:0.999998;-inkscape-stroke:none"
         d="M 14.129156,21.521484 14.018661,21.6875 c -0.467401,0.701739 -0.96706,1.434505 -0.978468,2.353516 v 0.002 11.016101 l 1.088963,3.04e-4 1.090417,-6.09e-4 v -11.015796 -0.002 C 15.208163,23.121921 14.707026,22.389199 14.239652,21.6875 Z m 0,0.617188 c 0.416025,0.634118 0.783599,1.250314 0.792369,1.90625 v 10.8125 h -0.792369 -0.79237 v -10.810547 -0.002 c 0.0088,-0.656012 0.376419,-1.272168 0.79237,-1.90625 z"
         id="path5-9"
         sodipodi:nodetypes="cccccccccccccccccccc" /><path
         style="color:#000000;fill:url(#linearGradient2);fill-opacity:1;stroke-width:0.999998;-inkscape-stroke:none"
         d="m 14.129116,21.82089 c -0.467092,0.701276 -0.930353,1.403389 -0.940529,2.22312 v 11.014194 l 0.940529,-3.04e-4 0.940915,6.08e-4 V 24.04401 c -0.01018,-0.819731 -0.473822,-1.521844 -0.940915,-2.22312 z"
         id="path4-0"
         sodipodi:nodetypes="ccccccc" /><path
         style="fill:#3d0e18;fill-opacity:1;stroke:none;stroke-width:2"
         d="M 15.06992,35.057595 V 24.04401 c -0.01018,-0.819732 -0.473574,-1.521965 -0.940667,-2.223241 v 13.236522 z"
         id="path3"
         sodipodi:nodetypes="ccccc" /></g><g
       id="g3"
       transform="translate(-2.7119792,-18.25625)"><g
         id="g105"
         inkscape:label="crest"
         style="display:inline;stroke-width:2.6817"
         transform="matrix(0.38909227,0,0,0.38909227,-10.99675,5.3888255)"><path
           style="color:#000000;display:inline;fill:#9f0e21;fill-opacity:1;stroke-width:2.40351;stroke-linecap:round;stroke-linejoin:round;-inkscape-stroke:none"
           d="m 62.740731,49.710728 c -2.994723,0 -5.431847,2.437123 -5.431847,5.431847 0,2.994723 2.437124,5.433597 5.431847,5.433597 2.994723,0 5.433598,-2.438874 5.433598,-5.433597 0,-2.994724 -2.438875,-5.431847 -5.433598,-5.431847 z m 0,0.891012 c 2.513253,0 4.542585,2.027581 4.542585,4.540835 0,2.513253 -2.029332,4.542585 -4.542585,4.542585 -2.513253,0 -4.540835,-2.029332 -4.540835,-4.542585 0,-2.513254 2.027582,-4.540835 4.540835,-4.540835 z"
           id="path91" /><path
           id="path92"
           style="display:inline;fill:#9f0e21;fill-opacity:1;stroke:none;stroke-width:1.90779;stroke-linecap:round;stroke-linejoin:round"
           d="m 54.918369,50.521148 2.615439,3.289865 1.316081,-1.020001 0.225306,-1.64976 z"
           sodipodi:nodetypes="ccccc" /><path
           id="path93"
           style="display:inline;fill:#3d0e18;fill-opacity:1;stroke:none;stroke-width:1.90779;stroke-linecap:round;stroke-linejoin:round"
           d="m 55.381245,50.78839 2.35303,2.823728 1.115733,-0.821037 z" /><path
           id="path94"
           style="display:inline;fill:#9f0e21;fill-opacity:1;stroke:none;stroke-width:1.90779;stroke-linecap:round;stroke-linejoin:round"
           d="m 70.567972,50.521148 -2.615439,3.289865 -1.316081,-1.02 -0.225306,-1.64976 z"
           sodipodi:nodetypes="ccccc" /><path
           id="path95"
           style="display:inline;fill:#3d0e18;fill-opacity:1;stroke:none;stroke-width:1.90779;stroke-linecap:round;stroke-linejoin:round"
           d="m 70.105096,50.78839 -2.35303,2.823728 -1.115733,-0.821037 z" /><path
           id="path96"
           style="display:inline;fill:#9f0e21;fill-opacity:1;stroke:none;stroke-width:1.90779;stroke-linecap:round;stroke-linejoin:round"
           d="m 62.741474,46.050525 -1.541387,3.909969 1.541387,0.62976 1.541387,-0.62976 z"
           sodipodi:nodetypes="ccccc" /><path
           id="path97"
           style="display:inline;fill:#3d0e18;fill-opacity:1;stroke:none;stroke-width:1.90779;stroke-linecap:round;stroke-linejoin:round"
           d="m 62.741474,46.585008 -1.268906,3.449648 1.268906,0.555735 z" /><path
           id="path98"
           style="display:inline;fill:#9f0e21;fill-opacity:1;stroke:none;stroke-width:1.90779;stroke-linecap:round;stroke-linejoin:round"
           d="m 58.884577,48.45519 0.381223,2.555502 1.014227,-0.138512 0.627068,-0.80909 z"
           sodipodi:nodetypes="ccccc" /><path
           id="path99"
           style="display:inline;fill:#3d0e18;fill-opacity:1;stroke:none;stroke-width:1.90779;stroke-linecap:round;stroke-linejoin:round"
           d="m 59.04887,48.739753 0.384798,2.226666 0.846401,-0.09417 z" /><path
           id="path100"
           style="display:inline;fill:#9f0e21;fill-opacity:1;stroke:none;stroke-width:1.90779;stroke-linecap:round;stroke-linejoin:round"
           d="M 66.598368,48.45519 66.217145,51.010692 65.202918,50.87218 64.57585,50.06309 Z"
           sodipodi:nodetypes="ccccc" /><path
           id="path101"
           style="display:inline;fill:#3d0e18;fill-opacity:1;stroke:none;stroke-width:1.90779;stroke-linecap:round;stroke-linejoin:round"
           d="m 66.434075,48.739753 -0.384798,2.226666 -0.846401,-0.09417 z" /></g><g
         id="g21"
         transform="matrix(1.4499311,0,0,1.4499311,1.1400491,18.02846)"><path
           id="path6-6"
           style="color:#000000;fill:url(#linearGradient28);stroke:#000000;stroke-width:0.15;stroke-dasharray:none;stroke-opacity:1"
           d="M 8.018873,7.130546 7.9882329,7.2733274 7.8199924,7.4848859 7.0203715,7.8384004 4.9201792,9.415048 5.7811366,10.33116 7.0099762,9.3316899 7.2244485,10.831307 6.765959,12.966425 h 0.1315829 l -0.5380957,5.477687 h -0.00275 c -0.8635597,0.223585 -0.9486905,0.488594 -0.9952172,0.67099 l 0.0093,0.08253 h 1.109019 l 0.017506,-0.08253 h 0.1510061 l 0.053618,0.08253 h 0.5028065 l 1.1144907,-6.231209 h 0.2853248 l 1.1144906,6.231209 h 0.5028073 l 0.05362,-0.08253 h 0.151007 l 0.01751,0.08253 h 1.10902 l 0.0093,-0.08253 c -0.04653,-0.182396 -0.131657,-0.447404 -0.995218,-0.67099 h -0.0028 l -0.538058,-5.477687 h 0.132405 L 9.7001837,10.831032 9.9146561,9.3316899 11.143496,10.33116 12.012722,9.415048 9.9042606,7.8384004 9.1046399,7.4848859 8.9366731,7.2738776 8.9060339,7.130546 H 8.8228714 8.1017626 Z"
           sodipodi:nodetypes="ccccccccccccccccccccccccccccccccccccccccccc" /><path
           id="path17-3"
           style="fill:#9f0e21;fill-opacity:1;stroke:#000000;stroke-width:0.282556;stroke-linejoin:round;stroke-dasharray:none;stroke-opacity:1"
           d="m 35.811401,8.0359518 c -0.699091,0.069562 -1.089829,0.4573536 -1.304887,1.0265634 v 2.1668078 l 1.044204,0.809491 h 0.260683 0.261174 l 1.044202,-0.809491 V 9.0625152 C 36.90172,8.4933054 36.510491,8.1055143 35.811401,8.0359518 Z"
           clip-path="none"
           transform="matrix(0.52937426,0,0,0.53236763,-10.491097,0.97609156)" /><path
           style="fill:#9f0e21;fill-opacity:1;stroke:#000000;stroke-width:0.282556;stroke-linejoin:round;stroke-dasharray:none;stroke-opacity:1"
           d="m 31.066536,16.992288 c -0.337261,1.120127 -1.900325,0.965785 -2.28931,-0.01568 l 0.533127,-4.954948 -0.360645,-0.627208 0.203843,-1.348498 c 0.609124,-0.069282 1.178043,-0.0079 1.662101,0.329284 l -0.09408,1.865944 z"
           id="path3-7"
           sodipodi:nodetypes="cccccccc"
           clip-path="none"
           transform="matrix(0.52937426,0,0,0.53236763,-10.431627,0.97609156)" /><path
           style="fill:#9f0e21;fill-opacity:1;stroke:#000000;stroke-width:0.282556;stroke-linejoin:round;stroke-dasharray:none;stroke-opacity:1"
           d="m 31.066536,16.992288 c -0.337261,1.120127 -1.900325,0.965785 -2.28931,-0.01568 l 0.533127,-4.954948 -0.360645,-0.627208 0.203843,-1.348498 c 0.609124,-0.069282 1.178043,-0.0079 1.662101,0.329284 l -0.09408,1.865944 z"
           id="path5-2"
           sodipodi:nodetypes="cccccccc"
           clip-path="none"
           transform="matrix(-0.52937426,0,0,0.53236763,27.36496,0.97609156)" /></g></g><g
       id="g29"
       transform="rotate(180,12.417018,12.996737)"><path
         style="color:#000000;fill:#c41d3c;fill-opacity:1;stroke-width:0.999998;-inkscape-stroke:none"
         d="M 14.129156,21.521484 14.018661,21.6875 c -0.467401,0.701739 -0.96706,1.434505 -0.978468,2.353516 v 0.002 11.016101 l 1.088963,3.04e-4 1.090417,-6.09e-4 v -11.015796 -0.002 C 15.208163,23.121921 14.707026,22.389199 14.239652,21.6875 Z m 0,0.617188 c 0.416025,0.634118 0.783599,1.250314 0.792369,1.90625 v 10.8125 h -0.792369 -0.79237 v -10.810547 -0.002 c 0.0088,-0.656012 0.376419,-1.272168 0.79237,-1.90625 z"
         id="path27"
         sodipodi:nodetypes="cccccccccccccccccccc" /><path
         style="color:#000000;fill:url(#linearGradient30);fill-opacity:1;stroke-width:0.999998;-inkscape-stroke:none"
         d="m 14.129116,21.82089 c -0.467092,0.701276 -0.930353,1.403389 -0.940529,2.22312 v 11.014194 l 0.940529,-3.04e-4 0.940915,6.08e-4 V 24.04401 c -0.01018,-0.819731 -0.473822,-1.521844 -0.940915,-2.22312 z"
         id="path28"
         sodipodi:nodetypes="ccccccc" /><path
         style="fill:#3d0e18;fill-opacity:1;stroke:none;stroke-width:2"
         d="M 15.06992,35.057595 V 24.04401 c -0.01018,-0.819732 -0.473574,-1.521965 -0.940667,-2.223241 v 13.236522 z"
         id="path29"
         sodipodi:nodetypes="ccccc" /></g><g
       id="g32"
       transform="rotate(120,15.003459,11.602986)"><path
         style="color:#000000;fill:#c41d3c;fill-opacity:1;stroke-width:0.999998;-inkscape-stroke:none"
         d="M 14.129156,21.521484 14.018661,21.6875 c -0.467401,0.701739 -0.96706,1.434505 -0.978468,2.353516 v 0.002 11.016101 l 1.088963,3.04e-4 1.090417,-6.09e-4 v -11.015796 -0.002 C 15.208163,23.121921 14.707026,22.389199 14.239652,21.6875 Z m 0,0.617188 c 0.416025,0.634118 0.783599,1.250314 0.792369,1.90625 v 10.8125 h -0.792369 -0.79237 v -10.810547 -0.002 c 0.0088,-0.656012 0.376419,-1.272168 0.79237,-1.90625 z"
         id="path30"
         sodipodi:nodetypes="cccccccccccccccccccc" /><path
         style="color:#000000;fill:url(#linearGradient32);fill-opacity:1;stroke-width:0.999998;-inkscape-stroke:none"
         d="m 14.129116,21.82089 c -0.467092,0.701276 -0.930353,1.403389 -0.940529,2.22312 v 11.014194 l 0.940529,-3.04e-4 0.940915,6.08e-4 V 24.04401 c -0.01018,-0.819731 -0.473822,-1.521844 -0.940915,-2.22312 z"
         id="path31"
         sodipodi:nodetypes="ccccccc" /><path
         style="fill:#3d0e18;fill-opacity:1;stroke:none;stroke-width:2"
         d="M 15.06992,35.057595 V 24.04401 c -0.01018,-0.819732 -0.473574,-1.521965 -0.940667,-2.223241 v 13.236522 z"
         id="path32"
         sodipodi:nodetypes="ccccc" /></g></g></svg>
