<?xml version="1.0" encoding="UTF-8" standalone="no"?>
<!-- Created with Inkscape (http://www.inkscape.org/) -->

<svg
   width="64"
   height="64"
   viewBox="0 0 16.933333 16.933333"
   version="1.1"
   id="svg1"
   xml:space="preserve"
   inkscape:version="1.3.2 (091e20e, 2023-11-25, custom)"
   sodipodi:docname="desperate_measure_final-hour.svg"
   xmlns:inkscape="http://www.inkscape.org/namespaces/inkscape"
   xmlns:sodipodi="http://sodipodi.sourceforge.net/DTD/sodipodi-0.dtd"
   xmlns:xlink="http://www.w3.org/1999/xlink"
   xmlns="http://www.w3.org/2000/svg"
   xmlns:svg="http://www.w3.org/2000/svg"><sodipodi:namedview
     id="namedview1"
     pagecolor="#505050"
     bordercolor="#eeeeee"
     borderopacity="1"
     inkscape:showpageshadow="0"
     inkscape:pageopacity="0"
     inkscape:pagecheckerboard="0"
     inkscape:deskcolor="#505050"
     inkscape:document-units="mm"
     inkscape:zoom="5.6568543"
     inkscape:cx="29.521708"
     inkscape:cy="15.644737"
     inkscape:window-width="2560"
     inkscape:window-height="1369"
     inkscape:window-x="-8"
     inkscape:window-y="-8"
     inkscape:window-maximized="1"
     inkscape:current-layer="layer1"
     showgrid="false"><inkscape:grid
       id="grid157"
       units="mm"
       originx="0"
       originy="0"
       spacingx="0.99999998"
       spacingy="0.99999998"
       empcolor="#0099e5"
       empopacity="0.30196078"
       color="#0099e5"
       opacity="0.14901961"
       empspacing="5"
       dotted="false"
       gridanglex="30"
       gridanglez="30"
       visible="false" /></sodipodi:namedview><defs
     id="defs1"><linearGradient
       id="linearGradient5"
       inkscape:collect="always"><stop
         style="stop-color:#611626;stop-opacity:1;"
         offset="0"
         id="stop4" /><stop
         style="stop-color:#9f0e21;stop-opacity:1;"
         offset="1"
         id="stop5" /></linearGradient><linearGradient
       id="linearGradient3"
       inkscape:collect="always"><stop
         style="stop-color:#611626;stop-opacity:1;"
         offset="0"
         id="stop2" /><stop
         style="stop-color:#9f0e21;stop-opacity:1;"
         offset="1"
         id="stop3" /></linearGradient><linearGradient
       id="linearGradient29"
       inkscape:collect="always"><stop
         style="stop-color:#80092c;stop-opacity:1;"
         offset="0"
         id="stop29" /><stop
         style="stop-color:#410613;stop-opacity:1;"
         offset="1"
         id="stop30" /></linearGradient><radialGradient
       inkscape:collect="always"
       xlink:href="#linearGradient29"
       id="radialGradient30"
       cx="-4.2943563"
       cy="43.659042"
       fx="-4.2943563"
       fy="43.659042"
       r="8.4666662"
       gradientUnits="userSpaceOnUse"
       gradientTransform="matrix(1,0,0,1.9999998,12.761023,-70.384744)" /><clipPath
       clipPathUnits="userSpaceOnUse"
       id="clipPath30"><rect
         style="fill:url(#radialGradient31);stroke:none;stroke-width:0.79375;stroke-linejoin:round"
         id="rect31"
         width="16.933332"
         height="16.933332"
         x="0"
         y="8.9009603e-07"
         inkscape:label="bg" /></clipPath><radialGradient
       inkscape:collect="always"
       xlink:href="#linearGradient29-5"
       id="radialGradient31"
       gradientUnits="userSpaceOnUse"
       gradientTransform="matrix(1,0,0,1.9999998,12.761023,-70.384744)"
       cx="-4.2943563"
       cy="43.659042"
       fx="-4.2943563"
       fy="43.659042"
       r="8.4666662" /><linearGradient
       id="linearGradient29-5"
       inkscape:collect="always"><stop
         style="stop-color:#f3ed5e;stop-opacity:1;"
         offset="0"
         id="stop29-5" /><stop
         style="stop-color:#915302;stop-opacity:1;"
         offset="1"
         id="stop30-0" /></linearGradient><linearGradient
       inkscape:collect="always"
       xlink:href="#linearGradient3"
       id="linearGradient21"
       x1="7.038681"
       y1="16.968859"
       x2="7.0629916"
       y2="8.7135715"
       gradientUnits="userSpaceOnUse"
       gradientTransform="translate(0.136124)" /><linearGradient
       id="linearGradient20"
       inkscape:collect="always"><stop
         style="stop-color:#611626;stop-opacity:1;"
         offset="0"
         id="stop20" /><stop
         style="stop-color:#9f0e21;stop-opacity:1;"
         offset="1"
         id="stop21" /></linearGradient><linearGradient
       inkscape:collect="always"
       xlink:href="#linearGradient5"
       id="linearGradient23"
       x1="7.4093494"
       y1="16.90694"
       x2="7.2402711"
       y2="8.5560284"
       gradientUnits="userSpaceOnUse"
       gradientTransform="translate(0.136124)" /><linearGradient
       inkscape:collect="always"
       xlink:href="#linearGradient20"
       id="linearGradient25"
       x1="7.0818224"
       y1="16.951473"
       x2="7.1681428"
       y2="8.4351969"
       gradientUnits="userSpaceOnUse"
       gradientTransform="translate(0.136124)" /><clipPath
       clipPathUnits="userSpaceOnUse"
       id="clipPath23"><g
         id="g24"><rect
           style="fill:url(#radialGradient24);stroke:none;stroke-width:0.79375;stroke-linejoin:round"
           id="rect23"
           width="16.933332"
           height="16.933332"
           x="0.136124"
           y="8.9009603e-07"
           inkscape:label="bg" /></g></clipPath><radialGradient
       inkscape:collect="always"
       xlink:href="#linearGradient29-5"
       id="radialGradient24"
       gradientUnits="userSpaceOnUse"
       gradientTransform="matrix(1,0,0,1.9999998,12.897147,-70.384744)"
       cx="-4.2943563"
       cy="43.659042"
       fx="-4.2943563"
       fy="43.659042"
       r="8.4666662" /></defs><g
     inkscape:label="Layer 1"
     inkscape:groupmode="layer"
     id="layer1"><rect
       style="fill:url(#radialGradient30);stroke:none;stroke-width:0.79375;stroke-linejoin:round"
       id="rect29"
       width="16.933332"
       height="16.933332"
       x="0"
       y="8.9009603e-07"
       inkscape:label="bg" /><g
       id="g19"
       inkscape:label="thorns"><path
         id="path2"
         style="fill:#5d091c;fill-opacity:1;stroke-width:0.661458;stroke-linecap:round;stroke-linejoin:round"
         d="M 9.3224284 12.450403 L 9.785966 16.933333 L 10.921297 16.933333 L 10.961088 16.925582 L 9.3224284 12.450403 z " /><path
         id="path4"
         style="fill:#5d091c;fill-opacity:1;stroke-width:0.661458;stroke-linecap:round;stroke-linejoin:round"
         d="M 0 6.7034668 L 0 7.8656698 L 7.007841 7.3540731 L 0 6.7034668 z " /><path
         id="path5"
         style="fill:#5d091c;fill-opacity:1;stroke-width:0.661458;stroke-linecap:round;stroke-linejoin:round"
         d="M 16.294613 0 L 12.121741 5.1671265 L 16.933333 0.83767497 L 16.933333 0 L 16.294613 0 z " /><path
         id="path6"
         style="fill:#5d091c;fill-opacity:1;stroke-width:0.661458;stroke-linecap:round;stroke-linejoin:round"
         d="M 3.8777995 13.373861 L 0.38033854 16.933333 L 1.6717326 16.933333 L 3.8777995 13.373861 z " /><path
         id="path7"
         style="fill:#5d091c;fill-opacity:1;stroke-width:0.661458;stroke-linecap:round;stroke-linejoin:round"
         d="M 1.352889 0 L 6.4600708 4.9004761 L 2.7300659 0 L 1.352889 0 z " /><path
         id="path8"
         style="fill:#5d091c;fill-opacity:1;stroke-width:0.661458;stroke-linecap:round;stroke-linejoin:round"
         d="M 7.6119385 11.755355 L 4.8131429 16.933333 L 5.999117 16.933333 L 7.6119385 11.755355 z " /><path
         id="path9"
         style="fill:#5d091c;fill-opacity:1;stroke-width:0.661458;stroke-linecap:round;stroke-linejoin:round"
         d="M 11.968778 10.287227 L 16.933333 12.238013 L 16.933333 11.157975 L 11.968778 10.287227 z " /><path
         id="path10"
         style="fill:#5d091c;fill-opacity:1;stroke-width:0.661458;stroke-linecap:round;stroke-linejoin:round"
         d="M 8.3214559 13.976408 L 7.9106283 16.933333 L 8.7736247 16.933333 L 8.3214559 13.976408 z " /><path
         id="path11"
         style="fill:#5d091c;fill-opacity:1;stroke-width:0.661458;stroke-linecap:round;stroke-linejoin:round"
         d="M 13.681852 0 L 12.135693 3.5641235 L 14.684892 0 L 13.681852 0 z " /><path
         id="path12"
         style="fill:#5d091c;fill-opacity:1;stroke-width:0.661458;stroke-linecap:round;stroke-linejoin:round"
         d="M 16.933333 4.5904175 L 12.282971 6.3897909 L 16.933333 5.5030233 L 16.933333 4.5904175 z " /><path
         id="path13"
         style="fill:#5d091c;fill-opacity:1;stroke-width:0.661458;stroke-linecap:round;stroke-linejoin:round"
         d="M 5.3159546 8.7446859 L 0 9.777181 L 0 10.965222 L 5.3159546 8.7446859 z " /><path
         id="path14"
         style="fill:#5d091c;fill-opacity:1;stroke-width:0.661458;stroke-linecap:round;stroke-linejoin:round"
         d="M 12.142928 13.451892 L 15.031641 16.933333 L 16.268774 16.933333 L 12.142928 13.451892 z " /><path
         id="path15"
         style="fill:#5d091c;fill-opacity:1;stroke-width:0.661458;stroke-linecap:round;stroke-linejoin:round"
         d="M 3.6524902 11.440129 L 0 12.679846 L 0 13.694255 L 3.6524902 11.440129 z " /><path
         id="path16"
         style="fill:#5d091c;fill-opacity:1;stroke-width:0.661458;stroke-linecap:round;stroke-linejoin:round"
         d="M 0 2.3605794 L 0 3.365686 L 4.1434163 4.6436442 L 0 2.3605794 z " /><path
         id="path17"
         style="fill:#5d091c;fill-opacity:1;stroke-width:0.661458;stroke-linecap:round;stroke-linejoin:round"
         d="M 0 0 L 0 1.0578166 L 3.0251383 3.0070516 L 0.11368815 0 L 0 0 z " /><path
         id="path18"
         style="fill:#5d091c;fill-opacity:1;stroke-width:0.661458;stroke-linecap:round;stroke-linejoin:round"
         d="M 7.1132609 0 L 8.1054484 5.4043213 L 7.97264 0 L 7.1132609 0 z " /><path
         id="path19"
         style="fill:#5d091c;fill-opacity:1;stroke-width:0.661458;stroke-linecap:round;stroke-linejoin:round"
         d="M 9.7751139 0 L 10.008175 5.2989014 L 10.959538 0 L 9.7751139 0 z " /><path
         id="path20"
         style="fill:#5d091c;fill-opacity:1;stroke-width:0.661458;stroke-linecap:round;stroke-linejoin:round"
         d="M 16.933333 7.1949097 L 14.1087 7.9214803 L 16.933333 8.0289673 L 16.933333 7.1949097 z " /></g><path
       id="rect5"
       style="display:none;fill:#000000;fill-opacity:1;stroke:none;stroke-width:0.2;stroke-linejoin:round;stroke-opacity:1"
       d="m -13.859619,-2.0009111 c -0.109934,0 -0.198437,0.088503 -0.198437,0.198437 v 0.42168 c 0,0.109934 0.0885,0.198437 0.198437,0.198437 h 2.456181 c 0.109934,0 0.198438,-0.088503 0.198438,-0.198437 v -0.42168 c 0,-0.109934 -0.0885,-0.198437 -0.198438,-0.198437 z m 0.163814,1.00614002 V 2.1967649 l 0.853695,1.2665896 v 3.4256307 h -0.08061 v 0.2160075 h -0.207739 v 0.4237467 h 0.996838 V 7.1049927 h -0.207744 V 6.8889852 h -0.07958 V 3.4633545 l 0.853178,-1.2665896 v -3.19153598 h -0.420646 V 1.0629839 h -1.286227 v -2.05775498 z m 0.421163,2.45514698 h 1.286227 v 0.736389 l -0.643372,0.9539472 -0.642855,-0.9539472 z"
       inkscape:label="crutch" /><path
       id="path23"
       style="display:inline;fill:#9f0e21;fill-opacity:1;stroke:#c41d3c;stroke-width:0.2;stroke-linejoin:round;stroke-dasharray:none;stroke-opacity:1"
       d="M 4.2421465,3.6283089 C 4.19214,3.7644507 4.2614889,3.9143095 4.3976259,3.964315 l 0.5222053,0.1918095 c 0.1361413,0.050006 0.2859994,-0.019334 0.3360068,-0.15548 L 6.3730814,0.95892968 C 6.4230866,0.8227881 6.3537435,0.67292836 6.2176021,0.62292249 L 5.6953968,0.43111289 C 5.5592554,0.38110711 5.4093983,0.4504474 5.3593901,0.58659384 Z m 1.3205106,0.254797 3.9523732,1.4517351 1.9568557,-0.481075 4.242273,1.5582179 -0.03667,0.099827 0.267502,0.098255 -0.09449,0.2572639 0.524766,0.1927496 0.453429,-1.2344768 -0.524765,-0.1927497 -0.0945,0.257268 -0.267497,-0.098255 -0.03619,0.098551 L 11.663476,4.3321992 10.483025,2.6994959 6.5306524,1.2477609 6.3393124,1.7686861 8.8876202,2.7046978 8.3025542,4.2975508 5.7542465,3.3615391 Z m 3.2320088,0.5952094 0.5850669,-1.592854 0.9119392,0.3349616 0.888707,1.2306696 -1.4737744,0.3621842 z"
       inkscape:label="crutch"
       inkscape:transform-center-x="3.9898251"
       inkscape:transform-center-y="-1.9831029" /><path
       id="path2-8"
       style="fill:url(#linearGradient21);stroke:#c41d3c;stroke-width:0.237;stroke-linejoin:round;stroke-dasharray:none;stroke-opacity:1"
       d="m 6.6463293,8.5178598 -0.5321469,0.6654286 -1.5106893,0.663959 -4.02197269,2.9615986 1.68121249,1.720902 2.3211596,-1.877459 0.46404,3.227916 -0.925132,3.599587 H 10.532085 L 9.6539889,15.880205 10.226806,12.652289 13.418218,11.556879 12.936051,9.1357574 10.208186,9.8472474 8.6974965,9.1832884 8.1653496,8.5178598 Z"
       sodipodi:nodetypes="ccccccccccccccccc"
       clip-path="none"
       transform="translate(0,0.72496859)" /><path
       style="fill:url(#linearGradient23);stroke:#c41d3c;stroke-width:0.237055;stroke-linejoin:round;stroke-dasharray:none;stroke-opacity:1"
       d="M 2.6938051,13.94958 C 2.3565441,15.069707 0.79347986,14.915365 0.40449528,13.9339 L 0.93762163,8.9789519 0.57697748,8.3517438 0.78082017,7.0032462 C 1.3899445,6.9339636 1.9588634,6.9953476 2.4429212,7.3325305 l -0.094082,1.8659439 z"
       id="path3"
       sodipodi:nodetypes="cccccccc"
       clip-path="none"
       transform="translate(0,0.72496859)" /><path
       style="fill:url(#linearGradient25);stroke:#c41d3c;stroke-width:0.237055;stroke-linejoin:round;stroke-dasharray:none;stroke-opacity:1"
       d="m 13.948018,11.253455 c -0.815292,0.838885 -2.131583,-0.01807 -2.024775,-1.068395 l 2.755493,-4.1524648 -0.187937,-0.4130305 0.6503,-1.1499539 c 0.314488,-0.1245865 1.012094,-0.018219 1.38774,0.5300776 l -0.698616,1.8777747 z"
       id="path5-4"
       sodipodi:nodetypes="cccccccc"
       clip-path="none"
       inkscape:transform-center-x="-0.66733649"
       inkscape:transform-center-y="-2.7066925"
       transform="rotate(-11.384212,16.597248,10.859063)" /><g
       id="g17"
       transform="matrix(1.4336712,0,0,1.4336712,21.787134,-0.19612125)"
       style="stroke:none;stroke-width:0.59375;stroke-opacity:1"
       clip-path="none"
       inkscape:label="skull"><path
         id="path2-5"
         style="display:inline;fill:#9f0e21;fill-opacity:1;stroke:#111111;stroke-width:0.16530987;stroke-linecap:round;stroke-linejoin:round;stroke-dasharray:none;stroke-dashoffset:0.6;stroke-opacity:1"
         d="m -10.034243,4.0622341 c -0.472755,0.025635 -1.281324,0.4348056 -1.039242,1.3554421 l -0.09123,0.1917356 0.04723,0.2533536 -0.09446,0.2704004 0.371235,0.3012093 0.212618,-0.044415 0.07754,0.6571554 0.185694,0.088987 0.330619,0.030809 0.330619,-0.030809 0.1856944,-0.088987 0.077539,-0.6571554 0.2126176,0.044415 0.3712346,-0.3012093 -0.094462,-0.2704004 0.047231,-0.2533536 -0.091232,-0.1917356 C -8.7529193,4.4970397 -9.5614881,4.087869 -10.034243,4.0622341 Z" /><path
         style="fill:#000000;fill-opacity:1;stroke:none;stroke-width:0.0821306;stroke-linecap:round;stroke-linejoin:round;stroke-dashoffset:0.6;stroke-opacity:1"
         d="m -9.7811376,5.382658 0.6444726,0.1275124 0.084359,0.1814205 -0.064113,0.2498808 -0.2631994,0.1266526 -0.2324548,-0.10282 -0.1629235,-0.2081599 z"
         id="path3-3"
         sodipodi:nodetypes="cccccccc" /><path
         id="path4-8"
         style="fill:#000000;fill-opacity:1;stroke:none;stroke-width:0.0821306;stroke-linecap:round;stroke-linejoin:round;stroke-dashoffset:0.6;stroke-opacity:1"
         d="m -10.034243,5.8080286 -0.290157,0.5647282 0.128155,0.1266768 0.162002,-0.1266768 0.162002,0.1266768 0.128155,-0.1266768 z" /><path
         style="fill:#000000;fill-opacity:1;stroke:none;stroke-width:0.0821306;stroke-linecap:round;stroke-linejoin:round;stroke-dashoffset:0.6;stroke-opacity:1"
         d="m -10.287349,5.382658 -0.644472,0.1275124 -0.08436,0.1814205 0.06411,0.2498808 0.2632,0.1266526 0.232454,-0.10282 0.162924,-0.2081599 z"
         id="path16-2"
         sodipodi:nodetypes="cccccccc" /></g><path
       style="fill:#611626;fill-opacity:1;stroke:#c41d3c;stroke-width:0.2;stroke-dasharray:none;stroke-opacity:1"
       d="M 12.493756,9.5948287 12.999739,8.3400621 15.012117,7.2257687 14.692306,8.68793 Z"
       id="path26"
       sodipodi:nodetypes="ccccc" /><path
       style="fill:#611626;fill-opacity:1;stroke:#c41d3c;stroke-width:0.2;stroke-dasharray:none;stroke-opacity:1"
       d="M 14.758789,8.2516926 13.187825,7.8961588 12.81842,8.7571584 14.635267,9.0457868 Z"
       id="path1"
       sodipodi:nodetypes="ccccc" /><path
       style="fill:#611626;fill-opacity:1;stroke:#c41d3c;stroke-width:0.2;stroke-dasharray:none;stroke-opacity:1"
       d="m 12.574617,7.7444037 -0.722068,-0.5809604 0.16413,0.7659792 -0.296041,0.351968 0.568253,0.1309612 z"
       id="path24"
       sodipodi:nodetypes="cccccc" /><path
       id="rect24"
       style="fill:#c41d3c;fill-opacity:1;stroke:none;stroke-width:0.2;stroke-dasharray:none;stroke-opacity:1"
       d="m 13.049098,7.8134386 -0.36864,0.8633672 c -0.07753,0.1815781 -0.343356,0.062216 -0.271044,-0.1071417 l 0.36864,-0.8633672 c 0.07632,-0.1787386 0.344534,-0.064974 0.271044,0.1071417 z"
       sodipodi:nodetypes="sssss" /><path
       style="fill:#611626;fill-opacity:1;stroke:#c41d3c;stroke-width:0.2;stroke-dasharray:none;stroke-opacity:1"
       d="M 5.0217814,16.198715 4.9146388,15.334072 10.222641,13.396056 10.003396,14.610687 Z"
       id="path27"
       sodipodi:nodetypes="ccccc" /><path
       style="fill:#611626;fill-opacity:1;stroke:#c41d3c;stroke-width:0.2;stroke-dasharray:none;stroke-opacity:1"
       d="M 10.005567,14.579579 4.7661489,14.303267 4.926427,15.320079 9.8407043,15.435251 Z"
       id="path28"
       sodipodi:nodetypes="ccccc" /></g></svg>
