<?xml version="1.0" encoding="UTF-8" standalone="no"?>
<!-- Created with Inkscape (http://www.inkscape.org/) -->

<svg
   width="64"
   height="64"
   viewBox="0 0 16.933333 16.933333"
   version="1.1"
   id="svg1"
   xml:space="preserve"
   inkscape:version="1.3.2 (091e20e, 2023-11-25, custom)"
   sodipodi:docname="desperate_measure_death-pact.svg"
   xmlns:inkscape="http://www.inkscape.org/namespaces/inkscape"
   xmlns:sodipodi="http://sodipodi.sourceforge.net/DTD/sodipodi-0.dtd"
   xmlns:xlink="http://www.w3.org/1999/xlink"
   xmlns="http://www.w3.org/2000/svg"
   xmlns:svg="http://www.w3.org/2000/svg"><sodipodi:namedview
     id="namedview1"
     pagecolor="#505050"
     bordercolor="#eeeeee"
     borderopacity="1"
     inkscape:showpageshadow="0"
     inkscape:pageopacity="0"
     inkscape:pagecheckerboard="0"
     inkscape:deskcolor="#505050"
     inkscape:document-units="mm"
     inkscape:zoom="11.313708"
     inkscape:cx="33.764349"
     inkscape:cy="39.465397"
     inkscape:window-width="2560"
     inkscape:window-height="1369"
     inkscape:window-x="-8"
     inkscape:window-y="-8"
     inkscape:window-maximized="1"
     inkscape:current-layer="layer1"
     showgrid="false"><inkscape:grid
       id="grid157"
       units="mm"
       originx="0"
       originy="0"
       spacingx="0.99999998"
       spacingy="0.99999998"
       empcolor="#0099e5"
       empopacity="0.30196078"
       color="#0099e5"
       opacity="0.14901961"
       empspacing="5"
       dotted="false"
       gridanglex="30"
       gridanglez="30"
       visible="false" /></sodipodi:namedview><defs
     id="defs1"><linearGradient
       id="linearGradient29"
       inkscape:collect="always"><stop
         style="stop-color:#80092c;stop-opacity:1;"
         offset="0"
         id="stop29" /><stop
         style="stop-color:#410613;stop-opacity:1;"
         offset="1"
         id="stop30" /></linearGradient><radialGradient
       inkscape:collect="always"
       xlink:href="#linearGradient29"
       id="radialGradient30"
       cx="-4.2943563"
       cy="43.659042"
       fx="-4.2943563"
       fy="43.659042"
       r="8.4666662"
       gradientUnits="userSpaceOnUse"
       gradientTransform="matrix(1,0,0,1.9999998,12.761023,-70.384744)" /></defs><g
     inkscape:label="Layer 1"
     inkscape:groupmode="layer"
     id="layer1"><rect
       style="fill:url(#radialGradient30);stroke:none;stroke-width:0.79375;stroke-linejoin:round"
       id="rect29"
       width="16.933332"
       height="16.933332"
       x="0"
       y="8.9009603e-07"
       inkscape:label="bg" /><path
       id="path3"
       style="display:none;fill:#100901;fill-opacity:1;stroke:#c41d3c;stroke-width:0.264583;stroke-linejoin:round;stroke-dasharray:none;stroke-opacity:1"
       d="M 12.96148,1.160136 C 11.917738,2.102169 7.5217545,1.08243 6.0730119,1.814876 3.0958593,3.348904 2.457533,3.015332 1.284674,3.264917 L 0.77152701,2.099613 c -0.273899,-0.054635 -0.419446,0.065503 -0.506946,0.264584 L 6.2817847,16.66875 h 0.903304 L 4.6994523,11.021549 C 6.432248,11.166579 7.2535779,11.26301 8.5002539,10.619507 9.9881184,9.851508 13.062335,8.425402 16.195908,8.674406 13.566147,7.582224 13.447501,3.92211 12.96148,1.160136 Z M 1.802988,4.442623 c 1.7032052,1.960876 2.5254025,3.779086 2.3957197,5.442562 z" /><g
       id="g157"
       inkscape:label="hill"
       style="display:none"><path
         id="path123"
         style="color:#000000;display:inline;fill:#100901;stroke-linecap:round;stroke-linejoin:round;-inkscape-stroke:none"
         d="M 7.3623413,12.64574 C 4.5294286,13.0394 2.4535971,15.251044 0.15761312,16.933333 H 16.735929 C 14.219067,14.832469 10.931756,13.583258 7.3623413,12.64574 Z" /><path
         id="path124"
         style="color:#000000;fill:#c41d3c;fill-opacity:1;stroke-linecap:round;stroke-linejoin:round;-inkscape-stroke:none"
         d="M 7.3447713,12.515515 C 4.4197705,12.921971 2.3131555,15.207557 0,16.886308 v 0.04703 H 0.36586914 C 2.615439,15.261233 4.6495853,13.169227 7.358724,12.782682 c 3.464575,0.912147 6.610351,2.163217 9.072831,4.150651 h 0.501778 v -0.0088 C 14.378488,14.74637 11.026204,13.471221 7.3954142,12.517582 a 0.13230489,0.13230489 0 0 0 -0.050643,-0.0021 z" /></g><g
       id="g19"
       inkscape:label="thorns"><path
         id="path2"
         style="fill:#5d091c;fill-opacity:1;stroke-width:0.661458;stroke-linecap:round;stroke-linejoin:round"
         d="M 9.3224284 12.450403 L 9.785966 16.933333 L 10.921297 16.933333 L 10.961088 16.925582 L 9.3224284 12.450403 z " /><path
         id="path4"
         style="fill:#5d091c;fill-opacity:1;stroke-width:0.661458;stroke-linecap:round;stroke-linejoin:round"
         d="M 0 6.7034668 L 0 7.8656698 L 7.007841 7.3540731 L 0 6.7034668 z " /><path
         id="path5"
         style="fill:#5d091c;fill-opacity:1;stroke-width:0.661458;stroke-linecap:round;stroke-linejoin:round"
         d="M 16.294613 0 L 12.121741 5.1671265 L 16.933333 0.83767497 L 16.933333 0 L 16.294613 0 z " /><path
         id="path6"
         style="fill:#5d091c;fill-opacity:1;stroke-width:0.661458;stroke-linecap:round;stroke-linejoin:round"
         d="M 3.8777995 13.373861 L 0.38033854 16.933333 L 1.6717326 16.933333 L 3.8777995 13.373861 z " /><path
         id="path7"
         style="fill:#5d091c;fill-opacity:1;stroke-width:0.661458;stroke-linecap:round;stroke-linejoin:round"
         d="M 1.352889 0 L 6.4600708 4.9004761 L 2.7300659 0 L 1.352889 0 z " /><path
         id="path8"
         style="fill:#5d091c;fill-opacity:1;stroke-width:0.661458;stroke-linecap:round;stroke-linejoin:round"
         d="M 7.6119385 11.755355 L 4.8131429 16.933333 L 5.999117 16.933333 L 7.6119385 11.755355 z " /><path
         id="path9"
         style="fill:#5d091c;fill-opacity:1;stroke-width:0.661458;stroke-linecap:round;stroke-linejoin:round"
         d="M 11.968778 10.287227 L 16.933333 12.238013 L 16.933333 11.157975 L 11.968778 10.287227 z " /><path
         id="path10"
         style="fill:#5d091c;fill-opacity:1;stroke-width:0.661458;stroke-linecap:round;stroke-linejoin:round"
         d="M 8.3214559 13.976408 L 7.9106283 16.933333 L 8.7736247 16.933333 L 8.3214559 13.976408 z " /><path
         id="path11"
         style="fill:#5d091c;fill-opacity:1;stroke-width:0.661458;stroke-linecap:round;stroke-linejoin:round"
         d="M 13.681852 0 L 12.135693 3.5641235 L 14.684892 0 L 13.681852 0 z " /><path
         id="path12"
         style="fill:#5d091c;fill-opacity:1;stroke-width:0.661458;stroke-linecap:round;stroke-linejoin:round"
         d="M 16.933333 4.5904175 L 12.282971 6.3897909 L 16.933333 5.5030233 L 16.933333 4.5904175 z " /><path
         id="path13"
         style="fill:#5d091c;fill-opacity:1;stroke-width:0.661458;stroke-linecap:round;stroke-linejoin:round"
         d="M 5.3159546 8.7446859 L 0 9.777181 L 0 10.965222 L 5.3159546 8.7446859 z " /><path
         id="path14"
         style="fill:#5d091c;fill-opacity:1;stroke-width:0.661458;stroke-linecap:round;stroke-linejoin:round"
         d="M 12.142928 13.451892 L 15.031641 16.933333 L 16.268774 16.933333 L 12.142928 13.451892 z " /><path
         id="path15"
         style="fill:#5d091c;fill-opacity:1;stroke-width:0.661458;stroke-linecap:round;stroke-linejoin:round"
         d="M 3.6524902 11.440129 L 0 12.679846 L 0 13.694255 L 3.6524902 11.440129 z " /><path
         id="path16"
         style="fill:#5d091c;fill-opacity:1;stroke-width:0.661458;stroke-linecap:round;stroke-linejoin:round"
         d="M 0 2.3605794 L 0 3.365686 L 4.1434163 4.6436442 L 0 2.3605794 z " /><path
         id="path17"
         style="fill:#5d091c;fill-opacity:1;stroke-width:0.661458;stroke-linecap:round;stroke-linejoin:round"
         d="M 0 0 L 0 1.0578166 L 3.0251383 3.0070516 L 0.11368815 0 L 0 0 z " /><path
         id="path18"
         style="fill:#5d091c;fill-opacity:1;stroke-width:0.661458;stroke-linecap:round;stroke-linejoin:round"
         d="M 7.1132609 0 L 8.1054484 5.4043213 L 7.97264 0 L 7.1132609 0 z " /><path
         id="path19"
         style="fill:#5d091c;fill-opacity:1;stroke-width:0.661458;stroke-linecap:round;stroke-linejoin:round"
         d="M 9.7751139 0 L 10.008175 5.2989014 L 10.959538 0 L 9.7751139 0 z " /><path
         id="path20"
         style="fill:#5d091c;fill-opacity:1;stroke-width:0.661458;stroke-linecap:round;stroke-linejoin:round"
         d="M 16.933333 7.1949097 L 14.1087 7.9214803 L 16.933333 8.0289673 L 16.933333 7.1949097 z " /></g><g
       id="g14"
       inkscape:label="skull-profile"
       transform="rotate(15,4.5186877,13.256279)"
       style="display:inline"><path
         style="display:inline;fill:#850c1c;fill-opacity:1;stroke:#390000;stroke-width:0.259;stroke-linecap:round;stroke-linejoin:round;stroke-dasharray:none;stroke-opacity:1"
         d="m 6.2533826,13.676392 -0.196547,0.0071 -0.08399,0.712945 -0.86304,-0.03931 0.03572,-0.76655 -0.782633,-0.116146 -0.162599,0.871974 -1.879994,-0.529107 0.161717,-2.062 -2.79987014,-0.151621 1.2314195,3.573568 4.60917864,1.425204 0.677223,-0.202158 z"
         id="path12-0"
         sodipodi:nodetypes="cccccccccccccc"
         inkscape:transform-center-x="-2.8875172"
         inkscape:transform-center-y="2.2871587"
         inkscape:label="jaw" /><g
         id="path9-2"
         inkscape:label="cranium"><path
           id="path26"
           style="color:#000000;fill:#9f0e21;stroke-linecap:round;stroke-linejoin:round;-inkscape-stroke:none"
           d="M -1.3872393 1.3063853 L -3.12333 2.1947494 L -0.47725065 12.070052 L 0.54005723 11.292431 L 1.2573036 11.455481 L 1.7292842 12.284513 L 3.3589701 12.827949 L 3.1873351 13.742768 L 4.10199 13.971692 L 4.2449991 13.113762 L 5.2456996 13.2565 L 5.2170804 14.01423 L 5.8886949 14.042919 L 5.9604066 13.328212 L 6.2749089 13.327936 L 5.6052613 11.188169 L 6.1837324 9.405717 L 5.3882907 7.7388868 L 6.2591906 6.2311746 L 3.9399184 2.2136906 L -1.3872393 1.3063853 z " /><path
           id="path27"
           style="color:#000000;fill:#390000;stroke-linecap:round;stroke-linejoin:round;-inkscape-stroke:none"
           d="M -1.4453309 1.1914124 L -3.1574358 2.0674647 L -3.0892241 2.3220342 L -1.3671719 1.4411766 L 3.8576729 2.3320271 L 6.1092621 6.2306884 L 5.2772649 7.6739422 A 0.12951295 0.12951295 45 0 0 5.2716507 7.7947501 L 6.0447328 9.4140722 L 5.4822487 11.148371 A 0.12951295 0.12951295 45 0 0 5.4823089 11.226464 L 6.097631 13.199424 L 5.9611176 13.199088 A 0.12951295 0.12951295 45 0 0 5.8320659 13.314452 L 5.7712274 13.908011 L 5.3513814 13.890505 L 5.375029 13.261971 A 0.12951295 0.12951295 45 0 0 5.2634893 13.12922 L 4.2637872 12.986214 A 0.12951295 0.12951295 45 0 0 4.117148 13.091845 L 3.9977751 13.812368 L 3.338013 13.64622 L 3.4862242 12.851631 A 0.12951295 0.12951295 45 0 0 3.4003994 12.705034 L 1.8162371 12.177755 L 1.3694057 11.390669 A 0.12951295 0.12951295 45 0 0 1.2874123 11.33025 L 0.56826717 11.166103 A 0.12951295 0.12951295 45 0 0 0.46110861 11.189467 L -0.51349648 11.934781 L -0.44100482 12.205323 L 0.57034902 11.431438 L 1.1735869 11.568327 L 1.6173158 12.349825 A 0.12951295 0.12951295 45 0 0 1.6874895 12.408061 L 3.2108763 12.914175 L 3.0605801 13.718953 A 0.12951295 0.12951295 45 0 0 3.1564956 13.869265 L 4.0705176 14.097823 A 0.12951295 0.12951295 45 0 0 4.230572 13.992343 L 4.3514948 13.259635 L 5.1110856 13.369074 L 5.0880184 14.009758 A 0.12951295 0.12951295 45 0 0 5.210745 14.144326 L 5.8825911 14.171883 A 0.12951295 0.12951295 45 0 0 6.0175347 14.056546 L 6.0783995 13.457094 L 6.27533 13.457291 A 0.12951295 0.12951295 45 0 0 6.3982266 13.289008 L 5.7420422 11.189503 L 6.306745 9.4455151 A 0.12951295 0.12951295 45 0 0 6.3008715 9.34972 L 5.5351622 7.7439372 L 6.3709831 6.2969838 A 0.12951295 0.12951295 45 0 0 6.371159 6.1658632 L 4.0530188 2.1486108 A 0.12951295 0.12951295 45 0 0 3.9608369 2.0861069 L -1.3650551 1.1795324 A 0.12951295 0.12951295 45 0 0 -1.4453309 1.1914124 z " /></g><path
         style="fill:#000000;fill-opacity:1;stroke:none;stroke-width:1.41177;stroke-linecap:round;stroke-linejoin:round"
         d="M 4.5977511,8.254171 C 3.6925795,7.137307 3.4920448,6.9919867 2.8647895,6.6594769 2.1278758,7.6844535 2.2494648,8.673788 2.4478428,9.3064814 2.9308579,10.055225 3.1979166,9.7226433 4.4345979,9.5916979 Z"
         id="path10-2"
         sodipodi:nodetypes="ccccc"
         inkscape:label="eye-cavity" /><path
         style="fill:#000000;fill-opacity:1;stroke:none;stroke-width:1.41177;stroke-linecap:round;stroke-linejoin:round"
         d="M 5.2521166,8.0093413 4.8240801,8.0066253 2.9868871,6.272012 1.6624466,6.3738608 2.8772694,6.6810985 4.5485735,8.3529927 Z"
         id="path11-0"
         inkscape:label="eye-brow" /><path
         id="path13-2"
         style="fill:#390000;fill-opacity:1;stroke:none;stroke-width:1.41177;stroke-linecap:round;stroke-linejoin:round"
         d="M -0.75036498 11.050775 L -0.64283123 11.452097 L 0.26777732 11.582061 L 3.267803 11.193896 L 4.1852772 11.970433 L 3.3049004 10.761311 L 0.28504474 11.185283 L -0.75036498 11.050775 z " /><path
         id="path14-8"
         style="fill:#390000;fill-opacity:1;stroke:none;stroke-width:1.41177;stroke-linecap:round;stroke-linejoin:round"
         d="M 2.0853055 5.4230511 L 0.70877351 6.0759735 L 1.5379602 9.3761927 L 0.3383131 9.9405244 L -1.0307017 10.004544 L -0.98081356 10.190729 L 0.32269164 10.40534 L 1.9618059 9.6761738 L 1.1145747 6.2347363 L 2.0853055 5.4230511 z " /></g><g
       id="g25"
       inkscape:label="skull-profile"
       transform="matrix(-0.96592583,0.25881905,0.25881905,0.96592583,13.348385,-0.71782571)"><g
         id="path1"
         inkscape:label="jaw"
         inkscape:transform-center-x="-2.8875172"
         inkscape:transform-center-y="2.2871587"><path
           style="color:#000000;fill:#850c1c;stroke-linecap:round;stroke-linejoin:round;-inkscape-stroke:none"
           d="m 6.2533826,13.676392 -0.196547,0.0071 -0.08399,0.712945 -0.86304,-0.03931 0.03572,-0.76655 -0.782633,-0.116146 -0.162599,0.871974 -1.879994,-0.529107 0.161717,-2.062 -2.79987014,-0.151621 1.2314195,3.573568 4.60917864,1.425204 0.677223,-0.202158 z"
           id="path28" /><path
           style="color:#000000;fill:#390000;stroke-linecap:round;stroke-linejoin:round;-inkscape-stroke:none"
           d="m -0.31054688,11.474609 a 0.12951295,0.12951295 0 0 0 -0.12890625,0.171875 L 0.79101562,15.21875 A 0.12951295,0.12951295 0 0 0 0.875,15.300781 l 4.609375,1.425781 a 0.12951295,0.12951295 0 0 0 0.076172,0 l 0.6757812,-0.203125 a 0.12951295,0.12951295 0 0 0 0.09375,-0.121093 l 0.052734,-2.722656 A 0.12951295,0.12951295 0 0 0 6.2480469,13.546875 l -0.1953125,0.0078 a 0.12951295,0.12951295 0 0 0 -0.125,0.113281 l -0.070312,0.59375 -0.6132813,-0.02734 0.03125,-0.638672 A 0.12951295,0.12951295 0 0 0 5.1640625,13.462891 l -0.78125,-0.117188 A 0.12951295,0.12951295 0 0 0 4.2363281,13.451172 L 4.0976562,14.183594 2.4570313,13.720703 2.6113281,11.765625 A 0.12951295,0.12951295 0 0 0 2.4882813,11.626953 Z m 0.17773438,0.267579 2.4765625,0.134765 -0.1523437,1.929688 a 0.12951295,0.12951295 0 0 0 0.09375,0.134765 l 1.8808593,0.529297 a 0.12951295,0.12951295 0 0 0 0.1621094,-0.09961 l 0.1386719,-0.75 0.5429687,0.08008 -0.029297,0.650391 a 0.12951295,0.12951295 0 0 0 0.1230469,0.134765 l 0.8632813,0.03906 a 0.12951295,0.12951295 0 0 0 0.1347656,-0.113282 l 0.00781,-0.07422 -0.037109,1.964843 -0.5488281,0.164063 -4.5097656,-1.394531 z"
           id="path29" /></g><g
         id="path21"
         inkscape:label="cranium"><path
           id="path30"
           style="color:#000000;fill:#9f0e21;stroke-linecap:round;stroke-linejoin:round;-inkscape-stroke:none"
           d="M -1.3872396 1.3063854 L 3.9399181 2.2136906 L 6.2591903 6.2311747 L 5.3882904 7.7388869 L 6.1837322 9.4057171 L 5.605261 11.188169 L 6.2749086 13.327936 L 5.9604064 13.328212 L 5.8886946 14.042919 L 5.2170801 14.01423 L 5.2456993 13.2565 L 4.2449989 13.113762 L 4.1019898 13.971692 L 3.1873348 13.742768 L 3.3589698 12.827949 L 1.7292839 12.284513 L 1.2573033 11.455481 L 0.54005697 11.292431 L -0.47725089 12.070052 L -3.1233302 2.1947495 L -1.3872396 1.3063854 z " /><path
           id="path31"
           style="color:#000000;fill:#390000;stroke-linecap:round;stroke-linejoin:round;-inkscape-stroke:none"
           d="M -1.4453312 1.1914125 A 0.12951295 0.12951295 0 0 1 -1.3650554 1.1795325 L 3.9608366 2.086107 A 0.12951295 0.12951295 0 0 1 4.0530185 2.1486109 L 6.3711587 6.1658633 A 0.12951295 0.12951295 0 0 1 6.3709828 6.2969839 L 5.5351619 7.7439372 L 6.3008713 9.34972 A 0.12951295 0.12951295 0 0 1 6.3067447 9.4455151 L 5.7420419 11.189503 L 6.3982264 13.289008 A 0.12951295 0.12951295 0 0 1 6.2753297 13.457291 L 6.0783992 13.457094 L 6.0175345 14.056546 A 0.12951295 0.12951295 0 0 1 5.8825909 14.171883 L 5.2107447 14.144326 A 0.12951295 0.12951295 0 0 1 5.0880182 14.009758 L 5.1110853 13.369074 L 4.3514945 13.259635 L 4.2305717 13.992343 A 0.12951295 0.12951295 0 0 1 4.0705174 14.097823 L 3.1564953 13.869265 A 0.12951295 0.12951295 0 0 1 3.0605799 13.718953 L 3.210876 12.914175 L 1.6874893 12.408061 A 0.12951295 0.12951295 0 0 1 1.6173156 12.349825 L 1.1735866 11.568327 L 0.57034877 11.431438 L -0.44100506 12.205323 L -0.51349672 11.934781 L 0.46110835 11.189467 A 0.12951295 0.12951295 0 0 1 0.56826691 11.166103 L 1.287412 11.33025 A 0.12951295 0.12951295 0 0 1 1.3694055 11.390669 L 1.8162369 12.177755 L 3.4003991 12.705034 A 0.12951295 0.12951295 0 0 1 3.4862239 12.851631 L 3.3380127 13.64622 L 3.9977749 13.812368 L 4.1171477 13.091845 A 0.12951295 0.12951295 0 0 1 4.2637869 12.986214 L 5.2634891 13.12922 A 0.12951295 0.12951295 0 0 1 5.3750287 13.261971 L 5.3513812 13.890505 L 5.7712271 13.908011 L 5.8320657 13.314452 A 0.12951295 0.12951295 0 0 1 5.9611173 13.199088 L 6.0976307 13.199424 L 5.4823086 11.226464 A 0.12951295 0.12951295 0 0 1 5.4822484 11.148371 L 6.0447326 9.4140722 L 5.2716504 7.7947501 A 0.12951295 0.12951295 0 0 1 5.2772646 7.6739422 L 6.1092618 6.2306884 L 3.8576726 2.3320271 L -1.3671722 1.4411767 L -3.0892244 2.3220343 L -3.1574361 2.0674648 L -1.4453312 1.1914125 z " /></g><path
         style="fill:#000000;stroke-width:1.41177;stroke-linecap:round;stroke-linejoin:round"
         d="M 4.5977511,8.254171 C 3.6925795,7.137307 3.4920448,6.9919867 2.8647895,6.6594769 2.1278758,7.6844535 2.2494648,8.673788 2.4478428,9.3064814 2.9308579,10.055225 3.1979166,9.7226433 4.4345979,9.5916979 Z"
         id="path22"
         sodipodi:nodetypes="ccccc"
         inkscape:label="eye-cavity" /><path
         style="fill:#000000;stroke-width:1.41177;stroke-linecap:round;stroke-linejoin:round"
         d="M 5.2521166,8.0093413 4.8240801,8.0066253 2.9868871,6.272012 1.6624466,6.3738608 2.8772694,6.6810985 4.5485735,8.3529927 Z"
         id="path23"
         inkscape:label="eye-brow" /><path
         id="path24"
         style="fill:#390000;stroke-width:1.41177;stroke-linecap:round;stroke-linejoin:round"
         d="M -0.75036523 11.050775 L 0.28504449 11.185283 L 3.3049001 10.761311 L 4.1852769 11.970433 L 3.2678027 11.193896 L 0.26777707 11.582061 L -0.64283147 11.452097 L -0.75036523 11.050775 z " /><path
         id="path25"
         style="fill:#390000;stroke-width:1.41177;stroke-linecap:round;stroke-linejoin:round"
         d="M 2.0853052 5.4230512 L 1.1145744 6.2347364 L 1.9618057 9.6761739 L 0.32269139 10.40534 L -0.98081381 10.19073 L -1.030702 10.004544 L 0.33831285 9.9405244 L 1.53796 9.3761928 L 0.70877323 6.0759736 L 2.0853052 5.4230512 z " /></g></g></svg>
