<?xml version="1.0" encoding="UTF-8" standalone="no"?>
<!-- Created with Inkscape (http://www.inkscape.org/) -->

<svg
   width="64"
   height="64"
   viewBox="0 0 16.933333 16.933333"
   version="1.1"
   id="svg1"
   xml:space="preserve"
   inkscape:version="1.3.2 (091e20e, 2023-11-25, custom)"
   sodipodi:docname="desperate_measure_desperate-repositioning.svg"
   xmlns:inkscape="http://www.inkscape.org/namespaces/inkscape"
   xmlns:sodipodi="http://sodipodi.sourceforge.net/DTD/sodipodi-0.dtd"
   xmlns:xlink="http://www.w3.org/1999/xlink"
   xmlns="http://www.w3.org/2000/svg"
   xmlns:svg="http://www.w3.org/2000/svg"><sodipodi:namedview
     id="namedview1"
     pagecolor="#505050"
     bordercolor="#eeeeee"
     borderopacity="1"
     inkscape:showpageshadow="0"
     inkscape:pageopacity="0"
     inkscape:pagecheckerboard="0"
     inkscape:deskcolor="#505050"
     inkscape:document-units="mm"
     inkscape:zoom="8"
     inkscape:cx="17.75"
     inkscape:cy="42.0625"
     inkscape:window-width="2560"
     inkscape:window-height="1369"
     inkscape:window-x="-8"
     inkscape:window-y="-8"
     inkscape:window-maximized="1"
     inkscape:current-layer="layer1"
     showgrid="false"><inkscape:grid
       id="grid157"
       units="mm"
       originx="0"
       originy="0"
       spacingx="0.99999998"
       spacingy="0.99999998"
       empcolor="#0099e5"
       empopacity="0.30196078"
       color="#0099e5"
       opacity="0.14901961"
       empspacing="5"
       dotted="false"
       gridanglex="30"
       gridanglez="30"
       visible="false" /></sodipodi:namedview><defs
     id="defs1"><linearGradient
       id="linearGradient29"
       inkscape:collect="always"><stop
         style="stop-color:#80092c;stop-opacity:1;"
         offset="0"
         id="stop29" /><stop
         style="stop-color:#410613;stop-opacity:1;"
         offset="1"
         id="stop30" /></linearGradient><radialGradient
       inkscape:collect="always"
       xlink:href="#linearGradient29"
       id="radialGradient30"
       cx="-4.2943563"
       cy="43.659042"
       fx="-4.2943563"
       fy="43.659042"
       r="8.4666662"
       gradientUnits="userSpaceOnUse"
       gradientTransform="matrix(1,0,0,1.9999998,12.761023,-70.384744)" /></defs><g
     inkscape:label="Layer 1"
     inkscape:groupmode="layer"
     id="layer1"><rect
       style="fill:url(#radialGradient30);stroke:none;stroke-width:0.79375;stroke-linejoin:round"
       id="rect29"
       width="16.933332"
       height="16.933332"
       x="0"
       y="8.9009603e-07"
       inkscape:label="bg" /><g
       id="g19"
       inkscape:label="thorns"><path
         id="path2"
         style="fill:#5d091c;fill-opacity:1;stroke-width:0.661458;stroke-linecap:round;stroke-linejoin:round"
         d="M 9.3224284 12.450403 L 9.785966 16.933333 L 10.921297 16.933333 L 10.961088 16.925582 L 9.3224284 12.450403 z " /><path
         id="path4"
         style="fill:#5d091c;fill-opacity:1;stroke-width:0.661458;stroke-linecap:round;stroke-linejoin:round"
         d="M 0 6.7034668 L 0 7.8656698 L 7.007841 7.3540731 L 0 6.7034668 z " /><path
         id="path5"
         style="fill:#5d091c;fill-opacity:1;stroke-width:0.661458;stroke-linecap:round;stroke-linejoin:round"
         d="M 16.294613 0 L 12.121741 5.1671265 L 16.933333 0.83767497 L 16.933333 0 L 16.294613 0 z " /><path
         id="path6"
         style="fill:#5d091c;fill-opacity:1;stroke-width:0.661458;stroke-linecap:round;stroke-linejoin:round"
         d="M 3.8777995 13.373861 L 0.38033854 16.933333 L 1.6717326 16.933333 L 3.8777995 13.373861 z " /><path
         id="path7"
         style="fill:#5d091c;fill-opacity:1;stroke-width:0.661458;stroke-linecap:round;stroke-linejoin:round"
         d="M 1.352889 0 L 6.4600708 4.9004761 L 2.7300659 0 L 1.352889 0 z " /><path
         id="path8"
         style="fill:#5d091c;fill-opacity:1;stroke-width:0.661458;stroke-linecap:round;stroke-linejoin:round"
         d="M 7.6119385 11.755355 L 4.8131429 16.933333 L 5.999117 16.933333 L 7.6119385 11.755355 z " /><path
         id="path9"
         style="fill:#5d091c;fill-opacity:1;stroke-width:0.661458;stroke-linecap:round;stroke-linejoin:round"
         d="M 11.968778 10.287227 L 16.933333 12.238013 L 16.933333 11.157975 L 11.968778 10.287227 z " /><path
         id="path10"
         style="fill:#5d091c;fill-opacity:1;stroke-width:0.661458;stroke-linecap:round;stroke-linejoin:round"
         d="M 8.3214559 13.976408 L 7.9106283 16.933333 L 8.7736247 16.933333 L 8.3214559 13.976408 z " /><path
         id="path11"
         style="fill:#5d091c;fill-opacity:1;stroke-width:0.661458;stroke-linecap:round;stroke-linejoin:round"
         d="M 13.681852 0 L 12.135693 3.5641235 L 14.684892 0 L 13.681852 0 z " /><path
         id="path12"
         style="fill:#5d091c;fill-opacity:1;stroke-width:0.661458;stroke-linecap:round;stroke-linejoin:round"
         d="M 16.933333 4.5904175 L 12.282971 6.3897909 L 16.933333 5.5030233 L 16.933333 4.5904175 z " /><path
         id="path13"
         style="fill:#5d091c;fill-opacity:1;stroke-width:0.661458;stroke-linecap:round;stroke-linejoin:round"
         d="M 5.3159546 8.7446859 L 0 9.777181 L 0 10.965222 L 5.3159546 8.7446859 z " /><path
         id="path14"
         style="fill:#5d091c;fill-opacity:1;stroke-width:0.661458;stroke-linecap:round;stroke-linejoin:round"
         d="M 12.142928 13.451892 L 15.031641 16.933333 L 16.268774 16.933333 L 12.142928 13.451892 z " /><path
         id="path15"
         style="fill:#5d091c;fill-opacity:1;stroke-width:0.661458;stroke-linecap:round;stroke-linejoin:round"
         d="M 3.6524902 11.440129 L 0 12.679846 L 0 13.694255 L 3.6524902 11.440129 z " /><path
         id="path16"
         style="fill:#5d091c;fill-opacity:1;stroke-width:0.661458;stroke-linecap:round;stroke-linejoin:round"
         d="M 0 2.3605794 L 0 3.365686 L 4.1434163 4.6436442 L 0 2.3605794 z " /><path
         id="path17"
         style="fill:#5d091c;fill-opacity:1;stroke-width:0.661458;stroke-linecap:round;stroke-linejoin:round"
         d="M 0 0 L 0 1.0578166 L 3.0251383 3.0070516 L 0.11368815 0 L 0 0 z " /><path
         id="path18"
         style="fill:#5d091c;fill-opacity:1;stroke-width:0.661458;stroke-linecap:round;stroke-linejoin:round"
         d="M 7.1132609 0 L 8.1054484 5.4043213 L 7.97264 0 L 7.1132609 0 z " /><path
         id="path19"
         style="fill:#5d091c;fill-opacity:1;stroke-width:0.661458;stroke-linecap:round;stroke-linejoin:round"
         d="M 9.7751139 0 L 10.008175 5.2989014 L 10.959538 0 L 9.7751139 0 z " /><path
         id="path20"
         style="fill:#5d091c;fill-opacity:1;stroke-width:0.661458;stroke-linecap:round;stroke-linejoin:round"
         d="M 16.933333 7.1949097 L 14.1087 7.9214803 L 16.933333 8.0289673 L 16.933333 7.1949097 z " /></g><circle
       style="fill:#9f0e21;fill-opacity:1;stroke:#c41d3c;stroke-width:0.2;stroke-linecap:round;stroke-linejoin:round;stroke-opacity:1"
       id="circle1"
       cx="8.3563395"
       cy="2.9639633"
       r="1.2567708" /><circle
       style="fill:#9f0e21;fill-opacity:1;stroke:#c41d3c;stroke-width:0.2;stroke-linecap:round;stroke-linejoin:round;stroke-opacity:1"
       id="circle2"
       cx="13.666156"
       cy="6.5420327"
       r="1.2567708" /><circle
       style="fill:#9f0e21;fill-opacity:1;stroke:#c41d3c;stroke-width:0.2;stroke-linecap:round;stroke-linejoin:round;stroke-opacity:1"
       id="circle3"
       cx="1.7696896"
       cy="4.8164492"
       r="1.2567708" /><path
       id="path3"
       style="fill:#9f0e21;fill-opacity:1;stroke:#c41d3c;stroke-width:0.2;stroke-linecap:round;stroke-dasharray:none;stroke-opacity:1"
       d="m 8.3563396,12.410619 -2.298568,-1.852084 h 1.554427 L 6.7688396,5.6389393 H 9.9438393 L 9.1004796,10.558535 h 1.5544274 z"
       sodipodi:nodetypes="cccccccc" /><path
       id="path4-5"
       style="fill:#9f0e21;fill-opacity:1;stroke:#c41d3c;stroke-width:0.2;stroke-linecap:round;stroke-dasharray:none;stroke-opacity:1"
       d="M 15.367798,16.437246 12.45118,15.982493 13.724487,15.247138 C 12.87958,14.268922 12.035441,13.141199 11.583016,11.628238 11.335581,10.589167 11.361175,9.5888396 11.44659,8.7514107 l 3.114022,0.6511229 c -0.237808,0.7082954 -0.471283,1.2924554 -0.460954,1.8081584 -0.04298,0.981111 0.436554,2.103659 0.967383,3.2613 l 1.365291,-0.788066 z" /><path
       id="path24"
       style="fill:#9f0e21;fill-opacity:1;stroke:#c41d3c;stroke-width:0.2;stroke-linecap:round;stroke-dasharray:none;stroke-opacity:1"
       d="m 2.7468629,15.112779 -1.740979,-2.383833 1.522904,0.407727 c 0.213118,-1.255571 0.385876,-2.463761 0.09043,-3.4003094 -0.123497,-0.500804 -0.500615,-1.004679 -0.91364,-1.62729 l 2.83962,-1.435055 c 0.299248,0.786788 0.582439,1.746075 0.612366,2.813782 -0.04543,1.5786454 -0.56872,2.8867594 -1.131714,4.0503974 l 1.420585,0.380339 z" /></g></svg>
