<?xml version="1.0" encoding="UTF-8" standalone="no"?>
<!-- Created with Inkscape (http://www.inkscape.org/) -->

<svg
   width="64"
   height="64"
   viewBox="0 0 16.933333 16.933333"
   version="1.1"
   id="svg1"
   xml:space="preserve"
   inkscape:version="1.3.2 (091e20e, 2023-11-25, custom)"
   sodipodi:docname="desperate_measure_template.svg"
   xmlns:inkscape="http://www.inkscape.org/namespaces/inkscape"
   xmlns:sodipodi="http://sodipodi.sourceforge.net/DTD/sodipodi-0.dtd"
   xmlns:xlink="http://www.w3.org/1999/xlink"
   xmlns="http://www.w3.org/2000/svg"
   xmlns:svg="http://www.w3.org/2000/svg"><sodipodi:namedview
     id="namedview1"
     pagecolor="#505050"
     bordercolor="#eeeeee"
     borderopacity="1"
     inkscape:showpageshadow="0"
     inkscape:pageopacity="0"
     inkscape:pagecheckerboard="0"
     inkscape:deskcolor="#505050"
     inkscape:document-units="mm"
     inkscape:zoom="4"
     inkscape:cx="-57.75"
     inkscape:cy="27.375"
     inkscape:window-width="2560"
     inkscape:window-height="1369"
     inkscape:window-x="-8"
     inkscape:window-y="-8"
     inkscape:window-maximized="1"
     inkscape:current-layer="layer1"
     showgrid="false"><inkscape:grid
       id="grid157"
       units="mm"
       originx="0"
       originy="0"
       spacingx="0.99999998"
       spacingy="0.99999998"
       empcolor="#0099e5"
       empopacity="0.30196078"
       color="#0099e5"
       opacity="0.14901961"
       empspacing="5"
       dotted="false"
       gridanglex="30"
       gridanglez="30"
       visible="false" /></sodipodi:namedview><defs
     id="defs1"><linearGradient
       id="linearGradient29"
       inkscape:collect="always"><stop
         style="stop-color:#80092c;stop-opacity:1;"
         offset="0"
         id="stop29" /><stop
         style="stop-color:#410613;stop-opacity:1;"
         offset="1"
         id="stop30" /></linearGradient><radialGradient
       inkscape:collect="always"
       xlink:href="#linearGradient29"
       id="radialGradient30"
       cx="-4.2943563"
       cy="43.659042"
       fx="-4.2943563"
       fy="43.659042"
       r="8.4666662"
       gradientUnits="userSpaceOnUse"
       gradientTransform="matrix(1,0,0,1.9999998,12.761023,-70.384744)" /></defs><g
     inkscape:label="Layer 1"
     inkscape:groupmode="layer"
     id="layer1"><rect
       style="fill:url(#radialGradient30);stroke:none;stroke-width:0.79375;stroke-linejoin:round"
       id="rect29"
       width="16.933332"
       height="16.933332"
       x="0"
       y="8.9009603e-07"
       inkscape:label="bg" /><path
       id="path3"
       style="display:none;fill:#100901;fill-opacity:1;stroke:#c41d3c;stroke-width:0.264583;stroke-linejoin:round;stroke-dasharray:none;stroke-opacity:1"
       d="M 12.96148,1.160136 C 11.917738,2.102169 7.5217545,1.08243 6.0730119,1.814876 3.0958593,3.348904 2.457533,3.015332 1.284674,3.264917 L 0.77152701,2.099613 c -0.273899,-0.054635 -0.419446,0.065503 -0.506946,0.264584 L 6.2817847,16.66875 h 0.903304 L 4.6994523,11.021549 C 6.432248,11.166579 7.2535779,11.26301 8.5002539,10.619507 9.9881184,9.851508 13.062335,8.425402 16.195908,8.674406 13.566147,7.582224 13.447501,3.92211 12.96148,1.160136 Z M 1.802988,4.442623 c 1.7032052,1.960876 2.5254025,3.779086 2.3957197,5.442562 z" /><g
       id="g157"
       inkscape:label="hill"
       style="display:none"><path
         id="path123"
         style="color:#000000;display:inline;fill:#100901;stroke-linecap:round;stroke-linejoin:round;-inkscape-stroke:none"
         d="M 7.3623413,12.64574 C 4.5294286,13.0394 2.4535971,15.251044 0.15761312,16.933333 H 16.735929 C 14.219067,14.832469 10.931756,13.583258 7.3623413,12.64574 Z" /><path
         id="path124"
         style="color:#000000;fill:#c41d3c;fill-opacity:1;stroke-linecap:round;stroke-linejoin:round;-inkscape-stroke:none"
         d="M 7.3447713,12.515515 C 4.4197705,12.921971 2.3131555,15.207557 0,16.886308 v 0.04703 H 0.36586914 C 2.615439,15.261233 4.6495853,13.169227 7.358724,12.782682 c 3.464575,0.912147 6.610351,2.163217 9.072831,4.150651 h 0.501778 v -0.0088 C 14.378488,14.74637 11.026204,13.471221 7.3954142,12.517582 a 0.13230489,0.13230489 0 0 0 -0.050643,-0.0021 z" /></g><g
       id="g19"
       inkscape:label="thorns"><path
         id="path2"
         style="fill:#5d091c;fill-opacity:1;stroke-width:0.661458;stroke-linecap:round;stroke-linejoin:round"
         d="M 9.3224284 12.450403 L 9.785966 16.933333 L 10.921297 16.933333 L 10.961088 16.925582 L 9.3224284 12.450403 z " /><path
         id="path4"
         style="fill:#5d091c;fill-opacity:1;stroke-width:0.661458;stroke-linecap:round;stroke-linejoin:round"
         d="M 0 6.7034668 L 0 7.8656698 L 7.007841 7.3540731 L 0 6.7034668 z " /><path
         id="path5"
         style="fill:#5d091c;fill-opacity:1;stroke-width:0.661458;stroke-linecap:round;stroke-linejoin:round"
         d="M 16.294613 0 L 12.121741 5.1671265 L 16.933333 0.83767497 L 16.933333 0 L 16.294613 0 z " /><path
         id="path6"
         style="fill:#5d091c;fill-opacity:1;stroke-width:0.661458;stroke-linecap:round;stroke-linejoin:round"
         d="M 3.8777995 13.373861 L 0.38033854 16.933333 L 1.6717326 16.933333 L 3.8777995 13.373861 z " /><path
         id="path7"
         style="fill:#5d091c;fill-opacity:1;stroke-width:0.661458;stroke-linecap:round;stroke-linejoin:round"
         d="M 1.352889 0 L 6.4600708 4.9004761 L 2.7300659 0 L 1.352889 0 z " /><path
         id="path8"
         style="fill:#5d091c;fill-opacity:1;stroke-width:0.661458;stroke-linecap:round;stroke-linejoin:round"
         d="M 7.6119385 11.755355 L 4.8131429 16.933333 L 5.999117 16.933333 L 7.6119385 11.755355 z " /><path
         id="path9"
         style="fill:#5d091c;fill-opacity:1;stroke-width:0.661458;stroke-linecap:round;stroke-linejoin:round"
         d="M 11.968778 10.287227 L 16.933333 12.238013 L 16.933333 11.157975 L 11.968778 10.287227 z " /><path
         id="path10"
         style="fill:#5d091c;fill-opacity:1;stroke-width:0.661458;stroke-linecap:round;stroke-linejoin:round"
         d="M 8.3214559 13.976408 L 7.9106283 16.933333 L 8.7736247 16.933333 L 8.3214559 13.976408 z " /><path
         id="path11"
         style="fill:#5d091c;fill-opacity:1;stroke-width:0.661458;stroke-linecap:round;stroke-linejoin:round"
         d="M 13.681852 0 L 12.135693 3.5641235 L 14.684892 0 L 13.681852 0 z " /><path
         id="path12"
         style="fill:#5d091c;fill-opacity:1;stroke-width:0.661458;stroke-linecap:round;stroke-linejoin:round"
         d="M 16.933333 4.5904175 L 12.282971 6.3897909 L 16.933333 5.5030233 L 16.933333 4.5904175 z " /><path
         id="path13"
         style="fill:#5d091c;fill-opacity:1;stroke-width:0.661458;stroke-linecap:round;stroke-linejoin:round"
         d="M 5.3159546 8.7446859 L 0 9.777181 L 0 10.965222 L 5.3159546 8.7446859 z " /><path
         id="path14"
         style="fill:#5d091c;fill-opacity:1;stroke-width:0.661458;stroke-linecap:round;stroke-linejoin:round"
         d="M 12.142928 13.451892 L 15.031641 16.933333 L 16.268774 16.933333 L 12.142928 13.451892 z " /><path
         id="path15"
         style="fill:#5d091c;fill-opacity:1;stroke-width:0.661458;stroke-linecap:round;stroke-linejoin:round"
         d="M 3.6524902 11.440129 L 0 12.679846 L 0 13.694255 L 3.6524902 11.440129 z " /><path
         id="path16"
         style="fill:#5d091c;fill-opacity:1;stroke-width:0.661458;stroke-linecap:round;stroke-linejoin:round"
         d="M 0 2.3605794 L 0 3.365686 L 4.1434163 4.6436442 L 0 2.3605794 z " /><path
         id="path17"
         style="fill:#5d091c;fill-opacity:1;stroke-width:0.661458;stroke-linecap:round;stroke-linejoin:round"
         d="M 0 0 L 0 1.0578166 L 3.0251383 3.0070516 L 0.11368815 0 L 0 0 z " /><path
         id="path18"
         style="fill:#5d091c;fill-opacity:1;stroke-width:0.661458;stroke-linecap:round;stroke-linejoin:round"
         d="M 7.1132609 0 L 8.1054484 5.4043213 L 7.97264 0 L 7.1132609 0 z " /><path
         id="path19"
         style="fill:#5d091c;fill-opacity:1;stroke-width:0.661458;stroke-linecap:round;stroke-linejoin:round"
         d="M 9.7751139 0 L 10.008175 5.2989014 L 10.959538 0 L 9.7751139 0 z " /><path
         id="path20"
         style="fill:#5d091c;fill-opacity:1;stroke-width:0.661458;stroke-linecap:round;stroke-linejoin:round"
         d="M 16.933333 7.1949097 L 14.1087 7.9214803 L 16.933333 8.0289673 L 16.933333 7.1949097 z " /></g></g></svg>
