<?xml version="1.0" encoding="UTF-8" standalone="no"?>
<!-- Created with Inkscape (http://www.inkscape.org/) -->

<svg
   width="64"
   height="64"
   viewBox="0 0 16.933333 16.933333"
   version="1.1"
   id="svg1"
   xml:space="preserve"
   inkscape:version="1.3.2 (091e20e, 2023-11-25, custom)"
   sodipodi:docname="desperate_measure_death-pact.svg"
   xmlns:inkscape="http://www.inkscape.org/namespaces/inkscape"
   xmlns:sodipodi="http://sodipodi.sourceforge.net/DTD/sodipodi-0.dtd"
   xmlns:xlink="http://www.w3.org/1999/xlink"
   xmlns="http://www.w3.org/2000/svg"
   xmlns:svg="http://www.w3.org/2000/svg"><sodipodi:namedview
     id="namedview1"
     pagecolor="#505050"
     bordercolor="#eeeeee"
     borderopacity="1"
     inkscape:showpageshadow="0"
     inkscape:pageopacity="0"
     inkscape:pagecheckerboard="0"
     inkscape:deskcolor="#505050"
     inkscape:document-units="mm"
     inkscape:zoom="16"
     inkscape:cx="21.3125"
     inkscape:cy="48.65625"
     inkscape:window-width="2560"
     inkscape:window-height="1369"
     inkscape:window-x="-8"
     inkscape:window-y="-8"
     inkscape:window-maximized="1"
     inkscape:current-layer="layer1"
     showgrid="false"><inkscape:grid
       id="grid157"
       units="mm"
       originx="0"
       originy="0"
       spacingx="0.99999998"
       spacingy="0.99999998"
       empcolor="#0099e5"
       empopacity="0.30196078"
       color="#0099e5"
       opacity="0.14901961"
       empspacing="5"
       dotted="false"
       gridanglex="30"
       gridanglez="30"
       visible="false" /></sodipodi:namedview><defs
     id="defs1"><linearGradient
       id="linearGradient29"
       inkscape:collect="always"><stop
         style="stop-color:#80092c;stop-opacity:1;"
         offset="0"
         id="stop29" /><stop
         style="stop-color:#410613;stop-opacity:1;"
         offset="1"
         id="stop30" /></linearGradient><radialGradient
       inkscape:collect="always"
       xlink:href="#linearGradient29"
       id="radialGradient30"
       cx="-4.2943563"
       cy="43.659042"
       fx="-4.2943563"
       fy="43.659042"
       r="8.4666662"
       gradientUnits="userSpaceOnUse"
       gradientTransform="matrix(1,0,0,1.9999998,12.761023,-70.384744)" /><clipPath
       clipPathUnits="userSpaceOnUse"
       id="clipPath1"><rect
         style="fill:#100901;fill-opacity:1;stroke:none;stroke-width:0.79375;stroke-linejoin:round"
         id="rect1"
         width="7.0084929"
         height="7.0084929"
         x="2.1103256"
         y="6.5299926"
         inkscape:label="clip"
         transform="rotate(90)" /></clipPath><clipPath
       clipPathUnits="userSpaceOnUse"
       id="clipPath1-3"><rect
         style="fill:#100901;fill-opacity:1;stroke:none;stroke-width:0.79375;stroke-linejoin:round"
         id="rect1-5"
         width="7.0084929"
         height="7.0084929"
         x="2.1103256"
         y="6.5299926"
         inkscape:label="clip"
         transform="rotate(90)" /></clipPath></defs><g
     inkscape:label="Layer 1"
     inkscape:groupmode="layer"
     id="layer1"><rect
       style="fill:url(#radialGradient30);stroke:none;stroke-width:0.79375;stroke-linejoin:round"
       id="rect29"
       width="16.933332"
       height="16.933332"
       x="0"
       y="8.9009603e-07"
       inkscape:label="bg" /><g
       id="g19"
       inkscape:label="thorns"><path
         id="path2"
         style="fill:#5d091c;fill-opacity:1;stroke-width:0.661458;stroke-linecap:round;stroke-linejoin:round"
         d="M 9.3224284 12.450403 L 9.785966 16.933333 L 10.921297 16.933333 L 10.961088 16.925582 L 9.3224284 12.450403 z " /><path
         id="path4"
         style="fill:#5d091c;fill-opacity:1;stroke-width:0.661458;stroke-linecap:round;stroke-linejoin:round"
         d="M 0 6.7034668 L 0 7.8656698 L 7.007841 7.3540731 L 0 6.7034668 z " /><path
         id="path5"
         style="fill:#5d091c;fill-opacity:1;stroke-width:0.661458;stroke-linecap:round;stroke-linejoin:round"
         d="M 16.294613 0 L 12.121741 5.1671265 L 16.933333 0.83767497 L 16.933333 0 L 16.294613 0 z " /><path
         id="path6"
         style="fill:#5d091c;fill-opacity:1;stroke-width:0.661458;stroke-linecap:round;stroke-linejoin:round"
         d="M 3.8777995 13.373861 L 0.38033854 16.933333 L 1.6717326 16.933333 L 3.8777995 13.373861 z " /><path
         id="path7"
         style="fill:#5d091c;fill-opacity:1;stroke-width:0.661458;stroke-linecap:round;stroke-linejoin:round"
         d="M 1.352889 0 L 6.4600708 4.9004761 L 2.7300659 0 L 1.352889 0 z " /><path
         id="path8"
         style="fill:#5d091c;fill-opacity:1;stroke-width:0.661458;stroke-linecap:round;stroke-linejoin:round"
         d="M 7.6119385 11.755355 L 4.8131429 16.933333 L 5.999117 16.933333 L 7.6119385 11.755355 z " /><path
         id="path9"
         style="fill:#5d091c;fill-opacity:1;stroke-width:0.661458;stroke-linecap:round;stroke-linejoin:round"
         d="M 11.968778 10.287227 L 16.933333 12.238013 L 16.933333 11.157975 L 11.968778 10.287227 z " /><path
         id="path10"
         style="fill:#5d091c;fill-opacity:1;stroke-width:0.661458;stroke-linecap:round;stroke-linejoin:round"
         d="M 8.3214559 13.976408 L 7.9106283 16.933333 L 8.7736247 16.933333 L 8.3214559 13.976408 z " /><path
         id="path11"
         style="fill:#5d091c;fill-opacity:1;stroke-width:0.661458;stroke-linecap:round;stroke-linejoin:round"
         d="M 13.681852 0 L 12.135693 3.5641235 L 14.684892 0 L 13.681852 0 z " /><path
         id="path12"
         style="fill:#5d091c;fill-opacity:1;stroke-width:0.661458;stroke-linecap:round;stroke-linejoin:round"
         d="M 16.933333 4.5904175 L 12.282971 6.3897909 L 16.933333 5.5030233 L 16.933333 4.5904175 z " /><path
         id="path13"
         style="fill:#5d091c;fill-opacity:1;stroke-width:0.661458;stroke-linecap:round;stroke-linejoin:round"
         d="M 5.3159546 8.7446859 L 0 9.777181 L 0 10.965222 L 5.3159546 8.7446859 z " /><path
         id="path14"
         style="fill:#5d091c;fill-opacity:1;stroke-width:0.661458;stroke-linecap:round;stroke-linejoin:round"
         d="M 12.142928 13.451892 L 15.031641 16.933333 L 16.268774 16.933333 L 12.142928 13.451892 z " /><path
         id="path15"
         style="fill:#5d091c;fill-opacity:1;stroke-width:0.661458;stroke-linecap:round;stroke-linejoin:round"
         d="M 3.6524902 11.440129 L 0 12.679846 L 0 13.694255 L 3.6524902 11.440129 z " /><path
         id="path16"
         style="fill:#5d091c;fill-opacity:1;stroke-width:0.661458;stroke-linecap:round;stroke-linejoin:round"
         d="M 0 2.3605794 L 0 3.365686 L 4.1434163 4.6436442 L 0 2.3605794 z " /><path
         id="path17"
         style="fill:#5d091c;fill-opacity:1;stroke-width:0.661458;stroke-linecap:round;stroke-linejoin:round"
         d="M 0 0 L 0 1.0578166 L 3.0251383 3.0070516 L 0.11368815 0 L 0 0 z " /><path
         id="path18"
         style="fill:#5d091c;fill-opacity:1;stroke-width:0.661458;stroke-linecap:round;stroke-linejoin:round"
         d="M 7.1132609 0 L 8.1054484 5.4043213 L 7.97264 0 L 7.1132609 0 z " /><path
         id="path19"
         style="fill:#5d091c;fill-opacity:1;stroke-width:0.661458;stroke-linecap:round;stroke-linejoin:round"
         d="M 9.7751139 0 L 10.008175 5.2989014 L 10.959538 0 L 9.7751139 0 z " /><path
         id="path20"
         style="fill:#5d091c;fill-opacity:1;stroke-width:0.661458;stroke-linecap:round;stroke-linejoin:round"
         d="M 16.933333 7.1949097 L 14.1087 7.9214803 L 16.933333 8.0289673 L 16.933333 7.1949097 z " /></g><path
       style="display:inline;fill:#611626;fill-opacity:1;stroke:#c41d3c;stroke-width:0.349999;stroke-linecap:round;stroke-linejoin:round;stroke-dasharray:none;stroke-opacity:1"
       d="m 13.087257,3.8480628 h -2.005513 l 0.396875,-1.9757123 1.604037,0.049609 z"
       id="path23" /><path
       style="fill:#611626;fill-opacity:1;stroke:#c41d3c;stroke-width:0.35;stroke-linecap:round;stroke-linejoin:round;stroke-dasharray:none;stroke-opacity:1"
       d="M 11.949908,0.66105502 C 15.138742,0.12283722 15.301185,3.6471007 13.29763,3.836055 12.072615,3.9878234 12.280986,2.6665707 13.132269,2.2320186 h -1.825173 c 0.01456,-0.6328697 -0.303161,-1.44745878 0.642812,-1.57096358 z"
       id="path22"
       sodipodi:nodetypes="ccccc" /><path
       id="path21"
       style="display:inline;fill:#611626;fill-opacity:1;stroke:#c41d3c;stroke-width:0.35;stroke-linecap:round;stroke-linejoin:round;stroke-dasharray:none;stroke-opacity:1"
       d="M 3.9035024,0.66105502 C 3.0248604,1.0722529 2.5444034,1.8816465 2.5475134,3.1745967 c 0.014,0.1036144 0.03035,0.202827 0.04651,0.3023071 l 1.410128,0.5130752 -0.657719,0.3509548 0.354895,0.6049275 -0.564701,0.5366048 c 1.024897,2.5886746 2.753885,3.389421 2.322856,6.0001509 l 0.948262,0.640787 -1.172538,0.290422 c -0.123928,0.402136 -0.288419,0.840534 -0.504879,1.327567 h 8.4010386 c 0.680107,-0.989878 0.806398,-1.393917 0.925525,-2.745052 C 13.954287,9.8018333 13.678794,8.8010091 13.341689,7.9221105 L 12.35105,7.4161982 12.666793,7.0322424 11.477201,6.7438879 12.587728,6.2483109 C 11.602509,4.2823402 10.711783,2.8443113 11.973295,0.66105502 Z"
       sodipodi:nodetypes="cccccccccccccccccccc" /><g
       id="g17"
       transform="matrix(2.4161161,0,0.74225035,2.4161161,27.959167,-7.474347)"
       style="stroke:none;stroke-width:0.59375;stroke-opacity:1"
       clip-path="url(#clipPath1)"
       inkscape:label="skull"><path
         id="path2-8"
         style="display:inline;fill:#9f0e21;fill-opacity:1;stroke:#3d0e18;stroke-width:0.103472;stroke-linecap:round;stroke-linejoin:round;stroke-dasharray:none;stroke-dashoffset:0.6;stroke-opacity:1"
         d="m -10.034243,4.0622341 c -0.472755,0.025635 -1.281324,0.4348056 -1.039242,1.3554421 l -0.09123,0.1917356 0.04723,0.2533536 -0.09446,0.2704004 0.371235,0.3012093 0.212618,-0.044415 0.07754,0.6571554 0.185694,0.088987 0.330619,0.030809 0.330619,-0.030809 0.1856944,-0.088987 0.077539,-0.6571554 0.2126176,0.044415 0.3712346,-0.3012093 -0.094462,-0.2704004 0.047231,-0.2533536 -0.091232,-0.1917356 C -8.7529193,4.4970397 -9.5614881,4.087869 -10.034243,4.0622341 Z" /><path
         style="display:inline;fill:#000000;fill-opacity:1;stroke:none;stroke-width:0.0821306;stroke-linecap:round;stroke-linejoin:round;stroke-dashoffset:0.6;stroke-opacity:1"
         d="m -9.7811376,5.382658 0.6444726,0.1275124 0.084359,0.1814205 -0.064113,0.2498808 -0.2631994,0.1266526 -0.2324548,-0.10282 -0.1629235,-0.2081599 z"
         id="path3-4"
         sodipodi:nodetypes="cccccccc" /><path
         id="path4-7"
         style="fill:#000000;fill-opacity:1;stroke:none;stroke-width:0.0821306;stroke-linecap:round;stroke-linejoin:round;stroke-dashoffset:0.6;stroke-opacity:1"
         d="m -10.034243,5.8080286 -0.290157,0.5647282 0.128155,0.1266768 0.162002,-0.1266768 0.162002,0.1266768 0.128155,-0.1266768 z" /><path
         style="fill:#000000;fill-opacity:1;stroke:none;stroke-width:0.0821306;stroke-linecap:round;stroke-linejoin:round;stroke-dashoffset:0.6;stroke-opacity:1"
         d="m -10.287349,5.382658 -0.644472,0.1275124 -0.08436,0.1814205 0.06411,0.2498808 0.2632,0.1266526 0.232454,-0.10282 0.162924,-0.2081599 z"
         id="path16-3"
         sodipodi:nodetypes="cccccccc" /></g><path
       id="path29"
       style="fill:#611626;fill-opacity:1;stroke:#c41d3c;stroke-width:0.42638;stroke-linecap:round;stroke-linejoin:round;stroke-dasharray:none;stroke-opacity:1"
       d="m 10.505274,11.844221 v 2.273843 l 0.06243,0.874321 0.205545,0.282957 -0.05994,0.162849 -0.207986,-0.06514 v 0.32876 c 0.636716,0.406879 1.55715,-0.09575 2.096972,0.322655 0.26445,0.02214 0.43151,-0.235186 0.713265,-0.201533 v -1.114531 l -0.07095,-0.114014 0.07095,-0.36642 v -0.308397 l -0.255747,-0.616808 0.255699,-0.160821 v -1.297737 z"
       sodipodi:nodetypes="ccccccccccccccccc" /><path
       id="rect28"
       style="fill:#611626;fill-opacity:1;stroke:#c41d3c;stroke-width:0.42638;stroke-linecap:round;stroke-linejoin:round;stroke-dasharray:none;stroke-opacity:1"
       d="m 5.7752182,12.475724 v 1.23158 l 0.021806,0.02343 0.3763671,0.633093 -0.1804978,0.0407 -0.037132,0.288047 0.051214,0.08039 -0.2317243,0.189321 v 1.371023 c 0.6662362,0.406879 1.6293439,-0.09575 2.1941905,0.322653 0.2767111,0.02214 0.4515172,-0.235186 0.7463312,-0.20153 v -0.4621 L 8.2741196,15.782658 8.715774,15.214706 v -2.738994 z" /><g
       id="g33"
       inkscape:label="wax-seal"
       transform="matrix(1.9696309,0,0,1.9696309,-32.691819,-9.1471615)"><path
         style="fill:#9f0e21;fill-opacity:1;stroke:none;stroke-width:0.349999;stroke-linecap:round;stroke-linejoin:round;stroke-dasharray:none;stroke-opacity:1"
         d="m 20.757389,9.9714838 c -0.03946,-0.025114 -0.04377,-0.1112797 -0.08682,-0.1198893 -0.124389,-0.024879 -0.243565,0.031902 -0.361735,0.00827 -0.03931,-0.00786 -0.06868,-0.045311 -0.09922,-0.068213 -0.0621,-0.046578 -0.241366,-0.055618 -0.307991,-0.018603 -0.145172,0.080651 -0.137115,0.2834165 -0.225309,0.4010095 -0.07316,0.09755 -0.25856,0.185921 -0.270785,0.320394 -0.0085,0.09366 0.07443,0.17136 0.06821,0.264583 -0.0067,0.100726 -0.08948,0.171833 -0.05374,0.279053 0.03601,0.10802 0.214553,0.137228 0.250114,0.243912 0.02268,0.06805 -0.02744,0.205888 0.03307,0.256316 0.152692,0.127242 0.35022,-0.009 0.520899,0 0.156131,0.0082 0.28882,0.09636 0.452685,0.05995 0.335402,-0.07454 0.189207,-0.211624 0.307992,-0.370005 0.09796,-0.130616 0.345605,-0.296175 0.310058,-0.485758 -0.0249,-0.132818 -0.188484,-0.208996 -0.21084,-0.343131 -0.02017,-0.121039 0.0088,-0.286509 -0.120919,-0.342099 -0.06164,-0.02586 -0.142185,-0.04539 -0.205669,-0.085784 z"
         id="path27"
         sodipodi:nodetypes="ssscssccssccsssscs" /><path
         style="color:#000000;fill:#3d0e18;stroke-linecap:round;stroke-linejoin:round;-inkscape-stroke:none"
         d="m 20.301693,9.981901 c -0.409673,0 -0.742188,0.332514 -0.742188,0.742188 0,0.409673 0.332515,0.74414 0.742188,0.74414 0.409673,0 0.744141,-0.334467 0.744141,-0.74414 0,-0.409674 -0.334468,-0.742188 -0.744141,-0.742188 z m 0,0.150391 c 0.328607,0 0.59375,0.263189 0.59375,0.591797 0,0.328607 -0.265143,0.59375 -0.59375,0.59375 -0.328607,0 -0.59375,-0.265143 -0.59375,-0.59375 0,-0.328608 0.265143,-0.591797 0.59375,-0.591797 z"
         id="path31" /><path
         id="path32"
         style="color:#000000;display:none;fill:#ffffff;stroke-linecap:round;stroke-linejoin:round;-inkscape-stroke:none"
         d="m 20.014799,10.205579 c 0.085,-0.04662 0.182612,-0.07338 0.286804,-0.07338 0.328607,0 0.593763,0.263088 0.593763,0.591695 0,0.02302 -0.02124,0.147168 -0.02374,0.169499 0.03864,-0.138717 0.05636,-0.193638 0.03034,-0.337839 -0.04752,-0.263381 -0.315681,-0.473614 -0.600134,-0.445234 -0.03046,-0.0031 -0.243213,0.04484 -0.287033,0.09526 z"
         sodipodi:nodetypes="csscscc" /><path
         id="path33"
         style="color:#000000;display:none;fill:#ffffff;stroke-width:1.15415;stroke-linecap:round;stroke-linejoin:round;-inkscape-stroke:none"
         d="m 20.718491,11.339611 c -0.107237,0.04922 -0.234521,0.108484 -0.365971,0.108484 -0.414577,0 -0.733599,-0.300516 -0.773907,-0.643336 -0.0028,-0.02414 -6.59e-4,-0.239554 0.0025,-0.263132 -0.04875,0.146462 -0.02194,0.286551 0.01088,0.438804 0.05995,0.278087 0.408064,0.531983 0.769543,0.504201 0.07809,0.0067 0.264382,-0.0497 0.356955,-0.145021 z"
         sodipodi:nodetypes="csscscc" /></g><g
       id="g41"
       inkscape:label="wax-seal"
       transform="matrix(1.9696309,0,0,1.9696309,-28.082062,-9.9252356)"><path
         style="fill:#9f0e21;fill-opacity:1;stroke:none;stroke-width:0.349999;stroke-linecap:round;stroke-linejoin:round;stroke-dasharray:none;stroke-opacity:1"
         d="m 20.757389,9.9714838 c -0.03946,-0.025114 -0.04377,-0.1112797 -0.08682,-0.1198893 -0.124389,-0.024879 -0.243565,0.031902 -0.361735,0.00827 -0.03931,-0.00786 -0.06868,-0.045311 -0.09922,-0.068213 -0.0621,-0.046578 -0.241366,-0.055618 -0.307991,-0.018603 -0.145172,0.080651 -0.137115,0.2834165 -0.225309,0.4010095 -0.07316,0.09755 -0.25856,0.185921 -0.270785,0.320394 -0.0085,0.09366 0.07443,0.17136 0.06821,0.264583 -0.0067,0.100726 -0.08948,0.171833 -0.05374,0.279053 0.03601,0.10802 0.214553,0.137228 0.250114,0.243912 0.02268,0.06805 -0.02744,0.205888 0.03307,0.256316 0.152692,0.127242 0.35022,-0.009 0.520899,0 0.156131,0.0082 0.28882,0.09636 0.452685,0.05995 0.335402,-0.07454 0.189207,-0.211624 0.307992,-0.370005 0.09796,-0.130616 0.345605,-0.296175 0.310058,-0.485758 -0.0249,-0.132818 -0.188484,-0.208996 -0.21084,-0.343131 -0.02017,-0.121039 0.0088,-0.286509 -0.120919,-0.342099 -0.06164,-0.02586 -0.142185,-0.04539 -0.205669,-0.085784 z"
         id="path34"
         sodipodi:nodetypes="ssscssccssccsssscs" /><path
         style="color:#000000;fill:#3d0e18;stroke-linecap:round;stroke-linejoin:round;-inkscape-stroke:none"
         d="m 20.301693,9.981901 c -0.409673,0 -0.742188,0.332514 -0.742188,0.742188 0,0.409673 0.332515,0.74414 0.742188,0.74414 0.409673,0 0.744141,-0.334467 0.744141,-0.74414 0,-0.409674 -0.334468,-0.742188 -0.744141,-0.742188 z m 0,0.150391 c 0.328607,0 0.59375,0.263189 0.59375,0.591797 0,0.328607 -0.265143,0.59375 -0.59375,0.59375 -0.328607,0 -0.59375,-0.265143 -0.59375,-0.59375 0,-0.328608 0.265143,-0.591797 0.59375,-0.591797 z"
         id="path35" /><path
         id="path40"
         style="color:#000000;display:none;fill:#ffffff;stroke-linecap:round;stroke-linejoin:round;-inkscape-stroke:none"
         d="m 20.014799,10.205579 c 0.085,-0.04662 0.182612,-0.07338 0.286804,-0.07338 0.328607,0 0.593763,0.263088 0.593763,0.591695 0,0.02302 -0.02124,0.147168 -0.02374,0.169499 0.03864,-0.138717 0.05636,-0.193638 0.03034,-0.337839 -0.04752,-0.263381 -0.315681,-0.473614 -0.600134,-0.445234 -0.03046,-0.0031 -0.243213,0.04484 -0.287033,0.09526 z"
         sodipodi:nodetypes="csscscc" /><path
         id="path41"
         style="color:#000000;display:none;fill:#ffffff;stroke-width:1.15415;stroke-linecap:round;stroke-linejoin:round;-inkscape-stroke:none"
         d="m 20.718491,11.339611 c -0.107237,0.04922 -0.234521,0.108484 -0.365971,0.108484 -0.414577,0 -0.733599,-0.300516 -0.773907,-0.643336 -0.0028,-0.02414 -6.59e-4,-0.239554 0.0025,-0.263132 -0.04875,0.146462 -0.02194,0.286551 0.01088,0.438804 0.05995,0.278087 0.408064,0.531983 0.769543,0.504201 0.07809,0.0067 0.264382,-0.0497 0.356955,-0.145021 z"
         sodipodi:nodetypes="csscscc" /></g></g></svg>
