<?xml version="1.0" encoding="UTF-8" standalone="no"?>
<!-- Created with Inkscape (http://www.inkscape.org/) -->

<svg
   width="64"
   height="64"
   viewBox="0 0 16.933333 16.933333"
   version="1.1"
   id="svg1"
   xml:space="preserve"
   inkscape:version="1.3.2 (091e20e, 2023-11-25, custom)"
   sodipodi:docname="desperate_measures.svg"
   xmlns:inkscape="http://www.inkscape.org/namespaces/inkscape"
   xmlns:sodipodi="http://sodipodi.sourceforge.net/DTD/sodipodi-0.dtd"
   xmlns="http://www.w3.org/2000/svg"
   xmlns:svg="http://www.w3.org/2000/svg"><sodipodi:namedview
     id="namedview1"
     pagecolor="#505050"
     bordercolor="#eeeeee"
     borderopacity="1"
     inkscape:showpageshadow="0"
     inkscape:pageopacity="0"
     inkscape:pagecheckerboard="0"
     inkscape:deskcolor="#505050"
     inkscape:document-units="mm"
     inkscape:zoom="5.6568545"
     inkscape:cx="-15.026018"
     inkscape:cy="45.696774"
     inkscape:window-width="2560"
     inkscape:window-height="1369"
     inkscape:window-x="-8"
     inkscape:window-y="-8"
     inkscape:window-maximized="1"
     inkscape:current-layer="layer1"
     showgrid="false"><inkscape:grid
       id="grid157"
       units="mm"
       originx="0"
       originy="0"
       spacingx="0.99999998"
       spacingy="0.99999998"
       empcolor="#0099e5"
       empopacity="0.30196078"
       color="#0099e5"
       opacity="0.14901961"
       empspacing="5"
       dotted="false"
       gridanglex="30"
       gridanglez="30"
       visible="false" /></sodipodi:namedview><defs
     id="defs1" /><g
     inkscape:label="Layer 1"
     inkscape:groupmode="layer"
     id="layer1"><g
       id="g1"
       transform="matrix(1.0434295,0,0,1.0434295,-4.6546481,-2.2168604)"
       inkscape:label="desperate-measures-symbol"><g
         id="g105"
         inkscape:label="crest"
         style="display:inline"
         transform="translate(-50.167979,-43.404692)"><path
           style="color:#000000;display:inline;fill:#611626;fill-opacity:1;stroke-width:0.896263;stroke-linecap:round;stroke-linejoin:round;-inkscape-stroke:none"
           d="m 62.740731,49.710728 c -2.994723,0 -5.431847,2.437123 -5.431847,5.431847 0,2.994723 2.437124,5.433597 5.431847,5.433597 2.994723,0 5.433598,-2.438874 5.433598,-5.433597 0,-2.994724 -2.438875,-5.431847 -5.433598,-5.431847 z m 0,0.891012 c 2.513253,0 4.542585,2.027581 4.542585,4.540835 0,2.513253 -2.029332,4.542585 -4.542585,4.542585 -2.513253,0 -4.540835,-2.029332 -4.540835,-4.542585 0,-2.513254 2.027582,-4.540835 4.540835,-4.540835 z"
           id="path91" /><path
           id="path92"
           style="display:inline;fill:#611626;fill-opacity:1;stroke:none;stroke-width:0.711409;stroke-linecap:round;stroke-linejoin:round"
           d="m 54.918369,50.521148 2.615439,3.289865 1.316081,-1.020001 0.225306,-1.64976 z"
           sodipodi:nodetypes="ccccc" /><path
           id="path93"
           style="display:inline;fill:#3d0e18;fill-opacity:1;stroke:none;stroke-width:0.711409;stroke-linecap:round;stroke-linejoin:round"
           d="m 55.381245,50.78839 2.35303,2.823728 1.115733,-0.821037 z" /><path
           id="path94"
           style="display:inline;fill:#611626;fill-opacity:1;stroke:none;stroke-width:0.711409;stroke-linecap:round;stroke-linejoin:round"
           d="m 70.567972,50.521148 -2.615439,3.289865 -1.316081,-1.02 -0.225306,-1.64976 z"
           sodipodi:nodetypes="ccccc" /><path
           id="path95"
           style="display:inline;fill:#3d0e18;fill-opacity:1;stroke:none;stroke-width:0.711409;stroke-linecap:round;stroke-linejoin:round"
           d="m 70.105096,50.78839 -2.35303,2.823728 -1.115733,-0.821037 z" /><path
           id="path96"
           style="display:inline;fill:#611626;fill-opacity:1;stroke:none;stroke-width:0.711409;stroke-linecap:round;stroke-linejoin:round"
           d="m 62.741474,46.050525 -1.541387,3.909969 1.541387,0.62976 1.541387,-0.62976 z"
           sodipodi:nodetypes="ccccc" /><path
           id="path97"
           style="display:inline;fill:#3d0e18;fill-opacity:1;stroke:none;stroke-width:0.711409;stroke-linecap:round;stroke-linejoin:round"
           d="m 62.741474,46.585008 -1.268906,3.449648 1.268906,0.555735 z" /><path
           id="path98"
           style="display:inline;fill:#611626;fill-opacity:1;stroke:none;stroke-width:0.71141;stroke-linecap:round;stroke-linejoin:round"
           d="m 58.884577,48.45519 0.381223,2.555502 1.014227,-0.138512 0.627068,-0.80909 z"
           sodipodi:nodetypes="ccccc" /><path
           id="path99"
           style="display:inline;fill:#3d0e18;fill-opacity:1;stroke:none;stroke-width:0.71141;stroke-linecap:round;stroke-linejoin:round"
           d="m 59.04887,48.739753 0.384798,2.226666 0.846401,-0.09417 z" /><path
           id="path100"
           style="display:inline;fill:#611626;fill-opacity:1;stroke:none;stroke-width:0.71141;stroke-linecap:round;stroke-linejoin:round"
           d="M 66.598368,48.45519 66.217145,51.010692 65.202918,50.87218 64.57585,50.06309 Z"
           sodipodi:nodetypes="ccccc" /><path
           id="path101"
           style="display:inline;fill:#3d0e18;fill-opacity:1;stroke:none;stroke-width:0.71141;stroke-linecap:round;stroke-linejoin:round"
           d="m 66.434075,48.739753 -0.384798,2.226666 -0.846401,-0.09417 z" /></g><g
         id="g106"
         inkscape:label="skull"
         transform="translate(-50.167979,-43.404692)"><path
           id="path102"
           style="fill:#9f0e21;fill-opacity:1;stroke-width:0.661458;stroke-linecap:round;stroke-linejoin:round"
           d="m 62.742922,51.423218 -2.340942,0.278536 -1.338937,1.250053 v 1.150317 h -4.397147 l 0.771529,1.527555 h 2.549198 l 0.0036,0.166398 -2.207618,0.371554 1.128097,1.327051 1.344621,-0.204639 0.07648,0.239779 -0.976685,0.362252 1.537891,0.976684 0.806669,-0.22841 h 0.473356 l 0.286804,0.339514 -0.198954,0.379822 -0.09353,1.461927 0.677994,0.239261 0.05891,-0.508496 0.6196,0.08785 v 0.531751 l 0.794783,0.0646 0.07028,-0.526066 h 0.707968 l 0.07028,0.526066 0.7953,-0.0646 v -0.531751 l 0.6196,-0.08785 0.05839,0.508496 0.678511,-0.239261 -0.09353,-1.461927 -0.198954,-0.379822 0.286287,-0.339514 h 0.473873 l 0.806669,0.22841 1.537891,-0.976684 -0.976685,-0.362252 0.07596,-0.239779 1.344621,0.204639 1.128613,-1.327051 -2.207617,-0.371554 0.0036,-0.166398 h 2.548681 l 0.772046,-1.527555 h -4.396631 v -1.126546 l -1.33997,-1.250053 z"
           inkscape:label="skull" /><path
           style="fill:#000000;stroke-width:0.661458;stroke-linecap:round;stroke-linejoin:round"
           d="m 63.482259,56.735449 c 0.515921,0.558694 1.282328,0.766704 2.124035,0.869297 0.873958,-0.393302 0.974894,-1.66804 0.237828,-1.771398 -0.684211,0.06018 -1.559646,0.566561 -2.361863,0.902101 z"
           id="path103"
           sodipodi:nodetypes="cccc" /><path
           style="fill:#000000;stroke-width:0.661458;stroke-linecap:round;stroke-linejoin:round"
           d="m 62.003951,56.735449 c -0.515921,0.558694 -1.282328,0.766704 -2.124035,0.869297 -0.873958,-0.393302 -0.974894,-1.66804 -0.237828,-1.771398 0.684211,0.06018 1.559646,0.566561 2.361863,0.902101 z"
           id="path104"
           sodipodi:nodetypes="cccc" /><path
           id="path105"
           style="fill:#000000;stroke:none;stroke-width:0.198437;stroke-linecap:round;stroke-linejoin:round;stroke-dashoffset:0.6"
           d="m 62.743105,56.809098 -0.974617,1.866035 0.430464,0.418579 0.544153,-0.418579 0.544153,0.418579 0.430465,-0.418579 z" /></g></g></g></svg>
