<?xml version="1.0" encoding="UTF-8" standalone="no"?>
<!-- Created with Inkscape (http://www.inkscape.org/) -->

<svg
   width="64"
   height="64"
   viewBox="0 0 16.933333 16.933333"
   version="1.1"
   id="svg1"
   xml:space="preserve"
   inkscape:version="1.3.2 (091e20e, 2023-11-25, custom)"
   sodipodi:docname="desperate_measure_death-pact.svg"
   xmlns:inkscape="http://www.inkscape.org/namespaces/inkscape"
   xmlns:sodipodi="http://sodipodi.sourceforge.net/DTD/sodipodi-0.dtd"
   xmlns:xlink="http://www.w3.org/1999/xlink"
   xmlns="http://www.w3.org/2000/svg"
   xmlns:svg="http://www.w3.org/2000/svg"><sodipodi:namedview
     id="namedview1"
     pagecolor="#505050"
     bordercolor="#eeeeee"
     borderopacity="1"
     inkscape:showpageshadow="0"
     inkscape:pageopacity="0"
     inkscape:pagecheckerboard="0"
     inkscape:deskcolor="#505050"
     inkscape:document-units="mm"
     inkscape:zoom="11.313708"
     inkscape:cx="31.643028"
     inkscape:cy="45.033863"
     inkscape:window-width="2560"
     inkscape:window-height="1369"
     inkscape:window-x="-8"
     inkscape:window-y="-8"
     inkscape:window-maximized="1"
     inkscape:current-layer="layer1"
     showgrid="false"><inkscape:grid
       id="grid157"
       units="mm"
       originx="0"
       originy="0"
       spacingx="0.99999998"
       spacingy="0.99999998"
       empcolor="#0099e5"
       empopacity="0.30196078"
       color="#0099e5"
       opacity="0.14901961"
       empspacing="5"
       dotted="false"
       gridanglex="30"
       gridanglez="30"
       visible="false" /></sodipodi:namedview><defs
     id="defs1"><linearGradient
       id="linearGradient29"
       inkscape:collect="always"><stop
         style="stop-color:#80092c;stop-opacity:1;"
         offset="0"
         id="stop29" /><stop
         style="stop-color:#410613;stop-opacity:1;"
         offset="1"
         id="stop30" /></linearGradient><radialGradient
       inkscape:collect="always"
       xlink:href="#linearGradient29"
       id="radialGradient30"
       cx="-4.2943563"
       cy="43.659042"
       fx="-4.2943563"
       fy="43.659042"
       r="8.4666662"
       gradientUnits="userSpaceOnUse"
       gradientTransform="matrix(1,0,0,1.9999998,12.761023,-70.384744)" /></defs><g
     inkscape:label="Layer 1"
     inkscape:groupmode="layer"
     id="layer1"><rect
       style="display:inline;fill:url(#radialGradient30);stroke:none;stroke-width:0.79375;stroke-linejoin:round"
       id="rect29"
       width="16.933332"
       height="16.933332"
       x="0"
       y="8.9009603e-07"
       inkscape:label="bg" /><g
       id="g19"
       inkscape:label="thorns"
       style="display:inline"><path
         id="path2"
         style="fill:#5d091c;fill-opacity:1;stroke-width:0.661458;stroke-linecap:round;stroke-linejoin:round"
         d="m 9.3224284,12.450403 0.4635376,4.48293 h 1.135331 l 0.03979,-0.0078 z" /><path
         id="path4"
         style="fill:#5d091c;fill-opacity:1;stroke-width:0.661458;stroke-linecap:round;stroke-linejoin:round"
         d="m 0,6.7034668 v 1.162203 L 7.007841,7.3540731 Z" /><path
         id="path5"
         style="fill:#5d091c;fill-opacity:1;stroke-width:0.661458;stroke-linecap:round;stroke-linejoin:round"
         d="M 16.294613,0 12.121741,5.1671265 16.933333,0.83767497 V 0 Z" /><path
         id="path6"
         style="fill:#5d091c;fill-opacity:1;stroke-width:0.661458;stroke-linecap:round;stroke-linejoin:round"
         d="M 3.8777995,13.373861 0.38033854,16.933333 H 1.6717326 Z" /><path
         id="path7"
         style="fill:#5d091c;fill-opacity:1;stroke-width:0.661458;stroke-linecap:round;stroke-linejoin:round"
         d="M 1.352889,0 6.4600708,4.9004761 2.7300659,0 Z" /><path
         id="path8"
         style="fill:#5d091c;fill-opacity:1;stroke-width:0.661458;stroke-linecap:round;stroke-linejoin:round"
         d="M 7.6119385,11.755355 4.8131429,16.933333 H 5.999117 Z" /><path
         id="path9"
         style="fill:#5d091c;fill-opacity:1;stroke-width:0.661458;stroke-linecap:round;stroke-linejoin:round"
         d="m 11.968778,10.287227 4.964555,1.950786 v -1.080038 z" /><path
         id="path10"
         style="fill:#5d091c;fill-opacity:1;stroke-width:0.661458;stroke-linecap:round;stroke-linejoin:round"
         d="M 8.3214559,13.976408 7.9106283,16.933333 H 8.7736247 Z" /><path
         id="path11"
         style="fill:#5d091c;fill-opacity:1;stroke-width:0.661458;stroke-linecap:round;stroke-linejoin:round"
         d="M 13.681852,0 12.135693,3.5641235 14.684892,0 Z" /><path
         id="path12"
         style="fill:#5d091c;fill-opacity:1;stroke-width:0.661458;stroke-linecap:round;stroke-linejoin:round"
         d="M 16.933333,4.5904175 12.282971,6.3897909 16.933333,5.5030233 Z" /><path
         id="path13"
         style="fill:#5d091c;fill-opacity:1;stroke-width:0.661458;stroke-linecap:round;stroke-linejoin:round"
         d="M 5.3159546,8.7446859 0,9.777181 v 1.188041 z" /><path
         id="path14"
         style="fill:#5d091c;fill-opacity:1;stroke-width:0.661458;stroke-linecap:round;stroke-linejoin:round"
         d="m 12.142928,13.451892 2.888713,3.481441 h 1.237133 z" /><path
         id="path15"
         style="fill:#5d091c;fill-opacity:1;stroke-width:0.661458;stroke-linecap:round;stroke-linejoin:round"
         d="M 3.6524902,11.440129 0,12.679846 v 1.014409 z" /><path
         id="path16"
         style="fill:#5d091c;fill-opacity:1;stroke-width:0.661458;stroke-linecap:round;stroke-linejoin:round"
         d="M 0,2.3605794 V 3.365686 l 4.1434163,1.2779582 z" /><path
         id="path17"
         style="fill:#5d091c;fill-opacity:1;stroke-width:0.661458;stroke-linecap:round;stroke-linejoin:round"
         d="M 0,0 V 1.0578166 L 3.0251383,3.0070516 0.11368815,0 Z" /><path
         id="path18"
         style="fill:#5d091c;fill-opacity:1;stroke-width:0.661458;stroke-linecap:round;stroke-linejoin:round"
         d="M 7.1132609,0 8.1054484,5.4043213 7.97264,0 Z" /><path
         id="path19"
         style="fill:#5d091c;fill-opacity:1;stroke-width:0.661458;stroke-linecap:round;stroke-linejoin:round"
         d="M 9.7751139,0 10.008175,5.2989014 10.959538,0 Z" /><path
         id="path20"
         style="fill:#5d091c;fill-opacity:1;stroke-width:0.661458;stroke-linecap:round;stroke-linejoin:round"
         d="M 16.933333,7.1949097 14.1087,7.9214803 16.933333,8.0289673 Z" /></g><path
       style="fill:#100901;fill-opacity:1;stroke:#b80b22;stroke-width:0.2;stroke-opacity:1;stroke-dasharray:none"
       d="m 12.287734,16.455684 c 0.258932,-0.09711 0.850685,-0.346251 0.971302,-0.408947 0.167594,-0.08711 0.293483,-0.203975 0.29348,-0.272444 -1e-6,-0.07347 -0.05021,-0.179813 -0.111447,-0.235969 -0.08076,-0.07411 -0.167725,-0.0638 -0.576694,0.06828 -0.200192,0.06465 -0.472386,0.14464 -0.604878,0.177748 -0.314137,0.07013 -0.666427,0.24048 -0.539996,0.488753 0.151629,0.297761 0.413762,0.240511 0.568233,0.182577 z m 0.687166,-0.05045 c 0.01642,-0.0032 0.0971,-0.01645 0.17926,-0.02946 0.08216,-0.01302 0.333126,-0.07487 0.557701,-0.137439 0.22457,-0.06259 0.57413,-0.145298 0.776796,-0.183825 0.625862,-0.118993 0.99644,-0.238538 1.301271,-0.419794 0.23762,-0.141287 0.368398,-0.187634 0.571007,-0.20235 l 0.169302,-0.0123 -1e-6,-1.192679 1e-6,-1.192678 -0.219097,-0.01314 c -0.28099,-0.01685 -0.741809,-0.144845 -1.081243,-0.300319 -0.512746,-0.234854 -0.578937,-0.2484 -1.213449,-0.248325 -0.550156,6.5e-5 -0.770473,0.02142 -0.992632,0.09622 -0.30601,0.103028 -0.487609,0.204794 -0.77693,0.682419 l -0.401578,0.662937 c -0.129709,0.214128 0.546329,0.36742 0.897658,0.134842 0.181157,-0.119926 0.381813,-0.329682 0.467386,-0.488583 0.05647,-0.10486 0.0695,-0.117065 0.122753,-0.114915 0.04099,0.0017 0.0985,0.03524 0.184309,0.107612 0.441608,0.372472 1.028998,0.499982 1.296395,0.56542 0.267399,0.06544 0.06125,0.07438 -0.135937,0.076 -0.288505,0.0024 -0.383805,-0.0039 -0.487988,-0.03209 -0.166741,-0.04511 -0.369447,-0.147076 -0.545398,-0.257844 l -0.145418,-0.09155 c -0.01925,-0.0121 0.346572,0.346122 0.0067,0.670265 -0.03978,0.03796 -0.07242,0.07469 -0.07256,0.08159 -1.43e-4,0.0069 0.03129,0.01844 0.06979,0.02559 0.101534,0.01885 0.200275,0.124777 0.2257,0.242128 0.03335,0.153906 -0.02577,0.346217 -0.126503,0.411547 l -0.04907,0.03182 0.09071,0.08724 c 0.122353,0.117715 0.175934,0.240187 0.160702,0.367446 -0.01424,0.118985 -0.100126,0.257895 -0.217,0.350969 -0.112207,0.08936 -0.377557,0.219966 -0.541014,0.266298 -0.07227,0.02048 -0.131395,0.04401 -0.131398,0.05228 -2.1e-5,0.01507 0.0044,0.01541 0.05976,0.0047 z m -0.794034,-0.825295 c 0.491475,-0.129799 1.12586,-0.312784 1.187838,-0.350585 0.174756,-0.106579 0.23099,-0.309522 0.11809,-0.426156 -0.09937,-0.102673 -0.315958,-0.132258 -0.532451,-0.07276 -0.213447,0.05867 -0.551586,0.125558 -0.845869,0.167328 -0.941929,0.133696 -1.019281,0.314875 -0.975551,0.56141 0.114984,0.325813 0.38032,0.297075 1.047942,0.120758 z m -0.759557,-0.852794 c 0.306079,-0.02821 1.523402,-0.188714 1.618932,-0.213466 0.363509,-0.0942 0.5176,-0.294829 0.380253,-0.495146 -0.100251,-0.146209 -0.153729,-0.159391 -0.225262,-0.05545 -0.241456,0.331703 -0.5748,0.435397 -0.968269,0.43098 -0.308672,-9.3e-4 -0.666462,-0.171854 -0.595089,-0.392974 l 0.04335,-0.134318 -0.221569,0.01204 c -0.354955,0.01927 -0.591405,0.0658 -0.559773,0.44371 0.03163,0.377906 0.290015,0.426505 0.527421,0.404629 z m 0.524094,-1.510091 c 0.140303,-0.208719 0.269345,-0.399819 0.286759,-0.424669 l 0.03166,-0.04518 -1.720897,0.0062 c -1.5877151,0.0058 -1.7290831,0.009 -1.8266531,0.04137 -0.213457,0.07089 -0.322152,0.235122 -0.291133,0.439854 0.03112,0.205347 0.18971,0.310296 0.516395,0.34171 0.109548,0.01053 0.772836,0.01938 1.4739741,0.01966 l 1.274796,5.16e-4 z"
       id="path1"
       sodipodi:nodetypes="cssssssccsssssscccsssssssscscccssscssscsssssssssssscssssscscscsscscssssccc"
       inkscape:label="finger-points"
       clip-path="none" /><path
       style="fill:#100901;fill-opacity:1;stroke:#b80b22;stroke-width:0.2;stroke-opacity:1;stroke-dasharray:none"
       d="m 4.6926375,15.066621 c -0.258932,-0.09711 -0.850685,-0.346251 -0.971302,-0.408947 -0.167594,-0.08711 -0.293483,-0.203975 -0.29348,-0.272444 10e-7,-0.07347 0.05021,-0.179813 0.111447,-0.235969 0.08076,-0.07411 0.167725,-0.0638 0.576694,0.06828 0.200192,0.06465 0.472386,0.14464 0.604878,0.177748 0.314137,0.07013 0.666427,0.24048 0.539996,0.488753 -0.151629,0.297761 -0.413762,0.240511 -0.568233,0.182577 z m -0.687166,-0.05045 c -0.01642,-0.0032 -0.0971,-0.01645 -0.17926,-0.02946 -0.08216,-0.01302 -0.333126,-0.07487 -0.557701,-0.137439 -0.22457,-0.06259 -0.57413,-0.145298 -0.776796,-0.183825 -0.625862,-0.118993 -0.99644,-0.238538 -1.301271,-0.419794 -0.23762003,-0.141287 -0.36839801,-0.187634 -0.57100701,-0.20235 l -0.169302,-0.0123 1e-6,-1.192679 -1e-6,-1.192678 0.219097,-0.01314 c 0.28098998,-0.01685 0.74180901,-0.144845 1.08124301,-0.300319 0.512746,-0.234854 0.578937,-0.2484 1.213449,-0.248325 0.550156,6.5e-5 0.770473,0.02142 0.992632,0.09622 0.30601,0.103028 0.487609,0.204794 0.77693,0.682419 l 0.401578,0.662937 c 0.129709,0.214128 -0.546329,0.36742 -0.897658,0.134842 -0.181157,-0.119926 -0.381813,-0.329682 -0.467386,-0.488583 -0.05647,-0.10486 -0.0695,-0.117065 -0.122753,-0.114915 -0.04099,0.0017 -0.0985,0.03524 -0.184309,0.107612 -0.441608,0.372472 -1.028998,0.499982 -1.296395,0.56542 -0.267399,0.06544 -0.06125,0.07438 0.135937,0.076 0.288505,0.0024 0.383805,-0.0039 0.487988,-0.03209 0.166741,-0.04511 0.369447,-0.147076 0.545398,-0.257844 l 0.145418,-0.09155 c 0.01925,-0.0121 -0.346572,0.346122 -0.0067,0.670265 0.03978,0.03796 0.07242,0.07469 0.07256,0.08159 1.43e-4,0.0069 -0.03129,0.01844 -0.06979,0.02559 -0.101534,0.01885 -0.200275,0.124777 -0.2257,0.242128 -0.03335,0.153906 0.02577,0.346217 0.126503,0.411547 l 0.04907,0.03182 -0.09071,0.08724 c -0.122353,0.117715 -0.175934,0.240187 -0.160702,0.367446 0.01424,0.118985 0.100126,0.257895 0.217,0.350969 0.112207,0.08936 0.377557,0.219966 0.541014,0.266298 0.07227,0.02048 0.131395,0.04401 0.131398,0.05228 2.1e-5,0.01507 -0.0044,0.01541 -0.05976,0.0047 z m 0.794034,-0.825295 c -0.491475,-0.129799 -1.12586,-0.312784 -1.187838,-0.350585 -0.174756,-0.106579 -0.23099,-0.309522 -0.11809,-0.426156 0.09937,-0.102673 0.315958,-0.132258 0.532451,-0.07276 0.213447,0.05867 0.551586,0.125558 0.845869,0.167328 0.941929,0.133696 1.019281,0.314875 0.975551,0.56141 -0.114984,0.325813 -0.38032,0.297075 -1.047942,0.120758 z m 0.759557,-0.852794 c -0.306079,-0.02821 -1.523402,-0.188714 -1.618932,-0.213466 -0.363509,-0.0942 -0.5176,-0.294829 -0.380253,-0.495146 0.100251,-0.146209 0.153729,-0.159391 0.225262,-0.05545 0.241456,0.331703 0.5748,0.435397 0.968269,0.43098 0.308672,-9.3e-4 0.666462,-0.171854 0.595089,-0.392974 l -0.04335,-0.134318 0.221569,0.01204 c 0.354955,0.01927 0.591405,0.0658 0.559773,0.44371 -0.03163,0.377906 -0.290015,0.426505 -0.527421,0.404629 z m -0.524094,-1.510091 c -0.140303,-0.208719 -0.269345,-0.399819 -0.286759,-0.424669 l -0.03166,-0.04518 1.720897,0.0062 c 1.587715,0.0058 1.729083,0.009 1.826653,0.04137 0.213457,0.07089 0.322152,0.235122 0.291133,0.439854 -0.03112,0.205347 -0.18971,0.310296 -0.516395,0.34171 -0.109548,0.01053 -0.772836,0.01938 -1.473974,0.01966 l -1.274796,5.16e-4 z"
       id="path1-8"
       sodipodi:nodetypes="cssssssccsssssscccsssssssscscccssscssscsssssssssssscssssscscscsscscssssccc"
       inkscape:label="finger-points"
       clip-path="none" /><g
       id="g3"
       transform="matrix(0.6982397,0,0,0.6959065,-14.322412,1.8066095)"
       style="display:inline;stroke-width:1.43457"
       clip-path="none"><path
         id="path90"
         style="display:inline;fill:#010101;fill-opacity:1;stroke:#b80b22;stroke-width:0.371554;stroke-linejoin:round;stroke-opacity:1"
         d="m 32.824869,-1.2469523 -1.239717,2.5957072 -1.145667,-1.39164634 -0.65474,1.70738934 -1.63711,-2.23345542 -0.72502,2.88819582 -0.993738,-0.4092773 0.280603,0.7834147 -1.730643,-0.6779948 0.386023,1.6371094 -2.443779,0.2919718 1.683618,1.613855 -2.432409,1.2975952 2.713012,-0.081649 -1.146183,1.3565064 1.039213,-0.1297079 -3.985803,3.6023642 7.302913,-2.199349 -0.567407,1.46296 1.578198,-0.9358604 0.234095,0.8185544 0.982369,-1.1456662 1.052132,2.1750612 0.83044,-1.684135 0.865063,2.210201 1.169438,-2.36213 0.958598,1.215947 0.393258,-1.6489953 1.477946,2.7248983 0.187068,-2.431893 1.834514,1.249019 -0.0935,-0.921039 5.559526,1.442433 L 40.649679,8.4771451 42.457356,8.8966139 41.860494,7.7090902 43.072823,7.0543498 41.614514,5.7552043 42.754496,5.0415528 41.830004,4.6209066 43.732214,3.0049846 40.986645,3.5703247 41.115319,2.190564 39.793953,2.7987956 40.016162,0.41341146 37.829215,2.0034953 37.548612,0.77566325 36.695434,1.5477092 36.274271,-0.35863444 35.163228,1.3487549 34.566882,0.12092285 34.029447,1.2671062 Z"
         sodipodi:nodetypes="ccccccccccccccccccccccccccccccccccccccccccccccccccccc" /><path
         id="path1-1"
         style="color:#000000;display:inline;fill:#9f0e21;fill-opacity:1;stroke:none;stroke-width:0.379563;stroke-linecap:round;stroke-linejoin:round;stroke-opacity:1;-inkscape-stroke:none"
         d="M 36.540479,2.1217126 35.999768,2.6801434 C 34.790814,1.7559677 32.905419,2.0234715 31.552105,3.2596989 L 30.950406,2.6341471 30.644105,2.9520336 31.264884,3.5448772 C 30.016453,4.8992834 29.74362,6.7949798 30.671362,8.0085798 L 30.12043,8.5417984 30.54598,8.967691 31.069996,8.422548 c 1.166467,0.9718369 3.025328,0.7677711 4.399623,-0.3962515 l 0.523675,0.5485507 0.633727,-0.587733 -0.574101,-0.5522984 c 1.132339,-1.3700076 1.323203,-3.2023603 0.361154,-4.3567175 l 0.551955,-0.5304926 z m -2.727063,0.4085166 c 0.683645,-0.01163 1.338151,0.1784399 1.819404,0.5291298 L 35.212041,3.4944514 33.54323,5.5448723 35.588869,3.8712816 36.035202,3.4423221 c 0.721074,0.909821 0.476187,2.3098695 -0.512772,3.4817625 l -0.07018,-0.067462 -1.909013,-1.3117511 1.324009,1.8504211 0.09336,0.097785 c -1.180877,1.0210035 -2.605564,1.2812803 -3.52707,0.5509391 L 31.869649,7.5905226 33.54323,5.5448723 31.493161,7.2136924 31.051258,7.6412894 C 30.315899,6.6275796 30.303365,4.8362897 31.361987,3.6372108 L 31.823653,4.0780958 33.54323,5.5448723 32.080889,3.8092717 31.644097,3.355099 c 0.628139,-0.5544155 1.415825,-0.8120532 2.169319,-0.8248698 z"
         inkscape:label="marked" /><text
         xml:space="preserve"
         style="font-size:6.53522px;font-family:Calibri;-inkscape-font-specification:Calibri;text-align:end;text-anchor:end;fill:#611626;fill-opacity:1;stroke:none;stroke-width:0.358643;stroke-linecap:round;stroke-linejoin:round;stroke-dasharray:none;stroke-opacity:1"
         x="40.046207"
         y="8.2931976"
         id="text17"
         transform="scale(0.99832783,1.001675)"><tspan
           sodipodi:role="line"
           id="tspan17"
           style="fill:#611626;fill-opacity:1;stroke:none;stroke-width:0.358643;stroke-opacity:1"
           x="40.046207"
           y="8.2931976">!</tspan></text><g
         id="g17"
         transform="matrix(1.3833728,0.37191641,-0.37067363,1.3880109,43.581742,1.8595652)"><path
           id="path2-7"
           style="fill:#611626;fill-opacity:1;stroke:none;stroke-width:0.25;stroke-linecap:round;stroke-linejoin:round;stroke-dasharray:none;stroke-dashoffset:0.6;stroke-opacity:1"
           d="m -10.442771,4.1099645 c -0.450011,0.1471195 -1.125128,0.751621 -0.653016,1.5782322 l -0.0385,0.2088144 0.111194,0.2324968 -0.02126,0.2856347 0.436544,0.1948632 0.193878,-0.097931 0.244982,0.6146945 0.2023986,0.037894 0.3273273,-0.055811 0.3113795,-0.1153297 0.1563355,-0.1340161 -0.095187,-0.654832 0.2168683,-0.012128 0.2806264,-0.3870284 -0.1612281,-0.2367382 -0.019951,-0.256945 -0.1377482,-0.1615898 c -0.00445,-0.951921 -0.8913674,-1.1378766 -1.3546493,-1.04028 z" /><path
           style="fill:#000000;fill-opacity:1;stroke:none;stroke-width:0.198437;stroke-linecap:round;stroke-linejoin:round;stroke-dashoffset:0.6"
           d="m -9.8565387,5.3198876 0.6555154,-0.043634 0.1284396,0.153405 0.00275,0.25796 -0.221451,0.190458 -0.2511458,-0.039153 -0.2112478,-0.1588993 z"
           id="path3-1"
           sodipodi:nodetypes="cccccccc" /><path
           id="path4-8"
           style="fill:#000000;fill-opacity:1;stroke:none;stroke-width:0.198437;stroke-linecap:round;stroke-linejoin:round;stroke-dashoffset:0.6"
           d="m -9.9909257,5.7962725 -0.1341073,0.6205837 0.1565742,0.089192 0.1236955,-0.1642896 0.1892683,0.080431 0.091002,-0.1555293 z" /><path
           style="fill:#000000;fill-opacity:1;stroke:none;stroke-width:0.198437;stroke-linecap:round;stroke-linejoin:round;stroke-dashoffset:0.6"
           d="m -10.345501,5.4509047 -0.58951,0.2899692 -0.03453,0.1970727 0.126599,0.2247734 0.287012,0.054216 0.197921,-0.1594801 0.103497,-0.2432348 z"
           id="path16-4"
           sodipodi:nodetypes="cccccccc" /></g></g></g></svg>
