<?xml version="1.0" encoding="UTF-8" standalone="no"?>
<!-- Created with Inkscape (http://www.inkscape.org/) -->

<svg
   width="48"
   height="48"
   viewBox="0 0 48 48"
   version="1.1"
   id="svg1"
   xml:space="preserve"
   inkscape:version="1.3.2 (091e20e, 2023-11-25, custom)"
   sodipodi:docname="experience-points.svg"
   xmlns:inkscape="http://www.inkscape.org/namespaces/inkscape"
   xmlns:sodipodi="http://sodipodi.sourceforge.net/DTD/sodipodi-0.dtd"
   xmlns="http://www.w3.org/2000/svg"
   xmlns:svg="http://www.w3.org/2000/svg"><sodipodi:namedview
     id="namedview1"
     pagecolor="#505050"
     bordercolor="#eeeeee"
     borderopacity="1"
     inkscape:showpageshadow="0"
     inkscape:pageopacity="0"
     inkscape:pagecheckerboard="0"
     inkscape:deskcolor="#505050"
     inkscape:document-units="px"
     inkscape:zoom="11.313708"
     inkscape:cx="12.59534"
     inkscape:cy="22.671612"
     inkscape:window-width="2560"
     inkscape:window-height="1369"
     inkscape:window-x="-8"
     inkscape:window-y="-8"
     inkscape:window-maximized="1"
     inkscape:current-layer="layer1" /><defs
     id="defs1"><inkscape:path-effect
       effect="powerclip"
       id="path-effect7"
       is_visible="true"
       lpeversion="1"
       inverse="true"
       flatten="false"
       hide_clip="false"
       message="Use fill-rule evenodd on &lt;b&gt;fill and stroke&lt;/b&gt; dialog if no flatten result after convert clip to paths." /><inkscape:path-effect
       effect="powerclip"
       id="path-effect5"
       is_visible="true"
       lpeversion="1"
       inverse="true"
       flatten="false"
       hide_clip="false"
       message="Use fill-rule evenodd on &lt;b&gt;fill and stroke&lt;/b&gt; dialog if no flatten result after convert clip to paths." /><inkscape:path-effect
       effect="powerclip"
       id="path-effect2"
       is_visible="true"
       lpeversion="1"
       inverse="true"
       flatten="false"
       hide_clip="false"
       message="Use fill-rule evenodd on &lt;b&gt;fill and stroke&lt;/b&gt; dialog if no flatten result after convert clip to paths." /><inkscape:path-effect
       effect="powerclip"
       id="path-effect19"
       is_visible="true"
       lpeversion="1"
       inverse="true"
       flatten="false"
       hide_clip="false"
       message="Use fill-rule evenodd on &lt;b&gt;fill and stroke&lt;/b&gt; dialog if no flatten result after convert clip to paths." /><clipPath
       clipPathUnits="userSpaceOnUse"
       id="clipPath19"><path
         style="color:#000000;display:block;fill:#808080;-inkscape-stroke:none"
         d="m 30.435363,5.7221535 c -1.093451,0.035117 -1.762593,0.376236 -2.165832,0.9419134 -0.403239,0.5656774 -0.840751,1.2707798 -0.923368,2.1210938 -0.04903,6.9253703 -0.01872,13.8561763 -0.01958,20.7832023 l 1.550321,-1.3125 C 29.600298,27.516918 30.435996,26.87624 31.457031,26.375 l 0.208985,-0.103516 0.113281,-0.201172 c 0.386293,-0.68153 1.013604,-1.232303 1.435815,-1.691406 l 0.197265,-0.216797 c -0.06112,-4.87868 0.07462,-9.761904 -0.10937,-14.6386715 C 33.253216,8.4996641 33.219928,7.9859693 33.07058,7.5410156 32.718437,6.491671 31.528814,5.6870365 30.435363,5.7221535 Z"
         id="path19"
         sodipodi:nodetypes="csccccccccccc" /></clipPath><clipPath
       clipPathUnits="userSpaceOnUse"
       id="clipPath5"><path
         style="color:#000000;display:block;fill:#808080;stroke-width:1.20527;stroke-linejoin:round;-inkscape-stroke:none"
         d="m 30.977339,7.8052638 c 0,4.7068902 -3.81569,8.5225792 -8.522579,8.5225792 -4.706891,0 -8.522579,-3.815689 -8.522579,-8.5225792 0,-11.1440561 17.045158,-11.144058 17.045158,0 z"
         id="path5"
         clip-path="none"
         sodipodi:nodetypes="ssss" /></clipPath></defs><g
     inkscape:label="Layer 1"
     inkscape:groupmode="layer"
     id="layer1"><rect
       style="display:none;fill:none;stroke:#000000;stroke-width:8;stroke-dasharray:none;stroke-opacity:1"
       id="rect1"
       width="48"
       height="48"
       x="0"
       y="0"
       inkscape:label="border spacer"
       sodipodi:insensitive="true" /><path
       style="color:#000000;display:none;fill:#000000;stroke-width:1.19445;stroke-linejoin:round;-inkscape-stroke:none"
       d="m 35.537476,15.022878 a 8.4460677,8.4460677 0 0 1 -8.446068,8.446068 8.4460677,8.4460677 0 0 1 -8.446068,-8.446068 8.4460677,8.4460677 0 0 1 8.446068,-8.4460681 8.4460677,8.4460677 0 0 1 8.446068,8.4460681 z"
       id="path12" /><path
       id="path1"
       style="fill:#ffffff"
       d="M 24 5.8125 A 10.6875 10.6875 0 0 0 13.3125 16.5 A 10.6875 10.6875 0 0 0 13.40625 17.8125 L 13.392578 17.808594 C 13.400929 17.880798 13.412484 17.950266 13.421875 18.021484 C 14.114951 23.277742 17.597281 25.878992 18.435547 29.822266 L 20.777344 29.306641 A 0.75 0.75 0 0 1 20.744141 29.224609 L 18.181641 16.142578 A 0.75 0.75 0 0 1 18.773438 15.261719 A 0.75 0.75 0 0 1 19.654297 15.853516 L 22.216797 28.935547 A 0.75 0.75 0 0 1 22.224609 28.988281 L 25.931641 28.173828 L 28.345703 15.853516 A 0.75 0.75 0 0 1 28.933594 15.261719 A 0.75 0.75 0 0 1 29.226562 15.261719 A 0.75 0.75 0 0 1 29.818359 16.142578 L 27.53125 27.822266 L 30.556641 27.15625 C 31.92095 24.476053 34.051658 22.014185 34.578125 18.021484 C 34.587516 17.950266 34.599071 17.880798 34.607422 17.808594 L 34.59375 17.8125 A 10.6875 10.6875 0 0 0 34.6875 16.5 A 10.6875 10.6875 0 0 0 24 5.8125 z M 26.042969 12.931641 A 0.50005 0.50005 0 0 1 26.546875 13.197266 L 27.943359 15.875 A 0.5 0.5 0 0 1 27.732422 16.548828 A 0.5 0.5 0 0 1 27.058594 16.337891 L 26.275391 14.837891 L 25.59375 17.652344 A 0.50005 0.50005 0 0 1 24.664062 17.767578 L 23.208984 14.984375 L 22.498047 17.921875 A 0.50005 0.50005 0 0 1 21.640625 18.140625 L 20.285156 16.642578 A 0.5 0.5 0 0 1 20.320312 15.935547 A 0.5 0.5 0 0 1 21.027344 15.970703 L 21.748047 16.767578 L 22.550781 13.455078 A 0.50005 0.50005 0 0 1 23.480469 13.341797 L 24.935547 16.125 L 25.617188 13.310547 A 0.50005 0.50005 0 0 1 26.042969 12.931641 z " /><path
       style="fill:none;stroke:#ffffff;stroke-width:2.5;stroke-linecap:round;stroke-dasharray:none;stroke-opacity:1"
       d="m 18.3125,33.310393 11.375,-2.5"
       id="path3" /><path
       style="fill:none;stroke:#ffffff;stroke-width:2.5;stroke-linecap:round;stroke-dasharray:none;stroke-opacity:1"
       d="m 18.3125,38.091643 11.375,-2.5"
       id="path4" /><path
       id="path8"
       style="fill:#ffffff;stroke-width:5;stroke-linecap:round"
       d="m 28.853516,39.273283 -9.13086,2.007812 C 20.56429,42.86314 22.208022,43.853882 24,43.85922 c 2.577845,-1.8e-5 4.707467,-2.012232 4.853516,-4.585937 z"
       sodipodi:nodetypes="cccc" /></g></svg>
