<?xml version="1.0" encoding="UTF-8" standalone="no"?>
<!-- Created with Inkscape (http://www.inkscape.org/) -->

<svg
   width="210mm"
   height="297mm"
   viewBox="0 0 210 297"
   version="1.1"
   id="svg5"
   inkscape:version="1.3.2 (091e20e, 2023-11-25, custom)"
   sodipodi:docname="flanking-chart_1.svg"
   inkscape:export-filename="flanking-chart_1.png"
   inkscape:export-xdpi="96"
   inkscape:export-ydpi="96"
   xmlns:inkscape="http://www.inkscape.org/namespaces/inkscape"
   xmlns:sodipodi="http://sodipodi.sourceforge.net/DTD/sodipodi-0.dtd"
   xmlns="http://www.w3.org/2000/svg"
   xmlns:svg="http://www.w3.org/2000/svg">
  <sodipodi:namedview
     id="namedview7"
     pagecolor="#505050"
     bordercolor="#ffffff"
     borderopacity="1"
     inkscape:pageshadow="0"
     inkscape:pageopacity="0"
     inkscape:pagecheckerboard="1"
     inkscape:document-units="mm"
     showgrid="false"
     inkscape:lockguides="false"
     inkscape:zoom="2.8284271"
     inkscape:cx="255.6191"
     inkscape:cy="502.57615"
     inkscape:window-width="2560"
     inkscape:window-height="1369"
     inkscape:window-x="-8"
     inkscape:window-y="-8"
     inkscape:window-maximized="1"
     inkscape:current-layer="layer1"
     inkscape:showpageshadow="0"
     inkscape:deskcolor="#505050" />
  <defs
     id="defs2" />
  <g
     inkscape:label="Layer 1"
     inkscape:groupmode="layer"
     id="layer1">
    <rect
       style="fill:none;stroke:#1c1c1c;stroke-width:1.565;stroke-linecap:round;stroke-linejoin:round;stroke-opacity:1"
       id="rect868"
       width="22.719055"
       height="22.719055"
       x="34.078583"
       y="97.072319" />
    <rect
       style="fill:none;stroke:#1c1c1c;stroke-width:1.565;stroke-linecap:round;stroke-linejoin:round;stroke-opacity:1"
       id="rect868-5"
       width="22.719055"
       height="22.719055"
       x="56.797638"
       y="97.072319" />
    <rect
       style="fill:#608360;stroke:#1c1c1c;stroke-width:1.565;stroke-linecap:round;stroke-linejoin:round;stroke-opacity:1;fill-opacity:0.26904762;opacity:1"
       id="rect868-6"
       width="22.719055"
       height="22.719055"
       x="79.516693"
       y="97.072319" />
    <rect
       style="fill:none;stroke:#1c1c1c;stroke-width:1.565;stroke-linecap:round;stroke-linejoin:round;stroke-opacity:1"
       id="rect868-4"
       width="22.719055"
       height="22.719055"
       x="34.078583"
       y="119.79137" />
    <rect
       style="fill:none;stroke:#1c1c1c;stroke-width:1.565;stroke-linecap:round;stroke-linejoin:round;stroke-opacity:1"
       id="rect868-5-2"
       width="22.719055"
       height="22.719055"
       x="56.797638"
       y="119.79137" />
    <rect
       style="fill:#608360;stroke:#1c1c1c;stroke-width:1.565;stroke-linecap:round;stroke-linejoin:round;stroke-opacity:1;fill-opacity:0.26904762;opacity:1"
       id="rect868-6-1"
       width="22.719055"
       height="22.719055"
       x="79.516693"
       y="119.79137" />
    <rect
       style="fill:none;stroke:#1c1c1c;stroke-width:1.565;stroke-linecap:round;stroke-linejoin:round;stroke-opacity:1"
       id="rect868-3"
       width="22.719055"
       height="22.719055"
       x="34.078583"
       y="142.51042" />
    <rect
       style="fill:none;stroke:#1c1c1c;stroke-width:1.565;stroke-linecap:round;stroke-linejoin:round;stroke-opacity:1"
       id="rect868-5-5"
       width="22.719055"
       height="22.719055"
       x="56.797638"
       y="142.51042" />
    <rect
       style="fill:#608360;stroke:#1c1c1c;stroke-width:1.565;stroke-linecap:round;stroke-linejoin:round;stroke-opacity:1;fill-opacity:0.26904762;opacity:1"
       id="rect868-6-9"
       width="22.719055"
       height="22.719055"
       x="79.516693"
       y="142.51042" />
    <g
       id="g2"
       inkscape:label="person"
       transform="matrix(0.53501516,0,0,0.53501516,32.863602,119.03808)"
       style="display:inline;stroke:#1c1c1c;stroke-width:0.934553;stroke-dasharray:none;stroke-opacity:1">
      <path
         id="path2"
         style="fill:#7b9f7b;fill-opacity:1;stroke:#1c1c1c;stroke-width:0.934553;stroke-linecap:round;stroke-linejoin:round;stroke-dasharray:none;stroke-opacity:1"
         d="m 29.039848,20.701172 c -1.464682,1.111652 -3.666681,2.091947 -5.50543,2.099609 -1.832058,-0.0077 -4.043545,-1.014879 -5.505429,-2.11914 -4.414651,2.585974 -7.816277,8.622855 -7.786679,18.213801 0.0065,0.214461 26.521717,0 26.521717,0 0.01133,-8.902838 -3.313419,-15.599779 -7.724179,-18.19427 z"
         sodipodi:nodetypes="cccccc" />
      <circle
         style="fill:#7b9f7b;fill-opacity:1;stroke:#1c1c1c;stroke-width:0.934553;stroke-linecap:round;stroke-linejoin:round;stroke-dasharray:none;stroke-opacity:1"
         id="path1"
         cx="23.503046"
         cy="13.539203"
         r="7.2496953" />
    </g>
    <path
       id="path1-8"
       style="fill:#7b9f7b;stroke-width:0.5;fill-opacity:1;stroke:#1b1b1b;stroke-opacity:1;stroke-dasharray:none"
       inkscape:label="check"
       d="m 95.853057,125.72295 c -0.327235,0.0416 -0.62453,0.2116 -0.826478,0.47243 l -5.630249,7.27172 -2.774116,-2.77412 c -0.233269,-0.23323 -0.549637,-0.36425 -0.879517,-0.36425 -0.329863,0 -0.64623,0.13108 -0.879517,0.36425 -0.48578,0.48577 -0.48578,1.27336 0,1.75912 l 3.772584,3.77258 c 0.02325,0.0199 0.04718,0.0391 0.07161,0.0571 0.01516,0.0169 0.0305,0.0317 0.04633,0.0468 0.01516,0.008 0.03033,0.018 0.04566,0.0266 0.05341,0.0371 0.109516,0.0698 0.167981,0.0981 0.03235,0.0173 0.06554,0.0334 0.09941,0.0478 0.06975,0.0259 0.141529,0.0455 0.214686,0.0585 0.02612,0.007 0.05257,0.0135 0.07919,0.0182 0.100755,0.0135 0.202723,0.0135 0.303596,0.001 0.02056,-0.003 0.04111,-0.008 0.0615,-0.0135 0.07936,-0.0135 0.157198,-0.0334 0.232495,-0.0612 0.03269,-0.0135 0.0647,-0.0295 0.09604,-0.0462 0.05981,-0.0281 0.117267,-0.061 0.171924,-0.0982 0.03151,-0.0228 0.062,-0.047 0.09115,-0.0728 0.02662,-0.0195 0.0524,-0.0403 0.0775,-0.0618 0.03504,-0.0356 0.06807,-0.0733 0.09856,-0.11272 0.0017,-0.002 0.0034,-0.003 0.0051,-0.005 l 6.494703,-8.38824 c 0.42057,-0.54318 0.32115,-1.32447 -0.22205,-1.74503 -0.26084,-0.20195 -0.591217,-0.29202 -0.918468,-0.25039 z"
       sodipodi:nodetypes="ccccccccccccccccccccccccccc" />
    <path
       id="path1-8-3"
       style="fill:#7b9f7b;fill-opacity:1;stroke-width:0.5;stroke:#1b1b1b;stroke-opacity:1;stroke-dasharray:none"
       inkscape:label="check"
       d="m 95.853058,103.0039 c -0.327235,0.0416 -0.62453,0.2116 -0.826478,0.47243 l -5.630249,7.27172 -2.774116,-2.77412 c -0.233269,-0.23323 -0.549637,-0.36425 -0.879517,-0.36425 -0.329863,0 -0.64623,0.13108 -0.879517,0.36425 -0.48578,0.48577 -0.48578,1.27336 0,1.75912 l 3.772584,3.77258 c 0.02325,0.0199 0.04718,0.0391 0.07161,0.0571 0.01516,0.0169 0.0305,0.0317 0.04633,0.0468 0.01516,0.008 0.03033,0.018 0.04566,0.0266 0.05341,0.0371 0.109516,0.0698 0.167981,0.0981 0.03235,0.0173 0.06554,0.0334 0.09941,0.0478 0.06975,0.0259 0.141529,0.0455 0.214686,0.0585 0.02612,0.007 0.05257,0.0135 0.07919,0.0182 0.100755,0.0135 0.202723,0.0135 0.303596,0.001 0.02056,-0.003 0.04111,-0.008 0.0615,-0.0135 0.07936,-0.0135 0.157198,-0.0334 0.232495,-0.0612 0.03269,-0.0135 0.0647,-0.0295 0.09604,-0.0462 0.05981,-0.0281 0.117267,-0.061 0.171924,-0.0982 0.03151,-0.0228 0.062,-0.047 0.09115,-0.0728 0.02662,-0.0195 0.0524,-0.0403 0.0775,-0.0618 0.03504,-0.0356 0.06807,-0.0733 0.09856,-0.11272 0.0017,-0.002 0.0034,-0.003 0.0051,-0.005 l 6.494703,-8.38824 c 0.420568,-0.54318 0.321148,-1.32447 -0.22205,-1.74503 -0.26084,-0.20195 -0.591217,-0.29202 -0.918468,-0.25039 z"
       sodipodi:nodetypes="ccccccccccccccccccccccccccc" />
    <path
       id="path6"
       style="fill:#7b9f7b;fill-opacity:1;stroke-width:0.5;stroke:#1b1b1b;stroke-opacity:1;stroke-dasharray:none"
       inkscape:label="check"
       d="m 95.853134,148.44201 c -0.32724,0.0416 -0.62453,0.2116 -0.82648,0.47243 l -5.63025,7.27172 -2.77412,-2.77412 c -0.23327,-0.23323 -0.54963,-0.36425 -0.87951,-0.36425 -0.32987,0 -0.64623,0.13108 -0.87952,0.36425 -0.48578,0.48577 -0.48578,1.27336 0,1.75912 l 3.77258,3.77258 c 0.0233,0.0199 0.0472,0.0391 0.0716,0.0571 0.0152,0.0169 0.0305,0.0317 0.0463,0.0468 0.0152,0.008 0.0303,0.018 0.0457,0.0266 0.0534,0.0371 0.10952,0.0698 0.16798,0.0981 0.0323,0.0173 0.0655,0.0334 0.0994,0.0478 0.0697,0.0259 0.14153,0.0455 0.21469,0.0585 0.0261,0.007 0.0526,0.0135 0.0792,0.0182 0.10076,0.0135 0.20272,0.0135 0.3036,0.001 0.0206,-0.003 0.0411,-0.008 0.0615,-0.0135 0.0794,-0.0135 0.15719,-0.0334 0.23249,-0.0612 0.0327,-0.0135 0.0647,-0.0295 0.096,-0.0462 0.0598,-0.0281 0.11727,-0.061 0.17193,-0.0982 0.0315,-0.0228 0.062,-0.047 0.0911,-0.0728 0.0266,-0.0195 0.0524,-0.0403 0.0775,-0.0618 0.035,-0.0356 0.0681,-0.0733 0.0986,-0.11272 0.002,-0.002 0.003,-0.003 0.005,-0.005 l 6.4947,-8.38824 c 0.42057,-0.54318 0.32115,-1.32447 -0.22205,-1.74503 -0.26084,-0.20195 -0.59122,-0.29202 -0.91847,-0.25039 z"
       sodipodi:nodetypes="ccccccccccccccccccccccccccc" />
    <path
       id="rect8521-1-0-9-4"
       style="fill:#7b9f7b;fill-opacity:1;stroke:#1c1c1c;stroke-width:0.685252;stroke-linecap:round;stroke-linejoin:round;stroke-opacity:1"
       d="m 96.99716,132.22779 3.6941,-3.69458 0.003,2.59022 h 8.05585 v 2.21723 h -8.053 l 0.003,2.58975 z" />
    <g
       id="g7"
       inkscape:label="armored opponent"
       transform="matrix(0.53501516,0,0,0.53501516,55.582657,119.03808)"
       style="display:inline;stroke:#1c1c1c;stroke-width:0.934553;stroke-dasharray:none;stroke-opacity:1">
      <path
         id="path7"
         style="fill:#8d001b;fill-opacity:1;stroke:#1c1c1c;stroke-width:0.934553;stroke-linecap:round;stroke-linejoin:round;stroke-dasharray:none;stroke-opacity:1"
         d="m 29.039848,20.701172 c -1.464682,1.111652 -3.666681,2.091947 -5.50543,2.099609 -1.832058,-0.0077 -4.043545,-1.014879 -5.505429,-2.11914 -4.414651,2.585974 -7.816277,8.622855 -7.786679,18.213801 0.0065,0.214461 26.521717,0 26.521717,0 0.01133,-8.902838 -3.313419,-15.599779 -7.724179,-18.19427 z"
         sodipodi:nodetypes="cccccc" />
      <circle
         style="fill:#8d001b;fill-opacity:1;stroke:#1c1c1c;stroke-width:0.934553;stroke-linecap:round;stroke-linejoin:round;stroke-dasharray:none;stroke-opacity:1"
         id="circle7"
         cx="23.503046"
         cy="13.539203"
         r="7.2496953" />
    </g>
    <g
       id="g22"
       inkscape:label="person"
       transform="matrix(0.53501516,0,0,0.53501516,105.77176,119.03808)"
       style="display:inline;stroke:#1c1c1c;stroke-width:0.934553;stroke-dasharray:none;stroke-opacity:1">
      <path
         id="path22"
         style="fill:#7b9f7b;fill-opacity:1;stroke:#1c1c1c;stroke-width:0.934553;stroke-linecap:round;stroke-linejoin:round;stroke-dasharray:none;stroke-opacity:1"
         d="m 29.039848,20.701172 c -1.464682,1.111652 -3.666681,2.091947 -5.50543,2.099609 -1.832058,-0.0077 -4.043545,-1.014879 -5.505429,-2.11914 -4.414651,2.585974 -7.816277,8.622855 -7.786679,18.213801 0.0065,0.214461 26.521717,0 26.521717,0 0.01133,-8.902838 -3.313419,-15.599779 -7.724179,-18.19427 z"
         sodipodi:nodetypes="cccccc" />
      <circle
         style="fill:#7b9f7b;fill-opacity:1;stroke:#1c1c1c;stroke-width:0.934553;stroke-linecap:round;stroke-linejoin:round;stroke-dasharray:none;stroke-opacity:1"
         id="circle22"
         cx="23.503046"
         cy="13.539203"
         r="7.2496953" />
    </g>
    <path
       id="path23"
       style="fill:#7b9f7b;fill-opacity:1;stroke:#1c1c1c;stroke-width:0.685252;stroke-linecap:round;stroke-linejoin:round;stroke-opacity:1"
       d="m 98.715499,149.48115 -3.39e-4,-5.22459 1.83368,1.82944 5.69635,-5.69634 1.56782,1.56782 -5.69433,5.69433 1.83335,1.8291 z" />
    <path
       id="path24"
       style="fill:#7b9f7b;fill-opacity:1;stroke:#1c1c1c;stroke-width:0.685252;stroke-linecap:round;stroke-linejoin:round;stroke-opacity:1"
       d="m 98.715499,113.00529 -3.39e-4,5.22459 1.83368,-1.82944 5.69635,5.69634 1.56782,-1.56782 -5.69433,-5.69433 1.83335,-1.8291 z" />
  </g>
</svg>
