<?xml version="1.0" encoding="UTF-8" standalone="no"?>
<!-- Created with Inkscape (http://www.inkscape.org/) -->

<svg
   width="48"
   height="48"
   viewBox="0 0 48 48"
   version="1.1"
   id="svg1"
   xml:space="preserve"
   inkscape:version="1.3.2 (091e20e, 2023-11-25, custom)"
   sodipodi:docname="marked-solid.svg"
   xmlns:inkscape="http://www.inkscape.org/namespaces/inkscape"
   xmlns:sodipodi="http://sodipodi.sourceforge.net/DTD/sodipodi-0.dtd"
   xmlns="http://www.w3.org/2000/svg"
   xmlns:svg="http://www.w3.org/2000/svg"><sodipodi:namedview
     id="namedview1"
     pagecolor="#505050"
     bordercolor="#eeeeee"
     borderopacity="1"
     inkscape:showpageshadow="0"
     inkscape:pageopacity="0"
     inkscape:pagecheckerboard="0"
     inkscape:deskcolor="#505050"
     inkscape:document-units="px"
     inkscape:zoom="0.70710678"
     inkscape:cx="-333.7544"
     inkscape:cy="-48.790368"
     inkscape:window-width="2560"
     inkscape:window-height="1369"
     inkscape:window-x="-8"
     inkscape:window-y="-8"
     inkscape:window-maximized="1"
     inkscape:current-layer="layer1" /><defs
     id="defs1" /><g
     inkscape:label="Layer 1"
     inkscape:groupmode="layer"
     id="layer1"><rect
       style="display:none;fill:none;stroke:#000000;stroke-width:8;stroke-dasharray:none;stroke-opacity:1"
       id="rect1"
       width="48"
       height="48"
       x="0"
       y="0"
       inkscape:label="border spacer"
       sodipodi:insensitive="true" /><path
       style="color:#000000;fill:#ffffff;stroke-linecap:round;stroke-linejoin:round;-inkscape-stroke:none"
       d="m -0.01367188,16.292969 c -11.82049712,0 -21.73046912,7.722057 -21.73046912,17.662109 0,9.940052 9.909972,17.660156 21.73046912,17.660156 11.82049688,0 21.73046888,-7.720104 21.73046888,-17.660156 0,-9.940052 -9.909972,-17.662109 -21.73046888,-17.662109 z m 0.0625,0.75 c 10.52534688,0 18.66796888,9.001672 18.66796888,16.912109 0,7.910437 -8.205122,13.422719 -18.73046888,13.422719 -10.52534612,0 -18.73046912,-5.512282 -18.73046912,-13.422719 0,-7.910437 8.267623,-16.912109 18.79296912,-16.912109 z"
       id="path1"
       transform="rotate(-45)"
       sodipodi:nodetypes="ssssssssss" /><path
       style="color:#000000;fill:#ffffff;stroke-width:1;stroke-linejoin:round;-inkscape-stroke:none"
       d="M 23.809002,23.787315 35.535832,14.194648 43.430453,6.6058368 40.990481,4.1658637 33.375845,12.034662 Z"
       id="path2"
       sodipodi:nodetypes="cccccc" /><path
       style="color:#000000;fill:#ffffff;stroke-width:1;stroke-linejoin:round;-inkscape-stroke:none"
       d="M 23.809002,23.787315 14.216336,35.514144 6.6275251,43.408766 4.187552,40.968793 12.05635,33.354157 Z"
       id="path3"
       sodipodi:nodetypes="cccccc" /><path
       style="color:#000000;fill:#ffffff;stroke-width:1;stroke-linejoin:round;-inkscape-stroke:none"
       d="m 23.809004,23.787313 7.590043,10.608092 6.455355,6.761165 3.633217,-3.368051 -6.735343,-6.481179 z"
       id="path4"
       sodipodi:nodetypes="cccccc" /><path
       style="color:#000000;fill:#ffffff;stroke-width:1;stroke-linejoin:round;-inkscape-stroke:none"
       d="M 23.809004,23.787313 13.952214,15.379678 7.1910485,8.9243227 8.9460118,7.1030677 15.427191,13.838411 Z"
       id="path5"
       sodipodi:nodetypes="cccccc" /></g></svg>
