<?xml version="1.0" encoding="UTF-8" standalone="no"?>
<!-- Created with Inkscape (http://www.inkscape.org/) -->

<svg
   width="64"
   height="64"
   viewBox="0 0 16.933333 16.933333"
   version="1.1"
   id="svg1"
   xml:space="preserve"
   inkscape:version="1.3.2 (091e20e, 2023-11-25, custom)"
   sodipodi:docname="heroic_act_death-mark.svg"
   xmlns:inkscape="http://www.inkscape.org/namespaces/inkscape"
   xmlns:sodipodi="http://sodipodi.sourceforge.net/DTD/sodipodi-0.dtd"
   xmlns:xlink="http://www.w3.org/1999/xlink"
   xmlns="http://www.w3.org/2000/svg"
   xmlns:svg="http://www.w3.org/2000/svg"><sodipodi:namedview
     id="namedview1"
     pagecolor="#505050"
     bordercolor="#eeeeee"
     borderopacity="1"
     inkscape:showpageshadow="0"
     inkscape:pageopacity="0"
     inkscape:pagecheckerboard="0"
     inkscape:deskcolor="#505050"
     inkscape:document-units="mm"
     inkscape:zoom="5.6568542"
     inkscape:cx="12.28598"
     inkscape:cy="51.000077"
     inkscape:window-width="2560"
     inkscape:window-height="1369"
     inkscape:window-x="-8"
     inkscape:window-y="-8"
     inkscape:window-maximized="1"
     inkscape:current-layer="layer1"
     showgrid="false"><inkscape:grid
       id="grid157"
       units="mm"
       originx="0"
       originy="0"
       spacingx="0.99999998"
       spacingy="0.99999998"
       empcolor="#0099e5"
       empopacity="0.30196078"
       color="#0099e5"
       opacity="0.14901961"
       empspacing="5"
       dotted="false"
       gridanglex="30"
       gridanglez="30"
       visible="false" /></sodipodi:namedview><defs
     id="defs1"><linearGradient
       id="linearGradient82"
       inkscape:collect="always"><stop
         style="stop-color:#f3ed5e;stop-opacity:1;"
         offset="0"
         id="stop82" /><stop
         style="stop-color:#9b8117;stop-opacity:1;"
         offset="0.77978724"
         id="stop83" /></linearGradient><linearGradient
       id="linearGradient29"
       inkscape:collect="always"><stop
         style="stop-color:#f3ed5e;stop-opacity:1;"
         offset="0"
         id="stop29" /><stop
         style="stop-color:#915302;stop-opacity:1;"
         offset="1"
         id="stop30" /></linearGradient><radialGradient
       inkscape:collect="always"
       xlink:href="#linearGradient29"
       id="radialGradient30"
       cx="3.6762156"
       cy="43.460606"
       fx="3.6762156"
       fy="43.460606"
       r="8.4666662"
       gradientUnits="userSpaceOnUse"
       gradientTransform="matrix(0.71289058,-0.70127528,1.8867189,1.9179688,-68.181445,-81.174921)" /><radialGradient
       inkscape:collect="always"
       xlink:href="#linearGradient82"
       id="radialGradient83"
       cx="45.012239"
       cy="18.289323"
       fx="45.012239"
       fy="18.289323"
       r="26.380818"
       gradientUnits="userSpaceOnUse"
       gradientTransform="translate(-44.199698,-2.4789251)" /><clipPath
       clipPathUnits="userSpaceOnUse"
       id="clipPath13"><rect
         style="fill:#100901;fill-opacity:1;stroke:none;stroke-width:0.79375;stroke-linejoin:round"
         id="rect14"
         width="16.933332"
         height="16.933332"
         x="-1.3333333e-06"
         y="-16.933336"
         inkscape:label="clip"
         transform="rotate(90)" /></clipPath><inkscape:perspective
       sodipodi:type="inkscape:persp3d"
       inkscape:vp_x="-1.125 : 8.375 : 1"
       inkscape:vp_y="0 : 1000 : 0"
       inkscape:vp_z="46.875 : 8.375 : 1"
       inkscape:persp3d-origin="22.875 : 0.375 : 1"
       id="perspective18" /><clipPath
       clipPathUnits="userSpaceOnUse"
       id="clipPath3"><g
         id="g4"
         style="stroke-width:0.999999"><rect
           style="fill:#100901;fill-opacity:1;stroke:none;stroke-width:0.79375;stroke-linejoin:round"
           id="rect3"
           width="16.933332"
           height="16.933332"
           x="-1.3389152e-06"
           y="-16.933334"
           inkscape:label="clip"
           transform="rotate(90)" /></g></clipPath><clipPath
       clipPathUnits="userSpaceOnUse"
       id="clipPath1"><rect
         style="fill:#100901;fill-opacity:1;stroke:none;stroke-width:0.79375;stroke-linejoin:round"
         id="rect1"
         width="7.0084929"
         height="7.0084929"
         x="2.1103256"
         y="6.5299926"
         inkscape:label="clip"
         transform="rotate(90)" /></clipPath><clipPath
       clipPathUnits="userSpaceOnUse"
       id="clipPath2"><rect
         style="fill:#100901;fill-opacity:1;stroke:none;stroke-width:0.79375;stroke-linejoin:round"
         id="rect2"
         width="5.7068968"
         height="5.7068968"
         x="2.0104795"
         y="-12.272933"
         inkscape:label="clip"
         transform="rotate(90)" /></clipPath><clipPath
       clipPathUnits="userSpaceOnUse"
       id="clipPath4"><rect
         style="fill:#100901;fill-opacity:1;stroke:none;stroke-width:0.79375;stroke-linejoin:round"
         id="rect4"
         width="16.933332"
         height="16.933332"
         x="-1.3333333e-06"
         y="-16.933336"
         inkscape:label="clip" /></clipPath><clipPath
       clipPathUnits="userSpaceOnUse"
       id="clipPath5"><rect
         style="fill:#100901;fill-opacity:1;stroke:none;stroke-width:0.79375;stroke-linejoin:round"
         id="rect5"
         width="16.933332"
         height="16.933332"
         x="-1.3333333e-06"
         y="-16.933336"
         inkscape:label="clip"
         transform="rotate(90)" /></clipPath><clipPath
       clipPathUnits="userSpaceOnUse"
       id="clipPath6"><rect
         style="fill:#100901;fill-opacity:1;stroke:none;stroke-width:0.79375;stroke-linejoin:round"
         id="rect6"
         width="16.933332"
         height="16.933332"
         x="-1.3333333e-06"
         y="-16.933336"
         inkscape:label="clip" /></clipPath></defs><g
     inkscape:label="Layer 1"
     inkscape:groupmode="layer"
     id="layer1"><rect
       style="fill:url(#radialGradient30);stroke:none;stroke-width:0.79375;stroke-linejoin:round"
       id="rect29"
       width="16.933332"
       height="16.933332"
       x="-1.3333333e-06"
       y="-16.933334"
       inkscape:label="bg"
       transform="rotate(90)"
       clip-path="url(#clipPath6)" /><path
       id="path27"
       style="fill:url(#radialGradient83);stroke:none;stroke-width:0.259;stroke-linejoin:round;stroke-opacity:1"
       d="m -2.1748734,-8.982921 0.851111,21.209559 -4.666898,-20.707264 -2.960026,0.7932336 6.311242,20.2638794 -9.8665806,-18.7911011 -2.654102,1.5322063 L -3.8192174,13.258099 -18.21317,-2.3393984 -20.379963,-0.1726057 -4.7824654,14.221348 -22.722972,2.880438 -24.255179,5.5345396 -5.4640784,15.401121 -25.727957,9.0898779 -26.52119,12.049904 -5.8139274,16.716803 -27.023485,15.865692 v 3.064412 l 21.2095576,-0.85111 -20.7072626,4.666898 0.793233,2.960026 20.2638786,-6.311242 -18.7911006,9.866581 1.532207,2.654101 17.9405066,-11.340909 -15.5974976,14.393953 2.166793,2.166793 14.3939526,-15.597498 -11.3409096,17.940507 2.654102,1.532206 9.8665806,-18.791101 -6.311242,20.26388 2.960026,0.793233 4.666898,-20.707263 -0.851111,21.209558 H 0.88953957 L 0.03842857,22.569159 4.7053276,43.276422 7.6653536,42.483189 1.3541106,22.219309 11.220692,41.01041 13.874794,39.478204 2.5338836,21.537697 16.927837,37.135195 19.09463,34.968402 3.4971326,20.574449 21.43764,31.915358 22.969846,29.261257 4.1787446,19.394676 24.442624,25.705918 25.235857,22.745892 4.5285936,18.078994 25.738152,18.930104 V 15.865692 L 4.5275606,16.71732 25.235857,12.049904 24.442624,9.0898779 4.1787446,15.401121 22.969846,5.5345396 21.43764,2.880438 3.4976486,14.220831 19.09463,-0.1726057 16.927837,-2.3393984 2.5344006,13.257582 13.874794,-4.6824078 11.220692,-6.2146141 1.3541106,12.576487 7.6653536,-7.6873924 4.7053276,-8.480626 0.03791157,12.227671 0.88953957,-8.982921 Z"
       clip-path="url(#clipPath5)"
       inkscape:label="rays"
       sodipodi:nodetypes="ccccccccccccccccccccccccccccccccccccccccccccccccccccccccccccccccccccccccc" /><path
       id="path1-1"
       style="color:#000000;display:inline;fill:#f7df21;fill-opacity:1;stroke:#000000;stroke-width:0.0891702;stroke-linecap:round;stroke-linejoin:round;stroke-opacity:1;-inkscape-stroke:none"
       d="M 11.489256,2.4563001 11.11171,2.8449158 C 10.267571,2.2017759 8.9511129,2.3879335 8.0061753,3.2482322 L 7.5860452,2.8129066 7.3721737,3.0341259 7.8056262,3.4466896 C 6.9339221,4.3892297 6.7434193,5.7084572 7.3912056,6.5530093 L 7.006523,6.9240796 7.3036589,7.220461 7.6695477,6.8410925 c 0.8144736,0.6763076 2.1124041,0.5342969 3.0719913,-0.275754 l 0.365651,0.38174 0.442493,-0.4090073 -0.40086,-0.384348 C 11.939467,5.200326 12.072736,3.9251799 11.400995,3.1218552 L 11.786392,2.7526819 Z M 9.5851124,2.7405895 C 10.062461,2.7324961 10.519463,2.864767 10.855493,3.1088144 L 10.561688,3.411598 9.3964579,4.8384992 10.824804,3.6738366 11.136452,3.3753209 c 0.503482,0.6331503 0.332492,1.6074532 -0.358038,2.4229811 l -0.049,-0.046947 -1.3329483,-0.9128561 0.9244753,1.28772 0.06519,0.068049 C 9.5615908,6.9047909 8.5668178,7.0859193 7.9233857,6.5776701 L 8.2278972,6.2620806 9.3964579,4.8384992 7.9650183,5.999842 7.6564641,6.2974095 C 7.1430072,5.5919623 7.1342555,4.345392 7.8734274,3.5109452 L 8.1957809,3.8177599 9.3964579,4.8384992 8.3753933,3.6306835 8.0704078,3.3146218 C 8.5089994,2.9288004 9.058993,2.7495087 9.5851124,2.7405895 Z"
       inkscape:label="marked"
       clip-path="url(#clipPath2)"
       transform="matrix(2.96717,0,0,2.96717,-19.482543,-5.9654353)" /><g
       id="g17"
       transform="matrix(2.4161161,0,0,2.4161161,32.710555,-5.0987931)"
       style="stroke-width:0.59375;stroke:none;stroke-opacity:1"
       clip-path="url(#clipPath1)"
       inkscape:label="skull"><path
         id="path2"
         style="display:inline;fill:#f7df21;fill-opacity:1;stroke:#000000;stroke-width:0.103472;stroke-linecap:round;stroke-linejoin:round;stroke-dasharray:none;stroke-dashoffset:0.6;stroke-opacity:1"
         d="m -10.034243,4.0622341 c -0.472755,0.025635 -1.281324,0.4348056 -1.039242,1.3554421 l -0.09123,0.1917356 0.04723,0.2533536 -0.09446,0.2704004 0.371235,0.3012093 0.212618,-0.044415 0.07754,0.6571554 0.185694,0.088987 0.330619,0.030809 0.330619,-0.030809 0.1856944,-0.088987 0.077539,-0.6571554 0.2126176,0.044415 0.3712346,-0.3012093 -0.094462,-0.2704004 0.047231,-0.2533536 -0.091232,-0.1917356 C -8.7529193,4.4970397 -9.5614881,4.087869 -10.034243,4.0622341 Z" /><path
         style="fill:#000000;fill-opacity:1;stroke:none;stroke-width:0.0821306;stroke-linecap:round;stroke-linejoin:round;stroke-dashoffset:0.6;stroke-opacity:1"
         d="m -9.7811376,5.382658 0.6444726,0.1275124 0.084359,0.1814205 -0.064113,0.2498808 -0.2631994,0.1266526 -0.2324548,-0.10282 -0.1629235,-0.2081599 z"
         id="path3"
         sodipodi:nodetypes="cccccccc" /><path
         id="path4"
         style="fill:#000000;fill-opacity:1;stroke:none;stroke-width:0.0821306;stroke-linecap:round;stroke-linejoin:round;stroke-dashoffset:0.6;stroke-opacity:1"
         d="m -10.034243,5.8080286 -0.290157,0.5647282 0.128155,0.1266768 0.162002,-0.1266768 0.162002,0.1266768 0.128155,-0.1266768 z" /><path
         style="fill:#000000;fill-opacity:1;stroke:none;stroke-width:0.0821306;stroke-linecap:round;stroke-linejoin:round;stroke-dashoffset:0.6;stroke-opacity:1"
         d="m -10.287349,5.382658 -0.644472,0.1275124 -0.08436,0.1814205 0.06411,0.2498808 0.2632,0.1266526 0.232454,-0.10282 0.162924,-0.2081599 z"
         id="path16"
         sodipodi:nodetypes="cccccccc" /></g></g></svg>
