<?xml version="1.0" encoding="UTF-8" standalone="no"?>
<!-- Created with Inkscape (http://www.inkscape.org/) -->

<svg
   width="64"
   height="64"
   viewBox="0 0 16.933333 16.933333"
   version="1.1"
   id="svg1"
   xml:space="preserve"
   inkscape:version="1.3.2 (091e20e, 2023-11-25, custom)"
   sodipodi:docname="heroic_act_pre-emptive-strikes.svg"
   xmlns:inkscape="http://www.inkscape.org/namespaces/inkscape"
   xmlns:sodipodi="http://sodipodi.sourceforge.net/DTD/sodipodi-0.dtd"
   xmlns:xlink="http://www.w3.org/1999/xlink"
   xmlns="http://www.w3.org/2000/svg"
   xmlns:svg="http://www.w3.org/2000/svg"><sodipodi:namedview
     id="namedview1"
     pagecolor="#505050"
     bordercolor="#eeeeee"
     borderopacity="1"
     inkscape:showpageshadow="0"
     inkscape:pageopacity="0"
     inkscape:pagecheckerboard="0"
     inkscape:deskcolor="#505050"
     inkscape:document-units="mm"
     inkscape:zoom="5.6568542"
     inkscape:cx="2.6516505"
     inkscape:cy="39.156038"
     inkscape:window-width="2560"
     inkscape:window-height="1369"
     inkscape:window-x="-8"
     inkscape:window-y="-8"
     inkscape:window-maximized="1"
     inkscape:current-layer="layer1"
     showgrid="false"><inkscape:grid
       id="grid157"
       units="mm"
       originx="0"
       originy="0"
       spacingx="0.99999998"
       spacingy="0.99999998"
       empcolor="#0099e5"
       empopacity="0.30196078"
       color="#0099e5"
       opacity="0.14901961"
       empspacing="5"
       dotted="false"
       gridanglex="30"
       gridanglez="30"
       visible="false" /></sodipodi:namedview><defs
     id="defs1"><linearGradient
       id="linearGradient20"
       inkscape:collect="always"><stop
         style="stop-color:#e99c08;stop-opacity:1;"
         offset="0"
         id="stop19" /><stop
         style="stop-color:#f7df21;stop-opacity:1;"
         offset="1"
         id="stop20" /></linearGradient><linearGradient
       id="linearGradient18"
       inkscape:collect="always"><stop
         style="stop-color:#e99c08;stop-opacity:1;"
         offset="0"
         id="stop17" /><stop
         style="stop-color:#f7df21;stop-opacity:1;"
         offset="1"
         id="stop18" /></linearGradient><linearGradient
       id="linearGradient1"
       inkscape:collect="always"><stop
         style="stop-color:#e99c08;stop-opacity:1;"
         offset="0"
         id="stop1" /><stop
         style="stop-color:#f7df21;stop-opacity:1;"
         offset="1"
         id="stop2" /></linearGradient><linearGradient
       id="linearGradient29"
       inkscape:collect="always"><stop
         style="stop-color:#f3ed5e;stop-opacity:1;"
         offset="0"
         id="stop29" /><stop
         style="stop-color:#915302;stop-opacity:1;"
         offset="1"
         id="stop30" /></linearGradient><radialGradient
       inkscape:collect="always"
       xlink:href="#linearGradient29"
       id="radialGradient30"
       cx="-12.72795"
       cy="39.706829"
       fx="-12.72795"
       fy="39.706829"
       r="8.4666662"
       gradientUnits="userSpaceOnUse"
       gradientTransform="matrix(0.02164842,0.99976565,-1.9843751,0.04296865,79.101857,20.047725)" /><radialGradient
       inkscape:collect="always"
       xlink:href="#linearGradient82"
       id="radialGradient83"
       cx="32.079735"
       cy="8.4437828"
       fx="32.079735"
       fy="8.4437828"
       r="26.380817"
       gradientUnits="userSpaceOnUse"
       gradientTransform="translate(-35.090365,0.59685615)" /><linearGradient
       id="linearGradient82"
       inkscape:collect="always"><stop
         style="stop-color:#f3ed5e;stop-opacity:1;"
         offset="0"
         id="stop82" /><stop
         style="stop-color:#4a3d0b;stop-opacity:1;"
         offset="0.97765958"
         id="stop83" /></linearGradient><linearGradient
       inkscape:collect="always"
       xlink:href="#linearGradient1"
       id="linearGradient2"
       x1="14.12403"
       y1="31.573435"
       x2="14.134588"
       y2="21.914982"
       gradientUnits="userSpaceOnUse" /><linearGradient
       inkscape:collect="always"
       xlink:href="#linearGradient20"
       id="linearGradient9"
       gradientUnits="userSpaceOnUse"
       x1="14.12403"
       y1="31.573435"
       x2="14.134588"
       y2="21.914982" /><linearGradient
       inkscape:collect="always"
       xlink:href="#linearGradient18"
       id="linearGradient16"
       gradientUnits="userSpaceOnUse"
       x1="14.12403"
       y1="31.573435"
       x2="14.134588"
       y2="21.914982" /></defs><g
     inkscape:label="Layer 1"
     inkscape:groupmode="layer"
     id="layer1"><rect
       style="fill:url(#radialGradient30);stroke:none;stroke-width:0.79375;stroke-linejoin:round"
       id="rect29"
       width="16.933332"
       height="16.933332"
       x="0"
       y="8.9009603e-07"
       inkscape:label="bg" /><path
       id="path27"
       style="fill:url(#radialGradient83);stroke:none;stroke-width:0.259;stroke-linejoin:round;stroke-opacity:1"
       d="m -4.1780403,-17.218077 0.851111,21.2095584 -4.666898,-20.7072634 -2.9600257,0.793233 6.3112417,20.2638794 -9.8665807,-18.7911004 -2.654102,1.532206 L -5.8223843,5.0229424 -20.216337,-10.574555 -22.38313,-8.407762 -6.7856323,5.9861914 -24.726139,-5.3547183 -26.258346,-2.7006167 -7.4672453,7.1659644 -27.731124,0.85472136 -28.524357,3.8147474 -7.8170943,8.4816464 -29.026652,7.6305354 v 3.0644116 l 21.2095577,-0.8511096 -20.7072627,4.6668976 0.793233,2.960026 20.2638787,-6.311242 -18.7911007,9.866581 1.532207,2.654101 17.9405067,-11.340909 -15.5974977,14.393953 2.166793,2.166793 14.3939527,-15.597498 -11.3409097,17.940507 2.654102,1.532206 9.8665807,-18.791101 -6.3112417,20.26388 2.9600257,0.793233 4.666898,-20.707263 -0.851111,21.209558 h 3.0644129 L -1.9647384,14.334002 2.7021609,35.041265 5.6621869,34.248032 -0.64905614,13.984152 9.2175249,32.775253 11.871627,31.243047 0.53071686,13.30254 14.92467,28.900038 17.091463,26.733245 1.4939659,12.339292 19.434473,23.680201 20.966679,21.0261 2.1755779,11.159519 22.439457,17.470761 23.23269,14.510735 2.5254269,9.8438374 23.734985,10.694947 V 7.6305354 L 2.5243939,8.4821634 23.23269,3.8147474 22.439457,0.85472136 2.1755779,7.1659644 20.966679,-2.7006167 19.434473,-5.3547183 1.4944819,5.9856744 17.091463,-8.407762 14.92467,-10.574555 0.53123386,5.0224254 11.871627,-12.917564 9.2175249,-14.44977 -0.64905614,4.3413304 5.6621869,-15.922549 2.7021609,-16.715782 -1.9652554,3.9925144 -1.1136274,-17.218077 Z"
       clip-path="none"
       inkscape:label="rays"
       sodipodi:nodetypes="ccccccccccccccccccccccccccccccccccccccccccccccccccccccccccccccccccccccccc" /><g
       id="g2"
       transform="translate(-1.4733233)"><g
         id="g5"
         transform="rotate(90,18.615339,12.987309)"><path
           style="color:#000000;fill:#ede731;fill-opacity:1;stroke-width:0.999998;-inkscape-stroke:none"
           d="M 14.129156,21.521484 14.018661,21.6875 c -0.467401,0.701739 -0.96706,1.434505 -0.978468,2.353516 v 0.002 11.016101 l 1.088963,3.04e-4 1.090417,-6.09e-4 v -11.015796 -0.002 C 15.208163,23.121921 14.707026,22.389199 14.239652,21.6875 Z m 0,0.617188 c 0.416025,0.634118 0.783599,1.250314 0.792369,1.90625 v 10.8125 h -0.792369 -0.79237 v -10.810547 -0.002 c 0.0088,-0.656012 0.376419,-1.272168 0.79237,-1.90625 z"
           id="path5"
           sodipodi:nodetypes="cccccccccccccccccccc" /><path
           style="color:#000000;fill:url(#linearGradient2);stroke-width:0.999998;-inkscape-stroke:none"
           d="m 14.129116,21.82089 c -0.467092,0.701276 -0.930353,1.403389 -0.940529,2.22312 v 11.014194 l 0.940529,-3.04e-4 0.940915,6.08e-4 V 24.04401 c -0.01018,-0.819731 -0.473822,-1.521844 -0.940915,-2.22312 z"
           id="path4"
           sodipodi:nodetypes="ccccccc" /><path
           style="fill:#766d22;fill-opacity:1;stroke:none;stroke-width:2"
           d="M 15.06992,35.057595 V 24.04401 c -0.01018,-0.819732 -0.473574,-1.521965 -0.940667,-2.223241 v 13.236522 z"
           id="path3"
           sodipodi:nodetypes="ccccc" /></g><path
         style="fill:none;fill-opacity:1;stroke:#f7df21;stroke-width:0.4;stroke-linecap:round;stroke-dasharray:none;stroke-opacity:1"
         d="M 9.7268055,6.7289949 12.914959,8.5696769 9.7268055,10.410358"
         id="path14"
         sodipodi:nodetypes="ccc" /><path
         style="fill:none;fill-opacity:1;stroke:#f7df21;stroke-width:0.4;stroke-linecap:round;stroke-dasharray:none;stroke-opacity:1"
         d="m 12.535083,6.7289949 3.188153,1.840682 -3.188153,1.8406811"
         id="path15"
         sodipodi:nodetypes="ccc" /></g><g
       id="g9"
       transform="rotate(-15,-11.012298,11.978578)"><g
         id="g7"
         transform="rotate(90,18.615339,12.987309)"><path
           style="color:#000000;fill:#ede731;fill-opacity:1;stroke-width:0.999998;-inkscape-stroke:none"
           d="M 14.129156,21.521484 14.018661,21.6875 c -0.467401,0.701739 -0.96706,1.434505 -0.978468,2.353516 v 0.002 11.016101 l 1.088963,3.04e-4 1.090417,-6.09e-4 v -11.015796 -0.002 C 15.208163,23.121921 14.707026,22.389199 14.239652,21.6875 Z m 0,0.617188 c 0.416025,0.634118 0.783599,1.250314 0.792369,1.90625 v 10.8125 h -0.792369 -0.79237 v -10.810547 -0.002 c 0.0088,-0.656012 0.376419,-1.272168 0.79237,-1.90625 z"
           id="path2"
           sodipodi:nodetypes="cccccccccccccccccccc" /><path
           style="color:#000000;fill:url(#linearGradient9);stroke-width:0.999998;-inkscape-stroke:none"
           d="m 14.129116,21.82089 c -0.467092,0.701276 -0.930353,1.403389 -0.940529,2.22312 v 11.014194 l 0.940529,-3.04e-4 0.940915,6.08e-4 V 24.04401 c -0.01018,-0.819731 -0.473822,-1.521844 -0.940915,-2.22312 z"
           id="path6"
           sodipodi:nodetypes="ccccccc" /><path
           style="fill:#766d22;fill-opacity:1;stroke:none;stroke-width:2"
           d="M 15.06992,35.057595 V 24.04401 c -0.01018,-0.819732 -0.473574,-1.521965 -0.940667,-2.223241 v 13.236522 z"
           id="path7"
           sodipodi:nodetypes="ccccc" /></g><path
         style="fill:none;fill-opacity:1;stroke:#f7df21;stroke-width:0.4;stroke-linecap:round;stroke-dasharray:none;stroke-opacity:1"
         d="M 9.7268055,6.7289949 12.914959,8.5696769 9.7268055,10.410358"
         id="path8"
         sodipodi:nodetypes="ccc" /><path
         style="fill:none;fill-opacity:1;stroke:#f7df21;stroke-width:0.4;stroke-linecap:round;stroke-dasharray:none;stroke-opacity:1"
         d="m 12.535083,6.7289949 3.188153,1.840682 -3.188153,1.8406811"
         id="path9"
         sodipodi:nodetypes="ccc" /></g><g
       id="g16"
       transform="rotate(15,-10.745845,5.1256953)"><g
         id="g12"
         transform="rotate(90,18.615339,12.987309)"><path
           style="color:#000000;fill:#ede731;fill-opacity:1;stroke-width:0.999998;-inkscape-stroke:none"
           d="M 14.129156,21.521484 14.018661,21.6875 c -0.467401,0.701739 -0.96706,1.434505 -0.978468,2.353516 v 0.002 11.016101 l 1.088963,3.04e-4 1.090417,-6.09e-4 v -11.015796 -0.002 C 15.208163,23.121921 14.707026,22.389199 14.239652,21.6875 Z m 0,0.617188 c 0.416025,0.634118 0.783599,1.250314 0.792369,1.90625 v 10.8125 h -0.792369 -0.79237 v -10.810547 -0.002 c 0.0088,-0.656012 0.376419,-1.272168 0.79237,-1.90625 z"
           id="path10"
           sodipodi:nodetypes="cccccccccccccccccccc" /><path
           style="color:#000000;fill:url(#linearGradient16);stroke-width:0.999998;-inkscape-stroke:none"
           d="m 14.129116,21.82089 c -0.467092,0.701276 -0.930353,1.403389 -0.940529,2.22312 v 11.014194 l 0.940529,-3.04e-4 0.940915,6.08e-4 V 24.04401 c -0.01018,-0.819731 -0.473822,-1.521844 -0.940915,-2.22312 z"
           id="path11"
           sodipodi:nodetypes="ccccccc" /><path
           style="fill:#766d22;fill-opacity:1;stroke:none;stroke-width:2"
           d="M 15.06992,35.057595 V 24.04401 c -0.01018,-0.819732 -0.473574,-1.521965 -0.940667,-2.223241 v 13.236522 z"
           id="path12"
           sodipodi:nodetypes="ccccc" /></g><path
         style="fill:none;fill-opacity:1;stroke:#f7df21;stroke-width:0.4;stroke-linecap:round;stroke-dasharray:none;stroke-opacity:1"
         d="M 9.7268055,6.7289949 12.914959,8.5696769 9.7268055,10.410358"
         id="path13"
         sodipodi:nodetypes="ccc" /><path
         style="fill:none;fill-opacity:1;stroke:#f7df21;stroke-width:0.4;stroke-linecap:round;stroke-dasharray:none;stroke-opacity:1"
         d="m 12.535083,6.7289949 3.188153,1.840682 -3.188153,1.8406811"
         id="path16"
         sodipodi:nodetypes="ccc" /></g></g></svg>
