<?xml version="1.0" encoding="UTF-8" standalone="no"?>
<!-- Created with Inkscape (http://www.inkscape.org/) -->

<svg
   width="64"
   height="64"
   viewBox="0 0 16.933333 16.933333"
   version="1.1"
   id="svg1"
   xml:space="preserve"
   inkscape:version="1.3.2 (091e20e, 2023-11-25, custom)"
   sodipodi:docname="heroic_act_unyielding.svg"
   xmlns:inkscape="http://www.inkscape.org/namespaces/inkscape"
   xmlns:sodipodi="http://sodipodi.sourceforge.net/DTD/sodipodi-0.dtd"
   xmlns:xlink="http://www.w3.org/1999/xlink"
   xmlns="http://www.w3.org/2000/svg"
   xmlns:svg="http://www.w3.org/2000/svg"><sodipodi:namedview
     id="namedview1"
     pagecolor="#505050"
     bordercolor="#eeeeee"
     borderopacity="1"
     inkscape:showpageshadow="0"
     inkscape:pageopacity="0"
     inkscape:pagecheckerboard="0"
     inkscape:deskcolor="#505050"
     inkscape:document-units="mm"
     inkscape:zoom="8.0000004"
     inkscape:cx="13.999999"
     inkscape:cy="48.937498"
     inkscape:window-width="2560"
     inkscape:window-height="1369"
     inkscape:window-x="-8"
     inkscape:window-y="-8"
     inkscape:window-maximized="1"
     inkscape:current-layer="layer1"
     showgrid="false"><inkscape:grid
       id="grid157"
       units="mm"
       originx="0"
       originy="0"
       spacingx="0.99999998"
       spacingy="0.99999998"
       empcolor="#0099e5"
       empopacity="0.30196078"
       color="#0099e5"
       opacity="0.14901961"
       empspacing="5"
       dotted="false"
       gridanglex="30"
       gridanglez="30"
       visible="false" /></sodipodi:namedview><defs
     id="defs1"><linearGradient
       id="linearGradient4"
       inkscape:collect="always"><stop
         style="stop-color:#000000;stop-opacity:0;"
         offset="0.78404254"
         id="stop4" /><stop
         style="stop-color:#000000;stop-opacity:0.40000001;"
         offset="1"
         id="stop5" /></linearGradient><linearGradient
       id="linearGradient27"
       inkscape:collect="always"><stop
         style="stop-color:#f7df21;stop-opacity:1;"
         offset="0"
         id="stop27" /><stop
         style="stop-color:#766d22;stop-opacity:1;"
         offset="1"
         id="stop28" /></linearGradient><linearGradient
       id="linearGradient29"
       inkscape:collect="always"><stop
         style="stop-color:#f3ed5e;stop-opacity:1;"
         offset="0"
         id="stop29" /><stop
         style="stop-color:#915302;stop-opacity:1;"
         offset="1"
         id="stop30" /></linearGradient><radialGradient
       inkscape:collect="always"
       xlink:href="#linearGradient29"
       id="radialGradient30"
       cx="-4.2943563"
       cy="43.659042"
       fx="-4.2943563"
       fy="43.659042"
       r="8.4666662"
       gradientUnits="userSpaceOnUse"
       gradientTransform="matrix(1,0,0,1.9999998,12.761023,-70.384744)" /><radialGradient
       inkscape:collect="always"
       xlink:href="#linearGradient82"
       id="radialGradient83"
       cx="45.012238"
       cy="18.289324"
       fx="45.012238"
       fy="18.289324"
       r="26.380817"
       gradientUnits="userSpaceOnUse"
       gradientTransform="translate(-35.090365,0.59685615)" /><linearGradient
       id="linearGradient82"
       inkscape:collect="always"><stop
         style="stop-color:#f3ed5e;stop-opacity:1;"
         offset="0"
         id="stop82" /><stop
         style="stop-color:#9b8117;stop-opacity:1;"
         offset="0.77978724"
         id="stop83" /></linearGradient><linearGradient
       id="linearGradient20"
       inkscape:collect="always"><stop
         style="stop-color:#b2aa18;stop-opacity:1;"
         offset="0"
         id="stop20" /><stop
         style="stop-color:#f7df21;stop-opacity:1;"
         offset="1"
         id="stop21" /></linearGradient><linearGradient
       inkscape:collect="always"
       xlink:href="#linearGradient20"
       id="linearGradient23"
       x1="7.4093494"
       y1="16.90694"
       x2="7.2402711"
       y2="8.5560284"
       gradientUnits="userSpaceOnUse"
       gradientTransform="translate(28.508855,3.0427079)" /><linearGradient
       inkscape:collect="always"
       xlink:href="#linearGradient37"
       id="linearGradient78"
       gradientUnits="userSpaceOnUse"
       gradientTransform="translate(77.684554,19.84375)"
       x1="-38.7103"
       y1="39.726604"
       x2="-38.698566"
       y2="33.790016" /><linearGradient
       id="linearGradient37"
       inkscape:collect="always"><stop
         style="stop-color:#755903;stop-opacity:1;"
         offset="0.38829789"
         id="stop37" /><stop
         style="stop-color:#755903;stop-opacity:0;"
         offset="0.74680853"
         id="stop38" /></linearGradient><clipPath
       clipPathUnits="userSpaceOnUse"
       id="clipPath27"><rect
         style="fill:url(#radialGradient28);stroke:none;stroke-width:0.79375;stroke-linejoin:round"
         id="rect28"
         width="16.933332"
         height="16.933332"
         x="0"
         y="8.9009603e-07"
         inkscape:label="bg" /></clipPath><radialGradient
       inkscape:collect="always"
       xlink:href="#linearGradient29"
       id="radialGradient28"
       gradientUnits="userSpaceOnUse"
       gradientTransform="matrix(1,0,0,1.9999998,12.761023,-70.384744)"
       cx="-4.2943563"
       cy="43.659042"
       fx="-4.2943563"
       fy="43.659042"
       r="8.4666662" /><clipPath
       clipPathUnits="userSpaceOnUse"
       id="clipPath2"><g
         id="g3"
         style="stroke-width:0.999999"><rect
           style="fill:url(#radialGradient3);stroke:none;stroke-width:0.79375;stroke-linejoin:round"
           id="rect2"
           width="16.933332"
           height="16.933332"
           x="28.508856"
           y="3.0427089"
           inkscape:label="bg" /></g></clipPath><radialGradient
       inkscape:collect="always"
       xlink:href="#linearGradient29"
       id="radialGradient3"
       gradientUnits="userSpaceOnUse"
       gradientTransform="matrix(1,0,0,1.9999998,41.269878,-67.342036)"
       cx="-4.2943563"
       cy="43.659042"
       fx="-4.2943563"
       fy="43.659042"
       r="8.4666662" /><linearGradient
       inkscape:collect="always"
       xlink:href="#linearGradient20"
       id="linearGradient5"
       gradientUnits="userSpaceOnUse"
       gradientTransform="translate(28.508855,3.0427079)"
       x1="7.4093494"
       y1="16.90694"
       x2="7.2402711"
       y2="8.5560284" /><linearGradient
       inkscape:collect="always"
       xlink:href="#linearGradient27"
       id="linearGradient28"
       x1="8.4957857"
       y1="7.310183"
       x2="8.5036945"
       y2="16.967474"
       gradientUnits="userSpaceOnUse" /><radialGradient
       inkscape:collect="always"
       xlink:href="#linearGradient4"
       id="radialGradient5"
       cx="8.4666662"
       cy="16.86227"
       fx="8.4666662"
       fy="16.86227"
       r="8.4666662"
       gradientUnits="userSpaceOnUse"
       gradientTransform="matrix(1.4996094,-0.00853233,0.0116266,2.0434435,-4.4260762,-17.522589)" /></defs><g
     inkscape:label="Layer 1"
     inkscape:groupmode="layer"
     id="layer1"><rect
       style="fill:url(#radialGradient30);stroke:none;stroke-width:0.79375;stroke-linejoin:round"
       id="rect29"
       width="16.933332"
       height="16.933332"
       x="0"
       y="8.9009603e-07"
       inkscape:label="bg" /><path
       id="path27"
       style="fill:url(#radialGradient83);stroke:none;stroke-width:0.259;stroke-linejoin:round;stroke-opacity:1"
       d="M 6.9344598,-5.9071397 7.7855708,15.302419 3.1186728,-5.4048447 0.15864677,-4.6116111 6.4698888,15.652268 -3.3966918,-3.1388328 -6.0507938,-1.6066265 5.2901158,16.33388 -9.1038368,0.73638285 -11.27063,2.9031756 4.3268678,17.297129 -13.613639,5.9562193 -15.145846,8.6103209 3.6452548,18.476902 -16.618624,12.165659 -17.411857,15.125685 3.2954058,19.792584 -17.914152,18.941473 v 3.064412 l 21.2095578,-0.85111 -20.7072628,4.666898 0.793233,2.960026 20.2638788,-6.311242 -18.7911008,9.866581 1.532207,2.654101 L 4.3268678,23.65023 -11.27063,38.044183 -9.1038368,40.210976 5.2901158,24.613478 -6.0507938,42.553985 -3.3966918,44.086191 6.4698888,25.29509 0.15864677,45.55897 3.1186728,46.352203 7.7855708,25.64494 6.9344598,46.854498 H 9.9988727 L 9.1477617,25.64494 13.814661,46.352203 16.774687,45.55897 10.463444,25.29509 20.330025,44.086191 22.984127,42.553985 11.643217,24.613478 26.03717,40.210976 28.203963,38.044183 12.606466,23.65023 30.546973,34.991139 32.079179,32.337038 13.288078,22.470457 33.551957,28.781699 34.34519,25.821673 13.637927,21.154775 34.847485,22.005885 V 18.941473 L 13.636894,19.793101 34.34519,15.125685 33.551957,12.165659 13.288078,18.476902 32.079179,8.6103209 30.546973,5.9562193 12.606982,17.296612 28.203963,2.9031756 26.03717,0.73638285 11.643734,16.333363 22.984127,-1.6066265 20.330025,-3.1388328 10.463444,15.652268 16.774687,-4.6116111 13.814661,-5.4048447 9.1472447,15.303452 9.9988727,-5.9071397 Z"
       clip-path="none"
       inkscape:label="rays"
       sodipodi:nodetypes="ccccccccccccccccccccccccccccccccccccccccccccccccccccccccccccccccccccccccc" /><g
       id="g5"
       transform="translate(0,1.7305701)"
       clip-path="none"><g
         id="g79"
         transform="matrix(0.42898558,0,0,0.4314113,-8.2343497,-15.53478)"
         inkscape:label="crest"
         style="stroke-width:1.8837"
         clip-path="none"><circle
           style="display:inline;fill:none;fill-opacity:1;stroke:#ede731;stroke-width:1.5369;stroke-linecap:round;stroke-linejoin:round;stroke-dasharray:none;stroke-opacity:1"
           id="circle34"
           cx="38.929523"
           cy="53.502892"
           r="5.5637012" /><g
           id="g36"
           transform="rotate(-60,17.188546,-23.887154)"
           style="stroke-width:1.8837"><path
             id="path35"
             style="display:inline;fill:#ede731;fill-opacity:1;stroke:none;stroke-width:1.49519;stroke-linecap:round;stroke-linejoin:round"
             d="m -38.860677,23.498306 -1.719792,4.362522 1.719792,0.70265 1.719792,-0.70265 z"
             sodipodi:nodetypes="ccccc" /><path
             id="path36"
             style="display:inline;fill:#755903;fill-opacity:1;stroke:none;stroke-width:1.49519;stroke-linecap:round;stroke-linejoin:round"
             d="m -38.860677,24.094652 -1.415773,3.848921 1.415773,0.620058 z" /></g><g
           id="g54"
           transform="matrix(-0.5,-0.8660254,-0.8660254,0.5,48.581678,2.942141)"
           style="stroke-width:1.8837"><path
             id="path53"
             style="display:inline;fill:#ede731;fill-opacity:1;stroke:none;stroke-width:1.49519;stroke-linecap:round;stroke-linejoin:round"
             d="m -38.860677,23.498306 -1.719792,4.362522 1.719792,0.70265 1.719792,-0.70265 z"
             sodipodi:nodetypes="ccccc" /><path
             id="path54"
             style="display:inline;fill:#755903;fill-opacity:1;stroke:none;stroke-width:1.49519;stroke-linecap:round;stroke-linejoin:round"
             d="m -38.860677,24.094652 -1.415773,3.848921 1.415773,0.620058 z" /></g><g
           id="g56"
           transform="translate(77.7902,19.859253)"
           style="stroke-width:1.8837"><path
             id="path55"
             style="display:inline;fill:#ede731;fill-opacity:1;stroke:none;stroke-width:1.49519;stroke-linecap:round;stroke-linejoin:round"
             d="m -38.860677,23.498306 -1.719792,4.362522 1.719792,0.70265 1.719792,-0.70265 z"
             sodipodi:nodetypes="ccccc" /><path
             id="path56"
             style="display:inline;fill:#755903;fill-opacity:1;stroke:none;stroke-width:1.49519;stroke-linecap:round;stroke-linejoin:round"
             d="m -38.860677,24.094652 -1.415773,3.848921 1.415773,0.620058 z" /></g><g
           id="g58"
           transform="matrix(0.53240867,-0.30738629,0.30738629,0.53240867,48.092921,21.584607)"
           style="stroke-width:3.06407"><path
             id="path57"
             style="display:inline;fill:#ede731;fill-opacity:1;stroke:none;stroke-width:2.43211;stroke-linecap:round;stroke-linejoin:round"
             d="m -38.860677,23.498306 -1.719792,4.362522 1.719792,0.70265 1.719792,-0.70265 z"
             sodipodi:nodetypes="ccccc" /><path
             id="path58"
             style="display:inline;fill:#755903;fill-opacity:1;stroke:none;stroke-width:2.43211;stroke-linecap:round;stroke-linejoin:round"
             d="m -38.860677,24.094652 -1.415773,3.848921 1.415773,0.620058 z" /></g><g
           id="g60"
           transform="matrix(-0.53240867,-0.30738629,-0.30738629,0.53240867,29.766123,21.584607)"
           style="stroke-width:3.06407"><path
             id="path59"
             style="display:inline;fill:#ede731;fill-opacity:1;stroke:none;stroke-width:2.43211;stroke-linecap:round;stroke-linejoin:round"
             d="m -38.860677,23.498306 -1.719792,4.362522 1.719792,0.70265 1.719792,-0.70265 z"
             sodipodi:nodetypes="ccccc" /><path
             id="path60"
             style="display:inline;fill:#755903;fill-opacity:1;stroke:none;stroke-width:2.43211;stroke-linecap:round;stroke-linejoin:round"
             d="m -38.860677,24.094652 -1.415773,3.848921 1.415773,0.620058 z" /></g><path
           id="path61"
           style="color:#000000;fill:url(#linearGradient78);stroke:none;stroke-width:1.8837;stroke-linecap:round;stroke-linejoin:round;-inkscape-stroke:none"
           d="m 32.872302,53.590011 c 0.03297,2.294152 1.3485,4.283846 3.259233,5.284948 l -0.0016,0.0016 c 0.590886,0.309358 1.565452,0.68794 2.800579,0.68794 1.243492,0 2.224983,-0.386606 2.800578,-0.68794 l -0.0016,-0.0016 c 1.910733,-1.001102 3.226261,-2.990796 3.259232,-5.284948 l -1.122412,1.056266 c -0.361496,1.572225 -1.451692,2.861856 -2.897497,3.496944 -0.748807,0.328445 -1.459603,0.42608 -2.038383,0.42608 -0.82239,0 -1.510881,-0.194768 -2.038384,-0.42613 -1.445805,-0.635088 -2.536002,-1.924719 -2.897498,-3.496944 z"
           sodipodi:nodetypes="ccccccccccccc" /><g
           id="g64"
           transform="rotate(-60,17.188546,-23.887154)"
           style="stroke-width:1.8837"><path
             id="path63"
             style="display:inline;fill:#ede731;fill-opacity:1;stroke:none;stroke-width:1.49519;stroke-linecap:round;stroke-linejoin:round"
             d="m -38.860677,23.498306 -1.719792,4.362522 1.719792,0.70265 1.719792,-0.70265 z"
             sodipodi:nodetypes="ccccc" /><path
             id="path64"
             style="display:inline;fill:#755903;fill-opacity:1;stroke:none;stroke-width:1.49519;stroke-linecap:round;stroke-linejoin:round"
             d="m -38.860677,24.094652 -1.415773,3.848921 1.415773,0.620058 z" /></g><g
           id="g66"
           transform="matrix(-0.5,-0.8660254,-0.8660254,0.5,48.581678,2.942141)"
           style="stroke-width:1.8837"><path
             id="path65"
             style="display:inline;fill:#ede731;fill-opacity:1;stroke:none;stroke-width:1.49519;stroke-linecap:round;stroke-linejoin:round"
             d="m -38.860677,23.498306 -1.719792,4.362522 1.719792,0.70265 1.719792,-0.70265 z"
             sodipodi:nodetypes="ccccc" /><path
             id="path66"
             style="display:inline;fill:#755903;fill-opacity:1;stroke:none;stroke-width:1.49519;stroke-linecap:round;stroke-linejoin:round"
             d="m -38.860677,24.094652 -1.415773,3.848921 1.415773,0.620058 z" /></g><g
           id="g68"
           transform="translate(77.7902,19.859253)"
           style="stroke-width:1.8837"><path
             id="path67"
             style="display:inline;fill:#ede731;fill-opacity:1;stroke:none;stroke-width:1.49519;stroke-linecap:round;stroke-linejoin:round"
             d="m -38.860677,23.498306 -1.719792,4.362522 1.719792,0.70265 1.719792,-0.70265 z"
             sodipodi:nodetypes="ccccc" /><path
             id="path68"
             style="display:inline;fill:#755903;fill-opacity:1;stroke:none;stroke-width:1.49519;stroke-linecap:round;stroke-linejoin:round"
             d="m -38.860677,24.094652 -1.415773,3.848921 1.415773,0.620058 z" /></g><g
           id="g70"
           transform="matrix(0.53240867,-0.30738629,0.30738629,0.53240867,48.092921,21.584607)"
           style="stroke-width:3.06407"><path
             id="path69"
             style="display:inline;fill:#ede731;fill-opacity:1;stroke:none;stroke-width:2.43211;stroke-linecap:round;stroke-linejoin:round"
             d="m -38.860677,23.498306 -1.719792,4.362522 1.719792,0.70265 1.719792,-0.70265 z"
             sodipodi:nodetypes="ccccc" /><path
             id="path70"
             style="display:inline;fill:#755903;fill-opacity:1;stroke:none;stroke-width:2.43211;stroke-linecap:round;stroke-linejoin:round"
             d="m -38.860677,24.094652 -1.415773,3.848921 1.415773,0.620058 z" /></g><g
           id="g72"
           transform="matrix(-0.53240867,-0.30738629,-0.30738629,0.53240867,29.766123,21.584607)"
           style="stroke-width:3.06407"><path
             id="path71"
             style="display:inline;fill:#ede731;fill-opacity:1;stroke:none;stroke-width:2.43211;stroke-linecap:round;stroke-linejoin:round"
             d="m -38.860677,23.498306 -1.719792,4.362522 1.719792,0.70265 1.719792,-0.70265 z"
             sodipodi:nodetypes="ccccc" /><path
             id="path72"
             style="display:inline;fill:#755903;fill-opacity:1;stroke:none;stroke-width:2.43211;stroke-linecap:round;stroke-linejoin:round"
             d="m -38.860677,24.094652 -1.415773,3.848921 1.415773,0.620058 z" /></g></g><g
         id="g21"
         transform="matrix(1.4499311,0,0,1.4499311,-3.8094164,-1.5619868)"><path
           id="path6"
           style="color:#000000;fill:url(#linearGradient28);stroke:#000000;stroke-width:0.15;stroke-dasharray:none;stroke-opacity:1"
           d="M 8.018873,7.130546 7.9882329,7.2733274 7.8199924,7.4848859 7.0203715,7.8384004 4.9201792,9.415048 5.7811366,10.33116 7.0099762,9.3316899 7.2244485,10.831307 6.765959,12.966425 h 0.1315829 l -0.5380957,5.477687 h -0.00275 c -0.8635597,0.223585 -0.9486905,0.488594 -0.9952172,0.67099 l 0.0093,0.08253 h 1.109019 l 0.017506,-0.08253 h 0.1510061 l 0.053618,0.08253 h 0.5028065 l 1.1144907,-6.231209 h 0.2853248 l 1.1144906,6.231209 h 0.5028073 l 0.05362,-0.08253 h 0.151007 l 0.01751,0.08253 h 1.10902 l 0.0093,-0.08253 c -0.04653,-0.182396 -0.131657,-0.447404 -0.995218,-0.67099 h -0.0028 l -0.538058,-5.477687 h 0.132405 L 9.7001837,10.831032 9.9146561,9.3316899 11.143496,10.33116 12.012722,9.415048 9.9042606,7.8384004 9.1046399,7.4848859 8.9366731,7.2738776 8.9060339,7.130546 H 8.8228714 8.1017626 Z"
           sodipodi:nodetypes="ccccccccccccccccccccccccccccccccccccccccccc" /><path
           id="path17"
           style="fill:#f7df21;fill-opacity:1;stroke:#000000;stroke-width:0.282556;stroke-linejoin:round;stroke-dasharray:none;stroke-opacity:1"
           d="m 35.811401,8.0359518 c -0.699091,0.069562 -1.089829,0.4573536 -1.304887,1.0265634 v 2.1668078 l 1.044204,0.809491 h 0.260683 0.261174 l 1.044202,-0.809491 V 9.0625152 C 36.90172,8.4933054 36.510491,8.1055143 35.811401,8.0359518 Z"
           clip-path="none"
           transform="matrix(0.52937426,0,0,0.53236763,-10.491097,0.97609156)" /><path
           style="fill:url(#linearGradient23);stroke:#000000;stroke-width:0.282556;stroke-linejoin:round;stroke-dasharray:none;stroke-opacity:1"
           d="m 31.066536,16.992288 c -0.337261,1.120127 -1.900325,0.965785 -2.28931,-0.01568 l 0.533127,-4.954948 -0.360645,-0.627208 0.203843,-1.348498 c 0.609124,-0.069282 1.178043,-0.0079 1.662101,0.329284 l -0.09408,1.865944 z"
           id="path3"
           sodipodi:nodetypes="cccccccc"
           clip-path="none"
           transform="matrix(0.52937426,0,0,0.53236763,-10.431627,0.97609156)" /><path
           style="fill:url(#linearGradient5);stroke:#000000;stroke-width:0.282556;stroke-linejoin:round;stroke-dasharray:none;stroke-opacity:1"
           d="m 31.066536,16.992288 c -0.337261,1.120127 -1.900325,0.965785 -2.28931,-0.01568 l 0.533127,-4.954948 -0.360645,-0.627208 0.203843,-1.348498 c 0.609124,-0.069282 1.178043,-0.0079 1.662101,0.329284 l -0.09408,1.865944 z"
           id="path5"
           sodipodi:nodetypes="cccccccc"
           clip-path="none"
           transform="matrix(-0.52937426,0,0,0.53236763,27.36496,0.97609156)" /></g><g
         id="g30"
         transform="matrix(-0.58570375,-0.58570375,0.40359921,-0.40359922,12.327948,23.756122)"
         style="stroke-width:1.752"><path
           style="color:#000000;fill:#ede731;fill-opacity:1;stroke-width:1.752;-inkscape-stroke:none"
           d="M 14.129156,21.521484 14.018661,21.6875 c -0.467401,0.701739 -0.96706,1.434505 -0.978468,2.353516 v 0.002 11.016101 l 1.088963,3.04e-4 1.090417,-6.09e-4 v -11.015796 -0.002 C 15.208163,23.121921 14.707026,22.389199 14.239652,21.6875 Z m 0,0.617188 c 0.416025,0.634118 0.783599,1.250314 0.792369,1.90625 v 10.8125 h -0.792369 -0.79237 v -10.810547 -0.002 c 0.0088,-0.656012 0.376419,-1.272168 0.79237,-1.90625 z"
           id="path28"
           sodipodi:nodetypes="cccccccccccccccccccc" /><path
           style="color:#000000;fill:#f7df21;stroke-width:1.752;-inkscape-stroke:none"
           d="m 14.129116,21.82089 c -0.467092,0.701276 -0.930353,1.403389 -0.940529,2.22312 v 11.014194 l 0.940529,-3.04e-4 0.940915,6.08e-4 V 24.04401 c -0.01018,-0.819731 -0.473822,-1.521844 -0.940915,-2.22312 z"
           id="path29"
           sodipodi:nodetypes="ccccccc" /><path
           style="fill:#766d22;fill-opacity:1;stroke:none;stroke-width:3.504"
           d="M 15.06992,35.057595 V 24.04401 c -0.01018,-0.819732 -0.473574,-1.521965 -0.940667,-2.223241 v 13.236522 z"
           id="path30"
           sodipodi:nodetypes="ccccc" /></g><g
         id="g33"
         transform="matrix(-0.58570375,0.58570375,-0.40359922,-0.40359921,21.157113,6.9678053)"
         style="stroke-width:1.752"><path
           style="color:#000000;fill:#ede731;fill-opacity:1;stroke-width:1.752;-inkscape-stroke:none"
           d="M 14.129156,21.521484 14.018661,21.6875 c -0.467401,0.701739 -0.96706,1.434505 -0.978468,2.353516 v 0.002 11.016101 l 1.088963,3.04e-4 1.090417,-6.09e-4 v -11.015796 -0.002 C 15.208163,23.121921 14.707026,22.389199 14.239652,21.6875 Z m 0,0.617188 c 0.416025,0.634118 0.783599,1.250314 0.792369,1.90625 v 10.8125 h -0.792369 -0.79237 v -10.810547 -0.002 c 0.0088,-0.656012 0.376419,-1.272168 0.79237,-1.90625 z"
           id="path31"
           sodipodi:nodetypes="cccccccccccccccccccc" /><path
           style="color:#000000;fill:#f7df21;stroke-width:1.752;-inkscape-stroke:none"
           d="m 14.129116,21.82089 c -0.467092,0.701276 -0.930353,1.403389 -0.940529,2.22312 v 11.014194 l 0.940529,-3.04e-4 0.940915,6.08e-4 V 24.04401 c -0.01018,-0.819731 -0.473822,-1.521844 -0.940915,-2.22312 z"
           id="path32"
           sodipodi:nodetypes="ccccccc" /><path
           style="fill:#766d22;fill-opacity:1;stroke:none;stroke-width:3.504"
           d="M 15.06992,35.057595 V 24.04401 c -0.01018,-0.819732 -0.473574,-1.521965 -0.940667,-2.223241 v 13.236522 z"
           id="path33"
           sodipodi:nodetypes="ccccc" /></g><g
         id="g14"
         transform="matrix(-0.8000862,-0.21438245,0.14772756,-0.55132678,19.127863,18.743933)"
         style="stroke-width:1.752"><path
           style="color:#000000;fill:#ede731;fill-opacity:1;stroke-width:1.752;-inkscape-stroke:none"
           d="M 14.129156,21.521484 14.018661,21.6875 c -0.467401,0.701739 -0.96706,1.434505 -0.978468,2.353516 v 0.002 11.016101 l 1.088963,3.04e-4 1.090417,-6.09e-4 v -11.015796 -0.002 C 15.208163,23.121921 14.707026,22.389199 14.239652,21.6875 Z m 0,0.617188 c 0.416025,0.634118 0.783599,1.250314 0.792369,1.90625 v 10.8125 h -0.792369 -0.79237 v -10.810547 -0.002 c 0.0088,-0.656012 0.376419,-1.272168 0.79237,-1.90625 z"
           id="path12"
           sodipodi:nodetypes="cccccccccccccccccccc" /><path
           style="color:#000000;fill:#f7df21;stroke-width:1.752;-inkscape-stroke:none"
           d="m 14.129116,21.82089 c -0.467092,0.701276 -0.930353,1.403389 -0.940529,2.22312 v 11.014194 l 0.940529,-3.04e-4 0.940915,6.08e-4 V 24.04401 c -0.01018,-0.819731 -0.473822,-1.521844 -0.940915,-2.22312 z"
           id="path13"
           sodipodi:nodetypes="ccccccc" /><path
           style="fill:#766d22;fill-opacity:1;stroke:none;stroke-width:3.504"
           d="M 15.06992,35.057595 V 24.04401 c -0.01018,-0.819732 -0.473574,-1.521965 -0.940667,-2.223241 v 13.236522 z"
           id="path14"
           sodipodi:nodetypes="ccccc" /></g><g
         id="g38"
         transform="matrix(-0.8000862,0.21438245,-0.14772757,-0.55132678,20.415674,12.685768)"
         style="stroke-width:1.752"><path
           style="color:#000000;fill:#ede731;fill-opacity:1;stroke-width:1.752;-inkscape-stroke:none"
           d="M 14.129156,21.521484 14.018661,21.6875 c -0.467401,0.701739 -0.96706,1.434505 -0.978468,2.353516 v 0.002 11.016101 l 1.088963,3.04e-4 1.090417,-6.09e-4 v -11.015796 -0.002 C 15.208163,23.121921 14.707026,22.389199 14.239652,21.6875 Z m 0,0.617188 c 0.416025,0.634118 0.783599,1.250314 0.792369,1.90625 v 10.8125 h -0.792369 -0.79237 v -10.810547 -0.002 c 0.0088,-0.656012 0.376419,-1.272168 0.79237,-1.90625 z"
           id="path34"
           sodipodi:nodetypes="cccccccccccccccccccc" /><path
           style="color:#000000;fill:#f7df21;stroke-width:1.752;-inkscape-stroke:none"
           d="m 14.129116,21.82089 c -0.467092,0.701276 -0.930353,1.403389 -0.940529,2.22312 v 11.014194 l 0.940529,-3.04e-4 0.940915,6.08e-4 V 24.04401 c -0.01018,-0.819731 -0.473822,-1.521844 -0.940915,-2.22312 z"
           id="path37"
           sodipodi:nodetypes="ccccccc" /><path
           style="fill:#766d22;fill-opacity:1;stroke:none;stroke-width:3.504"
           d="M 15.06992,35.057595 V 24.04401 c -0.01018,-0.819732 -0.473574,-1.521965 -0.940667,-2.223241 v 13.236522 z"
           id="path38"
           sodipodi:nodetypes="ccccc" /></g></g><rect
       style="display:none;fill:url(#radialGradient5);stroke:none;stroke-width:0.2"
       id="rect4"
       width="16.933332"
       height="16.933332"
       x="0"
       y="0" /></g></svg>
