<?xml version="1.0" encoding="UTF-8" standalone="no"?>
<!-- Created with Inkscape (http://www.inkscape.org/) -->

<svg
   width="64"
   height="64"
   viewBox="0 0 16.933333 16.933333"
   version="1.1"
   id="svg1"
   xml:space="preserve"
   inkscape:version="1.3.2 (091e20e, 2023-11-25, custom)"
   sodipodi:docname="heroic_act_finest-hour.svg"
   xmlns:inkscape="http://www.inkscape.org/namespaces/inkscape"
   xmlns:sodipodi="http://sodipodi.sourceforge.net/DTD/sodipodi-0.dtd"
   xmlns:xlink="http://www.w3.org/1999/xlink"
   xmlns="http://www.w3.org/2000/svg"
   xmlns:svg="http://www.w3.org/2000/svg"><sodipodi:namedview
     id="namedview1"
     pagecolor="#505050"
     bordercolor="#eeeeee"
     borderopacity="1"
     inkscape:showpageshadow="0"
     inkscape:pageopacity="0"
     inkscape:pagecheckerboard="0"
     inkscape:deskcolor="#505050"
     inkscape:document-units="mm"
     inkscape:zoom="5.6568543"
     inkscape:cx="-5.8336309"
     inkscape:cy="30.670757"
     inkscape:window-width="2560"
     inkscape:window-height="1369"
     inkscape:window-x="-8"
     inkscape:window-y="-8"
     inkscape:window-maximized="1"
     inkscape:current-layer="layer1"
     showgrid="false"><inkscape:grid
       id="grid157"
       units="mm"
       originx="0"
       originy="0"
       spacingx="0.99999998"
       spacingy="0.99999998"
       empcolor="#0099e5"
       empopacity="0.30196078"
       color="#0099e5"
       opacity="0.14901961"
       empspacing="5"
       dotted="false"
       gridanglex="30"
       gridanglez="30"
       visible="false" /></sodipodi:namedview><defs
     id="defs1"><linearGradient
       id="linearGradient24"
       inkscape:collect="always"><stop
         style="stop-color:#b2aa18;stop-opacity:1;"
         offset="0"
         id="stop24" /><stop
         style="stop-color:#f7df21;stop-opacity:1;"
         offset="1"
         id="stop25" /></linearGradient><linearGradient
       id="linearGradient22"
       inkscape:collect="always"><stop
         style="stop-color:#b2aa18;stop-opacity:1;"
         offset="0"
         id="stop22" /><stop
         style="stop-color:#f7df21;stop-opacity:1;"
         offset="1"
         id="stop23" /></linearGradient><linearGradient
       id="linearGradient20"
       inkscape:collect="always"><stop
         style="stop-color:#b2aa18;stop-opacity:1;"
         offset="0"
         id="stop20" /><stop
         style="stop-color:#f7df21;stop-opacity:1;"
         offset="1"
         id="stop21" /></linearGradient><inkscape:path-effect
       effect="powerclip"
       id="path-effect16"
       is_visible="true"
       lpeversion="1"
       inverse="true"
       flatten="false"
       hide_clip="false"
       message="Use fill-rule evenodd on &lt;b&gt;fill and stroke&lt;/b&gt; dialog if no flatten result after convert clip to paths." /><linearGradient
       id="linearGradient29"
       inkscape:collect="always"><stop
         style="stop-color:#f3ed5e;stop-opacity:1;"
         offset="0"
         id="stop29" /><stop
         style="stop-color:#915302;stop-opacity:1;"
         offset="1"
         id="stop30" /></linearGradient><radialGradient
       inkscape:collect="always"
       xlink:href="#linearGradient29"
       id="radialGradient30"
       cx="-4.2943563"
       cy="43.659042"
       fx="-4.2943563"
       fy="43.659042"
       r="8.4666662"
       gradientUnits="userSpaceOnUse"
       gradientTransform="matrix(1,0,0,1.9999998,12.761023,-70.384744)" /><radialGradient
       inkscape:collect="always"
       xlink:href="#linearGradient82"
       id="radialGradient83"
       cx="45.012238"
       cy="18.289324"
       fx="45.012238"
       fy="18.289324"
       r="26.380817"
       gradientUnits="userSpaceOnUse"
       gradientTransform="translate(-35.090365,0.59685615)" /><linearGradient
       id="linearGradient82"
       inkscape:collect="always"><stop
         style="stop-color:#f3ed5e;stop-opacity:1;"
         offset="0"
         id="stop82" /><stop
         style="stop-color:#9b8117;stop-opacity:1;"
         offset="0.77978724"
         id="stop83" /></linearGradient><linearGradient
       inkscape:collect="always"
       xlink:href="#linearGradient37"
       id="linearGradient78"
       gradientUnits="userSpaceOnUse"
       gradientTransform="translate(77.684554,19.84375)"
       x1="-38.7103"
       y1="39.726604"
       x2="-38.698566"
       y2="33.790016" /><linearGradient
       id="linearGradient37"
       inkscape:collect="always"><stop
         style="stop-color:#755903;stop-opacity:1;"
         offset="0.38829789"
         id="stop37" /><stop
         style="stop-color:#755903;stop-opacity:0;"
         offset="0.74680853"
         id="stop38" /></linearGradient><linearGradient
       inkscape:collect="always"
       xlink:href="#linearGradient20"
       id="linearGradient21"
       x1="7.038681"
       y1="16.968859"
       x2="7.0629916"
       y2="8.7135715"
       gradientUnits="userSpaceOnUse" /><linearGradient
       inkscape:collect="always"
       xlink:href="#linearGradient22"
       id="linearGradient23"
       x1="7.4093494"
       y1="16.90694"
       x2="7.2402711"
       y2="8.5560284"
       gradientUnits="userSpaceOnUse" /><linearGradient
       inkscape:collect="always"
       xlink:href="#linearGradient24"
       id="linearGradient25"
       x1="7.0818224"
       y1="16.951473"
       x2="7.1681428"
       y2="8.4351969"
       gradientUnits="userSpaceOnUse" /><clipPath
       clipPathUnits="userSpaceOnUse"
       id="clipPath27"><rect
         style="fill:url(#radialGradient28);stroke:none;stroke-width:0.79375;stroke-linejoin:round"
         id="rect28"
         width="16.933332"
         height="16.933332"
         x="0"
         y="8.9009603e-07"
         inkscape:label="bg" /></clipPath><radialGradient
       inkscape:collect="always"
       xlink:href="#linearGradient29"
       id="radialGradient28"
       gradientUnits="userSpaceOnUse"
       gradientTransform="matrix(1,0,0,1.9999998,12.761023,-70.384744)"
       cx="-4.2943563"
       cy="43.659042"
       fx="-4.2943563"
       fy="43.659042"
       r="8.4666662" /><clipPath
       clipPathUnits="userSpaceOnUse"
       id="clipPath30"><rect
         style="fill:url(#radialGradient31);stroke:none;stroke-width:0.79375;stroke-linejoin:round"
         id="rect31"
         width="16.933332"
         height="16.933332"
         x="0"
         y="8.9009603e-07"
         inkscape:label="bg" /></clipPath><radialGradient
       inkscape:collect="always"
       xlink:href="#linearGradient29"
       id="radialGradient31"
       gradientUnits="userSpaceOnUse"
       gradientTransform="matrix(1,0,0,1.9999998,12.761023,-70.384744)"
       cx="-4.2943563"
       cy="43.659042"
       fx="-4.2943563"
       fy="43.659042"
       r="8.4666662" /></defs><g
     inkscape:label="Layer 1"
     inkscape:groupmode="layer"
     id="layer1"><rect
       style="fill:url(#radialGradient30);stroke:none;stroke-width:0.79375;stroke-linejoin:round"
       id="rect29"
       width="16.933332"
       height="16.933332"
       x="0"
       y="8.9009603e-07"
       inkscape:label="bg" /><path
       id="path27"
       style="fill:url(#radialGradient83);stroke:none;stroke-width:0.259;stroke-linejoin:round;stroke-opacity:1"
       d="M 6.9344598,-5.9071397 7.7855708,15.302419 3.1186728,-5.4048447 0.15864677,-4.6116111 6.4698888,15.652268 -3.3966918,-3.1388328 -6.0507938,-1.6066265 5.2901158,16.33388 -9.1038368,0.73638285 -11.27063,2.9031756 4.3268678,17.297129 -13.613639,5.9562193 -15.145846,8.6103209 3.6452548,18.476902 -16.618624,12.165659 -17.411857,15.125685 3.2954058,19.792584 -17.914152,18.941473 v 3.064412 l 21.2095578,-0.85111 -20.7072628,4.666898 0.793233,2.960026 20.2638788,-6.311242 -18.7911008,9.866581 1.532207,2.654101 L 4.3268678,23.65023 -11.27063,38.044183 -9.1038368,40.210976 5.2901158,24.613478 -6.0507938,42.553985 -3.3966918,44.086191 6.4698888,25.29509 0.15864677,45.55897 3.1186728,46.352203 7.7855708,25.64494 6.9344598,46.854498 H 9.9988727 L 9.1477617,25.64494 13.814661,46.352203 16.774687,45.55897 10.463444,25.29509 20.330025,44.086191 22.984127,42.553985 11.643217,24.613478 26.03717,40.210976 28.203963,38.044183 12.606466,23.65023 30.546973,34.991139 32.079179,32.337038 13.288078,22.470457 33.551957,28.781699 34.34519,25.821673 13.637927,21.154775 34.847485,22.005885 V 18.941473 L 13.636894,19.793101 34.34519,15.125685 33.551957,12.165659 13.288078,18.476902 32.079179,8.6103209 30.546973,5.9562193 12.606982,17.296612 28.203963,2.9031756 26.03717,0.73638285 11.643734,16.333363 22.984127,-1.6066265 20.330025,-3.1388328 10.463444,15.652268 16.774687,-4.6116111 13.814661,-5.4048447 9.1472447,15.303452 9.9988727,-5.9071397 Z"
       clip-path="url(#clipPath27)"
       inkscape:label="rays"
       sodipodi:nodetypes="ccccccccccccccccccccccccccccccccccccccccccccccccccccccccccccccccccccccccc" /><g
       id="g79"
       transform="matrix(0.55889795,0,0,0.55889795,-14.455898,-22.978103)"
       inkscape:label="crest"><circle
         style="display:inline;fill:none;fill-opacity:1;stroke:#ede731;stroke-width:0.994;stroke-linecap:round;stroke-linejoin:round;stroke-dasharray:none;stroke-opacity:1"
         id="circle34"
         cx="38.929523"
         cy="53.502892"
         r="5.5637012" /><g
         id="g36"
         transform="rotate(-60,17.188546,-23.887154)"><path
           id="path35"
           style="display:inline;fill:#ede731;fill-opacity:1;stroke:none;stroke-width:0.79375;stroke-linecap:round;stroke-linejoin:round"
           d="m -38.860677,23.498306 -1.719792,4.362522 1.719792,0.70265 1.719792,-0.70265 z"
           sodipodi:nodetypes="ccccc" /><path
           id="path36"
           style="display:inline;fill:#755903;fill-opacity:1;stroke:none;stroke-width:0.79375;stroke-linecap:round;stroke-linejoin:round"
           d="m -38.860677,24.094652 -1.415773,3.848921 1.415773,0.620058 z" /></g><g
         id="g54"
         transform="matrix(-0.5,-0.8660254,-0.8660254,0.5,48.581678,2.942141)"><path
           id="path53"
           style="display:inline;fill:#ede731;fill-opacity:1;stroke:none;stroke-width:0.79375;stroke-linecap:round;stroke-linejoin:round"
           d="m -38.860677,23.498306 -1.719792,4.362522 1.719792,0.70265 1.719792,-0.70265 z"
           sodipodi:nodetypes="ccccc" /><path
           id="path54"
           style="display:inline;fill:#755903;fill-opacity:1;stroke:none;stroke-width:0.79375;stroke-linecap:round;stroke-linejoin:round"
           d="m -38.860677,24.094652 -1.415773,3.848921 1.415773,0.620058 z" /></g><g
         id="g56"
         transform="translate(77.7902,19.859253)"><path
           id="path55"
           style="display:inline;fill:#ede731;fill-opacity:1;stroke:none;stroke-width:0.79375;stroke-linecap:round;stroke-linejoin:round"
           d="m -38.860677,23.498306 -1.719792,4.362522 1.719792,0.70265 1.719792,-0.70265 z"
           sodipodi:nodetypes="ccccc" /><path
           id="path56"
           style="display:inline;fill:#755903;fill-opacity:1;stroke:none;stroke-width:0.79375;stroke-linecap:round;stroke-linejoin:round"
           d="m -38.860677,24.094652 -1.415773,3.848921 1.415773,0.620058 z" /></g><g
         id="g58"
         transform="matrix(0.53240867,-0.30738629,0.30738629,0.53240867,48.092921,21.584607)"
         style="stroke-width:1.62662"><path
           id="path57"
           style="display:inline;fill:#ede731;fill-opacity:1;stroke:none;stroke-width:1.29113;stroke-linecap:round;stroke-linejoin:round"
           d="m -38.860677,23.498306 -1.719792,4.362522 1.719792,0.70265 1.719792,-0.70265 z"
           sodipodi:nodetypes="ccccc" /><path
           id="path58"
           style="display:inline;fill:#755903;fill-opacity:1;stroke:none;stroke-width:1.29113;stroke-linecap:round;stroke-linejoin:round"
           d="m -38.860677,24.094652 -1.415773,3.848921 1.415773,0.620058 z" /></g><g
         id="g60"
         transform="matrix(-0.53240867,-0.30738629,-0.30738629,0.53240867,29.766123,21.584607)"
         style="stroke-width:1.62662"><path
           id="path59"
           style="display:inline;fill:#ede731;fill-opacity:1;stroke:none;stroke-width:1.29113;stroke-linecap:round;stroke-linejoin:round"
           d="m -38.860677,23.498306 -1.719792,4.362522 1.719792,0.70265 1.719792,-0.70265 z"
           sodipodi:nodetypes="ccccc" /><path
           id="path60"
           style="display:inline;fill:#755903;fill-opacity:1;stroke:none;stroke-width:1.29113;stroke-linecap:round;stroke-linejoin:round"
           d="m -38.860677,24.094652 -1.415773,3.848921 1.415773,0.620058 z" /></g><path
         id="path61"
         style="color:#000000;fill:url(#linearGradient78);stroke:none;stroke-linecap:round;stroke-linejoin:round;-inkscape-stroke:none"
         d="m 32.872302,53.590011 c 0.03297,2.294152 1.3485,4.283846 3.259233,5.284948 l -0.0016,0.0016 c 0.590886,0.309358 1.565452,0.68794 2.800579,0.68794 1.243492,0 2.224983,-0.386606 2.800578,-0.68794 l -0.0016,-0.0016 c 1.910733,-1.001102 3.226261,-2.990796 3.259232,-5.284948 l -1.122412,1.056266 c -0.361496,1.572225 -1.451692,2.861856 -2.897497,3.496944 -0.748807,0.328445 -1.459603,0.42608 -2.038383,0.42608 -0.82239,0 -1.510881,-0.194768 -2.038384,-0.42613 -1.445805,-0.635088 -2.536002,-1.924719 -2.897498,-3.496944 z"
         sodipodi:nodetypes="ccccccccccccc" /><path
         style="color:#000000;fill:#ede731;stroke-linecap:round;stroke-linejoin:round;-inkscape-stroke:none"
         d="m 38.928695,47.441406 c -3.341343,0 -6.060547,2.719204 -6.060547,6.060547 0,3.341343 2.719204,6.0625 6.060547,6.0625 3.341342,0 6.0625,-2.721157 6.0625,-6.0625 0,-3.341343 -2.721158,-6.060547 -6.0625,-6.060547 z m 0,0.994141 c 2.804145,0 5.068359,2.26226 5.068359,5.066406 0,2.804146 -2.264214,5.068359 -5.068359,5.068359 -2.804146,0 -5.066407,-2.264213 -5.066407,-5.068359 0,-2.804146 2.262261,-5.066406 5.066407,-5.066406 z"
         id="path62" /><g
         id="g64"
         transform="rotate(-60,17.188546,-23.887154)"><path
           id="path63"
           style="display:inline;fill:#ede731;fill-opacity:1;stroke:none;stroke-width:0.79375;stroke-linecap:round;stroke-linejoin:round"
           d="m -38.860677,23.498306 -1.719792,4.362522 1.719792,0.70265 1.719792,-0.70265 z"
           sodipodi:nodetypes="ccccc" /><path
           id="path64"
           style="display:inline;fill:#755903;fill-opacity:1;stroke:none;stroke-width:0.79375;stroke-linecap:round;stroke-linejoin:round"
           d="m -38.860677,24.094652 -1.415773,3.848921 1.415773,0.620058 z" /></g><g
         id="g66"
         transform="matrix(-0.5,-0.8660254,-0.8660254,0.5,48.581678,2.942141)"><path
           id="path65"
           style="display:inline;fill:#ede731;fill-opacity:1;stroke:none;stroke-width:0.79375;stroke-linecap:round;stroke-linejoin:round"
           d="m -38.860677,23.498306 -1.719792,4.362522 1.719792,0.70265 1.719792,-0.70265 z"
           sodipodi:nodetypes="ccccc" /><path
           id="path66"
           style="display:inline;fill:#755903;fill-opacity:1;stroke:none;stroke-width:0.79375;stroke-linecap:round;stroke-linejoin:round"
           d="m -38.860677,24.094652 -1.415773,3.848921 1.415773,0.620058 z" /></g><g
         id="g68"
         transform="translate(77.7902,19.859253)"><path
           id="path67"
           style="display:inline;fill:#ede731;fill-opacity:1;stroke:none;stroke-width:0.79375;stroke-linecap:round;stroke-linejoin:round"
           d="m -38.860677,23.498306 -1.719792,4.362522 1.719792,0.70265 1.719792,-0.70265 z"
           sodipodi:nodetypes="ccccc" /><path
           id="path68"
           style="display:inline;fill:#755903;fill-opacity:1;stroke:none;stroke-width:0.79375;stroke-linecap:round;stroke-linejoin:round"
           d="m -38.860677,24.094652 -1.415773,3.848921 1.415773,0.620058 z" /></g><g
         id="g70"
         transform="matrix(0.53240867,-0.30738629,0.30738629,0.53240867,48.092921,21.584607)"
         style="stroke-width:1.62662"><path
           id="path69"
           style="display:inline;fill:#ede731;fill-opacity:1;stroke:none;stroke-width:1.29113;stroke-linecap:round;stroke-linejoin:round"
           d="m -38.860677,23.498306 -1.719792,4.362522 1.719792,0.70265 1.719792,-0.70265 z"
           sodipodi:nodetypes="ccccc" /><path
           id="path70"
           style="display:inline;fill:#755903;fill-opacity:1;stroke:none;stroke-width:1.29113;stroke-linecap:round;stroke-linejoin:round"
           d="m -38.860677,24.094652 -1.415773,3.848921 1.415773,0.620058 z" /></g><g
         id="g72"
         transform="matrix(-0.53240867,-0.30738629,-0.30738629,0.53240867,29.766123,21.584607)"
         style="stroke-width:1.62662"><path
           id="path71"
           style="display:inline;fill:#ede731;fill-opacity:1;stroke:none;stroke-width:1.29113;stroke-linecap:round;stroke-linejoin:round"
           d="m -38.860677,23.498306 -1.719792,4.362522 1.719792,0.70265 1.719792,-0.70265 z"
           sodipodi:nodetypes="ccccc" /><path
           id="path72"
           style="display:inline;fill:#755903;fill-opacity:1;stroke:none;stroke-width:1.29113;stroke-linecap:round;stroke-linejoin:round"
           d="m -38.860677,24.094652 -1.415773,3.848921 1.415773,0.620058 z" /></g></g><path
       id="path25"
       style="color:#000000;fill:#f7df21;stroke-linejoin:round;-inkscape-stroke:none"
       d="M 2.7419515,0.21859131 C 2.0502872,0.2292143 1.6040767,0.35059669 1.3828613,0.5431193 c -0.00484,-2.5692e-4 -0.00911,-0.001813 -0.013953,-0.002067 l 0.00207,0.003617 c -0.005,0.004469 -0.026269,0.003714 -0.031006,0.008268 a 0.03789904,0.03789904 0 0 0 0.025321,0.0640788 C 6.6286455,0.89342625 10.611214,2.7153923 14.18363,5.041036 l -0.410311,0.7596435 a 0.03789904,0.03789904 0 0 0 -0.0021,0.033073 c 0.03138,0.082236 0.106688,0.1179015 0.183969,0.1235067 a 0.03789904,0.03789904 0 0 0 0.03514,-0.01757 l 0.443383,-0.7229533 c 0.628073,0.4164631 1.299999,0.7176989 1.99006,0.962732 a 0.03789904,0.03789904 0 0 0 0.01188,0.00207 0.03789904,0.03789904 0 0 0 0.0098,-0.00207 c 0.03971,-0.010944 0.06805,-0.041762 0.09147,-0.078031 0.01807,-0.027989 0.03154,-0.063976 0.04496,-0.099736 l 0.05271,0.00413 a 0.03789904,0.03789904 0 0 0 0.0217,-0.00413 c 0.0565,-0.030017 0.0804,-0.091715 0.08371,-0.1483113 0.0033,-0.056596 -0.0096,-0.117258 -0.06046,-0.1462443 a 0.03789904,0.03789904 0 0 0 -0.0155,-0.00413 l -0.01964,-0.00207 c 0.0033,-0.050676 0.0073,-0.1013431 0.0021,-0.1421102 -0.0033,-0.025967 -0.0089,-0.050247 -0.01757,-0.070797 -0.0086,-0.02055 -0.02262,-0.039462 -0.04496,-0.050643 a 0.03789904,0.03789904 0 0 0 -0.0098,-0.00362 C 15.954135,5.3408359 15.360227,5.0590978 14.792896,4.5899007 l 0.521415,-0.8635132 c 0.299287,0.1287407 0.634477,0.2567413 0.90227,0.4397665 0.276418,0.1889201 0.479354,0.4308879 0.50798,0.7968506 a 0.03789904,0.03789904 0 0 0 0.01188,0.023254 c 0.02763,0.02843 0.06448,0.032704 0.09974,0.025321 0.03526,-0.00738 0.07346,-0.035978 0.07958,-0.081649 a 0.03789904,0.03789904 0 0 0 0,-5.167e-4 0.03789904,0.03789904 0 0 0 0,-5.168e-4 0.03789904,0.03789904 0 0 0 0,-5.168e-4 0.03789904,0.03789904 0 0 0 0,-5.167e-4 0.03789904,0.03789904 0 0 0 0,-5.168e-4 0.03789904,0.03789904 0 0 0 0,-5.167e-4 0.03789904,0.03789904 0 0 0 0,-5.168e-4 0.03789904,0.03789904 0 0 0 0,-5.168e-4 0.03789904,0.03789904 0 0 0 0,-5.167e-4 0.03789904,0.03789904 0 0 0 0,-5.168e-4 0.03789904,0.03789904 0 0 0 0,-5.168e-4 0.03789904,0.03789904 0 0 0 0,-5.167e-4 0.03789904,0.03789904 0 0 0 0,-5.168e-4 0.03789904,0.03789904 0 0 0 0,-5.168e-4 0.03789904,0.03789904 0 0 0 0,-5.167e-4 0.03789904,0.03789904 0 0 0 0,-5.168e-4 C 16.855214,4.4176384 16.581829,4.1230235 16.250171,3.9217244 15.918513,3.7204253 15.529005,3.6056589 15.220776,3.4494019 a 0.03789904,0.03789904 0 0 0 -0.04909,0.013436 l -0.64234,1.00614 C 10.940022,2.2745253 7.8494322,1.1007016 5.5567668,0.57412516 4.4065913,0.30995437 3.4554235,0.20763342 2.7419515,0.21859131 Z"
       inkscape:label="saber" /><g
       id="g20"
       inkscape:label="person"
       clip-path="url(#clipPath30)"><path
         id="path2"
         style="fill:url(#linearGradient21);stroke:#000000;stroke-width:0.237055;stroke-linejoin:round;stroke-dasharray:none;stroke-opacity:1"
         d="m 6.5102053,8.5178598 -0.5321469,0.6654286 -1.5106893,0.663959 -4.02197269,2.9615986 1.68121249,1.720902 2.3211596,-1.877459 0.46404,3.227916 -0.925132,3.599587 H 10.395961 L 9.5178649,15.880205 10.090682,12.652289 13.282094,11.556879 12.799927,9.1357574 10.072062,9.8472474 8.5613725,9.1832884 8.0292256,8.5178598 Z"
         sodipodi:nodetypes="ccccccccccccccccc"
         clip-path="none" /><path
         style="fill:url(#linearGradient23);stroke:#000000;stroke-width:0.237055;stroke-linejoin:round;stroke-dasharray:none;stroke-opacity:1"
         d="M 2.5576811,13.94958 C 2.2204201,15.069707 0.65735586,14.915365 0.26837128,13.9339 L 0.80149763,8.9789519 0.44085348,8.3517438 0.64469617,7.0032462 C 1.2538205,6.9339636 1.8227394,6.9953476 2.3067972,7.3325305 l -0.094082,1.8659439 z"
         id="path3"
         sodipodi:nodetypes="cccccccc" /><path
         style="fill:url(#linearGradient25);stroke:#000000;stroke-width:0.237055;stroke-linejoin:round;stroke-dasharray:none;stroke-opacity:1"
         d="m 13.811894,11.253455 c -0.815292,0.838885 -2.131583,-0.01807 -2.024775,-1.068395 l 2.755493,-4.1524648 -0.187937,-0.4130305 0.6503,-1.1499539 c 0.314488,-0.1245865 1.012094,-0.018219 1.38774,0.5300776 l -0.698616,1.8777747 z"
         id="path5"
         sodipodi:nodetypes="cccccccc" /><path
         id="path17"
         style="fill:#f7df21;fill-opacity:1;stroke:#000000;stroke-width:0.189644;stroke-linejoin:round;stroke-dasharray:none;stroke-opacity:1"
         d="M 7.3025457,4.9932439 C 6.6034551,5.0628063 6.2127173,5.4505975 5.9976591,6.0198073 V 8.1866155 L 7.0418629,8.996106 H 7.3025457 7.5637196 L 8.6079225,8.1866155 V 6.0198073 C 8.3928652,5.4505975 8.0016362,5.0628064 7.3025457,4.9932439 Z" /></g><g
       id="g177"
       transform="matrix(0.19300979,0,0,0.19300979,16.340388,11.648605)"
       inkscape:label="heroism-symbol"
       style="stroke:#766d22;stroke-width:0.491281;stroke-dasharray:none;stroke-opacity:1"><rect
         style="fill:#f7df21;fill-opacity:1;stroke:#766d22;stroke-width:0.491281;stroke-linecap:round;stroke-linejoin:round;stroke-dasharray:none;stroke-opacity:1"
         id="rect163"
         width="5.1626992"
         height="5.1626992"
         x="-29.590853"
         y="30.557823"
         transform="rotate(45)" /><rect
         style="fill:none;fill-opacity:1;stroke:#766d22;stroke-width:0.491281;stroke-linecap:round;stroke-linejoin:miter;stroke-dasharray:none;stroke-opacity:1"
         id="rect164"
         width="7.4744792"
         height="7.4744792"
         x="-30.746742"
         y="29.401934"
         transform="rotate(45)" /><path
         id="path166"
         style="display:inline;fill:#f7df21;fill-opacity:1;stroke:#766d22;stroke-width:0.491281;stroke-linecap:round;stroke-linejoin:round;stroke-dasharray:none;stroke-opacity:1"
         d="m -42.531771,-6.4833252 -1.437121,5.8590739 1.437121,-1.4371216 1.437122,1.4371216 z" /><path
         id="path167"
         style="display:inline;fill:#f7df21;fill-opacity:1;stroke:#766d22;stroke-width:0.491281;stroke-linecap:round;stroke-linejoin:round;stroke-dasharray:none;stroke-opacity:1"
         d="m -32.221289,-0.01136882 -6.399093,1.86086832 2.181263,2.1812622 z" /><path
         id="path168"
         style="display:inline;fill:#f7df21;fill-opacity:1;stroke:#766d22;stroke-width:0.491281;stroke-linecap:round;stroke-linejoin:round;stroke-dasharray:none;stroke-opacity:1"
         d="m -38.402307,-1.6603638 -1.961121,1.76681725 1.30638,1.30689695 z" /><path
         id="path169"
         style="display:inline;fill:#f7df21;fill-opacity:1;stroke:#766d22;stroke-width:0.491281;stroke-linecap:round;stroke-linejoin:round;stroke-dasharray:none;stroke-opacity:1"
         d="m -52.837602,-0.01136882 4.215247,4.04058022 2.180229,-2.1802287 z" /><path
         id="path170"
         style="display:inline;fill:#f7df21;fill-opacity:1;stroke:#766d22;stroke-width:0.491281;stroke-linecap:round;stroke-linejoin:round;stroke-dasharray:none;stroke-opacity:1"
         d="m -46.6571,-1.6603638 0.653706,3.0706136 1.305864,-1.30586341 z" /><path
         id="path171"
         style="fill:#f7df21;fill-opacity:1;stroke:#766d22;stroke-width:0.491281;stroke-linecap:round;stroke-linejoin:miter;stroke-dasharray:none;stroke-opacity:1"
         d="m -36.135779,4.3341024 -2.107365,2.1073649 h 1.927532 l 1.661397,-2.1073649 z"
         sodipodi:nodetypes="ccccc" /><path
         id="path172"
         style="fill:#f7df21;fill-opacity:1;stroke:#766d22;stroke-width:0.491281;stroke-linecap:round;stroke-linejoin:miter;stroke-dasharray:none;stroke-opacity:1"
         d="m -38.636401,6.8347249 -2.107365,2.1073649 h 2.522327 l 1.661397,-2.1073649 z"
         sodipodi:nodetypes="ccccc" /><path
         id="path174"
         style="fill:#f7df21;fill-opacity:1;stroke:#766d22;stroke-width:0.491281;stroke-linecap:round;stroke-linejoin:miter;stroke-dasharray:none;stroke-opacity:1"
         d="m -41.137024,9.3353475 -1.176156,1.1761555 v 0.930693 h 0.631487 l 1.661397,-2.1068485 z"
         sodipodi:nodetypes="cccccc" /><path
         id="path177"
         style="fill:#f7df21;fill-opacity:1;stroke:#766d22;stroke-width:0.491281;stroke-linecap:round;stroke-linejoin:miter;stroke-dasharray:none;stroke-opacity:1"
         d="m -48.926524,4.3341024 2.107365,2.1073649 h -1.927532 l -1.661397,-2.1073649 z"
         sodipodi:nodetypes="ccccc" /><path
         id="path178"
         style="fill:#f7df21;fill-opacity:1;stroke:#766d22;stroke-width:0.491281;stroke-linecap:round;stroke-linejoin:miter;stroke-dasharray:none;stroke-opacity:1"
         d="m -46.425902,6.8347249 2.107365,2.1073649 h -2.522327 l -1.661397,-2.1073649 z"
         sodipodi:nodetypes="ccccc" /><path
         id="path179"
         style="fill:#f7df21;fill-opacity:1;stroke:#766d22;stroke-width:0.491281;stroke-linecap:round;stroke-linejoin:miter;stroke-dasharray:none;stroke-opacity:1"
         d="m -43.925279,9.3353475 1.176156,1.1761555 v 0.930693 h -0.631487 l -1.661397,-2.1068485 z"
         sodipodi:nodetypes="cccccc" /></g></g></svg>
