<?xml version="1.0" encoding="UTF-8" standalone="no"?>
<!-- Created with Inkscape (http://www.inkscape.org/) -->

<svg
   width="64"
   height="64"
   viewBox="0 0 16.933333 16.933333"
   version="1.1"
   id="svg1"
   xml:space="preserve"
   inkscape:version="1.3.2 (091e20e, 2023-11-25, custom)"
   sodipodi:docname="heroic_act_death-whisper.svg"
   xmlns:inkscape="http://www.inkscape.org/namespaces/inkscape"
   xmlns:sodipodi="http://sodipodi.sourceforge.net/DTD/sodipodi-0.dtd"
   xmlns:xlink="http://www.w3.org/1999/xlink"
   xmlns="http://www.w3.org/2000/svg"
   xmlns:svg="http://www.w3.org/2000/svg"><sodipodi:namedview
     id="namedview1"
     pagecolor="#505050"
     bordercolor="#eeeeee"
     borderopacity="1"
     inkscape:showpageshadow="0"
     inkscape:pageopacity="0"
     inkscape:pagecheckerboard="0"
     inkscape:deskcolor="#505050"
     inkscape:document-units="mm"
     inkscape:zoom="5.6568543"
     inkscape:cx="18.561553"
     inkscape:cy="45.873552"
     inkscape:window-width="2560"
     inkscape:window-height="1369"
     inkscape:window-x="-8"
     inkscape:window-y="-8"
     inkscape:window-maximized="1"
     inkscape:current-layer="layer1"
     showgrid="false"><inkscape:grid
       id="grid157"
       units="mm"
       originx="0"
       originy="0"
       spacingx="0.99999998"
       spacingy="0.99999998"
       empcolor="#0099e5"
       empopacity="0.30196078"
       color="#0099e5"
       opacity="0.14901961"
       empspacing="5"
       dotted="false"
       gridanglex="30"
       gridanglez="30"
       visible="false" /></sodipodi:namedview><defs
     id="defs1"><linearGradient
       id="linearGradient82"
       inkscape:collect="always"><stop
         style="stop-color:#f3ed5e;stop-opacity:1;"
         offset="0"
         id="stop82" /><stop
         style="stop-color:#9b8117;stop-opacity:1;"
         offset="0.77978724"
         id="stop83" /></linearGradient><linearGradient
       id="linearGradient29"
       inkscape:collect="always"><stop
         style="stop-color:#f3ed5e;stop-opacity:1;"
         offset="0"
         id="stop29" /><stop
         style="stop-color:#915302;stop-opacity:1;"
         offset="1"
         id="stop30" /></linearGradient><radialGradient
       inkscape:collect="always"
       xlink:href="#linearGradient29"
       id="radialGradient30"
       cx="3.6762156"
       cy="43.460606"
       fx="3.6762156"
       fy="43.460606"
       r="8.4666662"
       gradientUnits="userSpaceOnUse"
       gradientTransform="matrix(0.71289058,-0.70127528,1.8867189,1.9179688,-68.181445,-81.174921)" /><radialGradient
       inkscape:collect="always"
       xlink:href="#linearGradient82"
       id="radialGradient83"
       cx="45.012239"
       cy="18.289323"
       fx="45.012239"
       fy="18.289323"
       r="26.380818"
       gradientUnits="userSpaceOnUse"
       gradientTransform="translate(-44.199698,-2.4789251)" /><clipPath
       clipPathUnits="userSpaceOnUse"
       id="clipPath12"><rect
         style="fill:#100901;fill-opacity:1;stroke:none;stroke-width:0.793751;stroke-linejoin:round"
         id="rect13"
         width="24.332769"
         height="24.251461"
         x="-1.4079304"
         y="-44.337341"
         inkscape:label="clip"
         transform="rotate(90)" /></clipPath><clipPath
       clipPathUnits="userSpaceOnUse"
       id="clipPath13"><rect
         style="fill:#100901;fill-opacity:1;stroke:none;stroke-width:0.79375;stroke-linejoin:round"
         id="rect14"
         width="16.933332"
         height="16.933332"
         x="-1.3333333e-06"
         y="-16.933336"
         inkscape:label="clip"
         transform="rotate(90)" /></clipPath><clipPath
       clipPathUnits="userSpaceOnUse"
       id="clipPath14"><rect
         style="fill:#100901;fill-opacity:1;stroke:none;stroke-width:0.79375;stroke-linejoin:round"
         id="rect15"
         width="16.933332"
         height="16.933332"
         x="-1.3333333e-06"
         y="-16.933336"
         inkscape:label="clip"
         transform="rotate(90)" /></clipPath><clipPath
       clipPathUnits="userSpaceOnUse"
       id="clipPath15"><rect
         style="fill:#100901;fill-opacity:1;stroke:none;stroke-width:0.79375;stroke-linejoin:round"
         id="rect16"
         width="16.933332"
         height="16.933332"
         x="-1.3333333e-06"
         y="-16.933336"
         inkscape:label="clip" /></clipPath><inkscape:perspective
       sodipodi:type="inkscape:persp3d"
       inkscape:vp_x="-1.125 : 8.375 : 1"
       inkscape:vp_y="0 : 1000 : 0"
       inkscape:vp_z="46.875 : 8.375 : 1"
       inkscape:persp3d-origin="22.875 : 0.375 : 1"
       id="perspective18" /></defs><g
     inkscape:label="Layer 1"
     inkscape:groupmode="layer"
     id="layer1"><rect
       style="fill:url(#radialGradient30);stroke:none;stroke-width:0.79375;stroke-linejoin:round"
       id="rect29"
       width="16.933332"
       height="16.933332"
       x="-1.3333333e-06"
       y="-16.933334"
       inkscape:label="bg"
       transform="rotate(90)"
       clip-path="url(#clipPath15)" /><path
       id="path27"
       style="fill:url(#radialGradient83);stroke:none;stroke-width:0.259;stroke-linejoin:round;stroke-opacity:1"
       d="m -2.1748734,-8.982921 0.851111,21.209559 -4.666898,-20.707264 -2.960026,0.7932336 6.311242,20.2638794 -9.8665806,-18.7911011 -2.654102,1.5322063 L -3.8192174,13.258099 -18.21317,-2.3393984 -20.379963,-0.1726057 -4.7824654,14.221348 -22.722972,2.880438 -24.255179,5.5345396 -5.4640784,15.401121 -25.727957,9.0898779 -26.52119,12.049904 -5.8139274,16.716803 -27.023485,15.865692 v 3.064412 l 21.2095576,-0.85111 -20.7072626,4.666898 0.793233,2.960026 20.2638786,-6.311242 -18.7911006,9.866581 1.532207,2.654101 17.9405066,-11.340909 -15.5974976,14.393953 2.166793,2.166793 14.3939526,-15.597498 -11.3409096,17.940507 2.654102,1.532206 9.8665806,-18.791101 -6.311242,20.26388 2.960026,0.793233 4.666898,-20.707263 -0.851111,21.209558 H 0.88953957 L 0.03842857,22.569159 4.7053276,43.276422 7.6653536,42.483189 1.3541106,22.219309 11.220692,41.01041 13.874794,39.478204 2.5338836,21.537697 16.927837,37.135195 19.09463,34.968402 3.4971326,20.574449 21.43764,31.915358 22.969846,29.261257 4.1787446,19.394676 24.442624,25.705918 25.235857,22.745892 4.5285936,18.078994 25.738152,18.930104 V 15.865692 L 4.5275606,16.71732 25.235857,12.049904 24.442624,9.0898779 4.1787446,15.401121 22.969846,5.5345396 21.43764,2.880438 3.4976486,14.220831 19.09463,-0.1726057 16.927837,-2.3393984 2.5344006,13.257582 13.874794,-4.6824078 11.220692,-6.2146141 1.3541106,12.576487 7.6653536,-7.6873924 4.7053276,-8.480626 0.03791157,12.227671 0.88953957,-8.982921 Z"
       clip-path="url(#clipPath14)"
       inkscape:label="rays"
       sodipodi:nodetypes="ccccccccccccccccccccccccccccccccccccccccccccccccccccccccccccccccccccccccc" /><path
       style="fill:#100901;fill-opacity:1;stroke:#ede731;stroke-width:0.2;stroke-opacity:1;stroke-dasharray:none"
       d="m 7.5182862,16.200764 c -0.410277,-0.04133 -1.35851,-0.175343 -1.556427,-0.219971 -0.275001,-0.06201 -0.501596,-0.18333 -0.528255,-0.282842 -0.02861,-0.106782 0.0022,-0.280682 0.06842,-0.3859 0.08731,-0.13883 0.21642,-0.157367 0.856139,-0.12304 0.313143,0.0168 0.735832,0.02814 0.939309,0.02519 0.479181,-0.01916 1.0522744,0.09264 0.9670934,0.502199 -0.102157,0.491194 -0.5015184,0.509024 -0.7462794,0.484364 z m -1.008104,0.191532 c -0.02487,0.0017 -0.146076,0.01352 -0.269332,0.02627 -0.123256,0.01275 -0.508342,0.01959 -0.855749,0.01521 -0.347407,-0.0044 -0.882444,0.01012 -1.188973,0.03224 -0.946614,0.06829 -1.526228,0.03738 -2.035298,-0.108556 -0.396827,-0.113753 -0.602993,-0.130705 -0.900168,-0.074 l -0.248322,0.04738 -0.464458,-1.733382 -0.46445802,-1.73338 0.31004302,-0.103545 c 0.397629,-0.132794 1.010652,-0.496429 1.438369,-0.853215 0.646103,-0.538954 0.736041,-0.584154 1.648788,-0.828608 0.7914,-0.211954 1.116632,-0.265835 1.465325,-0.242756 0.480304,0.03179 0.781156,0.109698 1.383331,0.692341 l 0.835815,0.808699 c 0.269968,0.261209 -0.642787,0.744564 -1.23873,0.54196 -0.307288,-0.10447 -0.677608,-0.33198 -0.86258,-0.529938 -0.122063,-0.130633 -0.145564,-0.143347 -0.221325,-0.119698 -0.05831,0.01822 -0.127963,0.08918 -0.223214,0.227438 -0.490184,0.711543 -1.285462,1.123258 -1.644618,1.321427 -0.359157,0.19817 -0.05914,0.13171 0.225136,0.05806 0.415923,-0.107758 0.550568,-0.153599 0.689452,-0.234723 0.222282,-0.12983 0.474158,-0.35615 0.684121,-0.584952 l 0.173527,-0.189098 c 0.02298,-0.025 -0.36374,0.636616 0.25137,0.976716 0.072,0.03984 0.133256,0.08063 0.136142,0.09061 0.0029,0.01 -0.03783,0.03886 -0.09043,0.06409 -0.138711,0.06653 -0.239495,0.258537 -0.230368,0.438889 0.01196,0.236535 0.171886,0.493245 0.342235,0.549364 l 0.08297,0.02734 -0.09651,0.161757 c -0.130158,0.21824 -0.159538,0.416887 -0.08807,0.595968 0.06682,0.167439 0.244458,0.336221 0.448821,0.426442 0.196202,0.08662 0.628759,0.174166 0.881927,0.178501 0.11193,0.0019 0.206146,0.01332 0.209368,0.02533 0.0059,0.0219 -2.48e-4,0.02407 -0.08414,0.02981 z m 0.820793,-1.505493 c -0.757512,7.88e-4 -1.741306,-0.02064 -1.845179,-0.05169 -0.292883,-0.08754 -0.452804,-0.360812 -0.335823,-0.573838 0.102954,-0.187521 0.402988,-0.313999 0.737574,-0.310964 0.329883,0.003 0.842327,-0.03012 1.281906,-0.08284 1.4069874,-0.168743 1.5888104,0.06476 1.6219144,0.439917 -0.03852,0.517839 -0.431385,0.578341 -1.4603924,0.579414 z m 0.7604894,-1.532167 c -0.4512654,0.07698 -2.2648364,0.312902 -2.4118904,0.313749 -0.559575,0.0032 -0.859358,-0.228991 -0.739799,-0.57306 0.08727,-0.251132 0.159062,-0.290902 0.302435,-0.167413 0.476497,0.389016 0.996379,0.411238 1.560646,0.253162 0.443657,-0.120293 0.891752,-0.506641 0.702975,-0.800496 l -0.114671,-0.1785 0.323405,-0.06791 c 0.5180934,-0.108795 0.8763344,-0.13231 0.9779994,0.429112 0.101666,0.561422 -0.251082,0.731643 -0.601099,0.791355 z M 6.7495122,11.361948 c -0.2831,-0.249265 -0.54314,-0.477264 -0.577866,-0.506667 l -0.06314,-0.05346 2.4778634,-0.654218 C 10.87247,9.544016 11.077067,9.494177 11.230037,9.503668 c 0.334655,0.02076 0.554963,0.217547 0.590072,0.52705 0.03521,0.310434 -0.152054,0.52409 -0.609741,0.695661 -0.153479,0.05753 -1.104143,0.326046 -2.1125894,0.596694 l -1.8335364,0.492098 z"
       id="path1-8"
       sodipodi:nodetypes="cssssssccsssssscccsssssssscscccssscssscsssssssssssscssssscscscsscscssssccc"
       inkscape:label="finger-points"
       clip-path="url(#clipPath13)" /><g
       id="g3"
       transform="matrix(0.6982397,0,0,0.6959065,-14.024757,0.97978656)"
       style="stroke-width:1.43457"
       clip-path="url(#clipPath12)"><path
         id="path90"
         style="display:inline;fill:#010101;fill-opacity:1;stroke:#ede731;stroke-width:0.371554;stroke-linejoin:round;stroke-opacity:1"
         d="m 32.824869,-1.2469523 -1.239717,2.5957072 -1.145667,-1.39164634 -0.65474,1.70738934 -1.63711,-2.23345542 -0.72502,2.88819582 -0.993738,-0.4092773 0.280603,0.7834147 -1.730643,-0.6779948 0.386023,1.6371094 -2.443779,0.2919718 1.683618,1.613855 -2.432409,1.2975952 2.713012,-0.081649 -1.146183,1.3565064 1.039213,-0.1297079 -3.985803,3.6023642 7.302913,-2.199349 -0.567407,1.46296 1.578198,-0.9358604 0.234095,0.8185544 0.982369,-1.1456662 1.052132,2.1750612 0.83044,-1.684135 0.865063,2.210201 1.169438,-2.36213 0.958598,1.215947 0.393258,-1.6489953 1.477946,2.7248983 0.187068,-2.431893 1.834514,1.249019 0.332796,-1.3725256 1.438672,0.4206466 -0.639238,-1.2309331 2.233972,0.027388 L 41.860494,7.7090902 43.072823,7.0543498 41.614514,5.7552043 42.754496,5.0415528 41.830004,4.6209066 43.732214,3.0049846 40.986645,3.5703247 41.115319,2.190564 39.793953,2.7987956 40.016162,0.41341146 37.829215,2.0034953 37.548612,0.77566325 36.695434,1.5477092 36.274271,-0.35863444 35.163228,1.3487549 34.566882,0.12092285 34.029447,1.2671062 Z" /><path
         id="path1-1"
         style="color:#000000;display:inline;fill:#f7df21;fill-opacity:1;stroke:none;stroke-width:0.379563;stroke-linecap:round;stroke-linejoin:round;stroke-opacity:1;-inkscape-stroke:none"
         d="M 36.540479,2.1217126 35.999768,2.6801434 C 34.790814,1.7559677 32.905419,2.0234715 31.552105,3.2596989 L 30.950406,2.6341471 30.644105,2.9520336 31.264884,3.5448772 C 30.016453,4.8992834 29.74362,6.7949798 30.671362,8.0085798 L 30.12043,8.5417984 30.54598,8.967691 31.069996,8.422548 c 1.166467,0.9718369 3.025328,0.7677711 4.399623,-0.3962515 l 0.523675,0.5485507 0.633727,-0.587733 -0.574101,-0.5522984 c 1.132339,-1.3700076 1.323203,-3.2023603 0.361154,-4.3567175 l 0.551955,-0.5304926 z m -2.727063,0.4085166 c 0.683645,-0.01163 1.338151,0.1784399 1.819404,0.5291298 L 35.212041,3.4944514 33.54323,5.5448723 35.588869,3.8712816 36.035202,3.4423221 c 0.721074,0.909821 0.476187,2.3098695 -0.512772,3.4817625 l -0.07018,-0.067462 -1.909013,-1.3117511 1.324009,1.8504211 0.09336,0.097785 c -1.180877,1.0210035 -2.605564,1.2812803 -3.52707,0.5509391 L 31.869649,7.5905226 33.54323,5.5448723 31.493161,7.2136924 31.051258,7.6412894 C 30.315899,6.6275796 30.303365,4.8362897 31.361987,3.6372108 L 31.823653,4.0780958 33.54323,5.5448723 32.080889,3.8092717 31.644097,3.355099 c 0.628139,-0.5544155 1.415825,-0.8120532 2.169319,-0.8248698 z"
         inkscape:label="marked" /><text
         xml:space="preserve"
         style="font-size:4.55552px;font-family:Calibri;-inkscape-font-specification:Calibri;text-align:end;text-anchor:end;fill:#f7df21;fill-opacity:1;stroke:none;stroke-width:0.25;stroke-linecap:round;stroke-linejoin:round;stroke-dasharray:none;stroke-opacity:1"
         x="14.736118"
         y="2.9315019"
         id="text17"
         transform="matrix(1.3833728,0.37191641,-0.37067363,1.3880109,20.085877,-1.4079285)"><tspan
           sodipodi:role="line"
           id="tspan17"
           style="fill:#f7df21;fill-opacity:1;stroke:none;stroke-width:0.25;stroke-opacity:1"
           x="14.736118"
           y="2.9315019">!</tspan></text><g
         id="g17"
         transform="matrix(1.3833728,0.37191641,-0.37067363,1.3880109,43.581747,1.8595657)"><path
           id="path2"
           style="fill:#f7df21;fill-opacity:1;stroke:none;stroke-width:0.25;stroke-linecap:round;stroke-linejoin:round;stroke-dasharray:none;stroke-dashoffset:0.6;stroke-opacity:1"
           d="m -10.034243,4.0622341 c -0.472755,0.025635 -1.281324,0.4348056 -1.039242,1.3554421 l -0.09123,0.1917356 0.04723,0.2533536 -0.09446,0.2704004 0.371235,0.3012093 0.212618,-0.044415 0.07754,0.6571554 0.185694,0.088987 0.330619,0.030809 0.330619,-0.030809 0.1856944,-0.088987 0.077539,-0.6571554 0.2126176,0.044415 0.3712346,-0.3012093 -0.094462,-0.2704004 0.047231,-0.2533536 -0.091232,-0.1917356 C -8.7529193,4.4970397 -9.5614881,4.087869 -10.034243,4.0622341 Z" /><path
           style="fill:#000000;fill-opacity:1;stroke:none;stroke-width:0.198437;stroke-linecap:round;stroke-linejoin:round;stroke-dashoffset:0.6"
           d="m -9.7811376,5.382658 0.6444726,0.1275124 0.084359,0.1814205 -0.064113,0.2498808 -0.2631994,0.1266526 -0.2324548,-0.10282 -0.1629235,-0.2081599 z"
           id="path3"
           sodipodi:nodetypes="cccccccc" /><path
           id="path4"
           style="fill:#000000;fill-opacity:1;stroke:none;stroke-width:0.198437;stroke-linecap:round;stroke-linejoin:round;stroke-dashoffset:0.6"
           d="m -10.034243,5.8080286 -0.290157,0.5647282 0.128155,0.1266768 0.162002,-0.1266768 0.162002,0.1266768 0.128155,-0.1266768 z" /><path
           style="fill:#000000;fill-opacity:1;stroke:none;stroke-width:0.198437;stroke-linecap:round;stroke-linejoin:round;stroke-dashoffset:0.6"
           d="m -10.287349,5.382658 -0.644472,0.1275124 -0.08436,0.1814205 0.06411,0.2498808 0.2632,0.1266526 0.232454,-0.10282 0.162924,-0.2081599 z"
           id="path16"
           sodipodi:nodetypes="cccccccc" /></g></g></g></svg>
