<?xml version="1.0" encoding="UTF-8" standalone="no"?>
<!-- Created with Inkscape (http://www.inkscape.org/) -->

<svg
   width="48"
   height="48"
   viewBox="0 0 12.7 12.7"
   version="1.1"
   id="svg1"
   xml:space="preserve"
   inkscape:version="1.3.2 (091e20e, 2023-11-25, custom)"
   sodipodi:docname="momentum-shift_desperation.svg"
   xmlns:inkscape="http://www.inkscape.org/namespaces/inkscape"
   xmlns:sodipodi="http://sodipodi.sourceforge.net/DTD/sodipodi-0.dtd"
   xmlns="http://www.w3.org/2000/svg"
   xmlns:svg="http://www.w3.org/2000/svg"><sodipodi:namedview
     id="namedview1"
     pagecolor="#505050"
     bordercolor="#eeeeee"
     borderopacity="1"
     inkscape:showpageshadow="0"
     inkscape:pageopacity="0"
     inkscape:pagecheckerboard="0"
     inkscape:deskcolor="#505050"
     inkscape:document-units="mm"
     inkscape:zoom="11.313709"
     inkscape:cx="10.16466"
     inkscape:cy="38.581513"
     inkscape:window-width="2560"
     inkscape:window-height="1369"
     inkscape:window-x="-8"
     inkscape:window-y="-8"
     inkscape:window-maximized="1"
     inkscape:current-layer="layer1"
     showgrid="false"><inkscape:grid
       id="grid157"
       units="mm"
       originx="0"
       originy="0"
       spacingx="0.99999998"
       spacingy="0.99999998"
       empcolor="#0099e5"
       empopacity="0.30196078"
       color="#0099e5"
       opacity="0.14901961"
       empspacing="5"
       dotted="false"
       gridanglex="30"
       gridanglez="30"
       visible="false" /></sodipodi:namedview><defs
     id="defs1" /><g
     inkscape:label="Layer 1"
     inkscape:groupmode="layer"
     id="layer1"><rect
       style="display:none;fill:none;stroke:#000000;stroke-width:2.11667;stroke-dasharray:none;stroke-opacity:1"
       id="rect1"
       width="12.7"
       height="12.7"
       x="0"
       y="0"
       inkscape:label="border spacer"
       sodipodi:insensitive="true" /><path
       id="path102"
       style="fill:#ffffff;fill-opacity:1;stroke-width:0.690182;stroke-linecap:round;stroke-linejoin:round"
       inkscape:label="skull"
       d="M 6.3498272,1.2747206 4.7204438,1.4684404 3.7887274,2.338456 V 3.1391874 H 0.72816182 L 1.2652001,4.2022331 h 1.7741562 l 0.00241,0.1158184 -1.5363154,0.2585227 0.78522,0.9237887 L 3.2265288,5.3580028 3.2796117,5.5248362 2.5998691,5.77681 3.6701535,6.4565526 4.2316651,6.2976474 H 4.5611958 L 4.7607757,6.5341095 4.622207,6.798492 4.5570595,7.8160384 5.0289497,7.982527 l 0.041019,-0.3540039 0.431216,0.061013 v 0.3702048 l 0.553239,0.044811 0.048947,-0.3660679 h 0.4929168 l 0.048947,0.3660679 0.5532391,-0.044811 V 7.6895363 L 7.6296896,7.6285231 7.6703638,7.982527 8.1425988,7.8160384 8.0777962,6.798492 7.9392274,6.5341095 8.1384625,6.2976474 H 8.4683358 L 9.0295029,6.4565526 10.100132,5.77681 9.4203896,5.5248362 9.473125,5.3580028 10.408978,5.5003629 11.194542,4.5765742 9.6578828,4.3180515 9.6606177,4.2022331 H 11.434429 L 11.971838,3.1391874 H 8.9116167 V 2.3550014 L 7.9788657,1.4849858 Z M 4.1916787,4.3439042 C 4.6678879,4.385787 5.2771994,4.7384069 5.8355394,4.971942 5.4764599,5.3607916 4.9429582,5.5054823 4.3571335,5.5768852 3.7488604,5.3031489 3.6786829,4.4158407 4.1916787,4.3439042 Z m 4.3166421,0 C 9.0213171,4.4158407 8.9507947,5.3031489 8.3425217,5.5768852 7.7566962,5.5054823 7.22354,5.3607916 6.8644599,4.971942 7.4228012,4.7384069 8.0321121,4.3857863 8.5083208,4.3439042 Z M 6.3498272,5.0233019 7.028191,6.3217759 6.7286494,6.6133899 6.3498272,6.3217759 5.9710051,6.6133899 5.6714634,6.3217759 Z" /><path
       id="rect13-3-1"
       style="fill:#ffffff;stroke-width:0.914601;stroke-linecap:round;stroke-linejoin:round"
       inkscape:label="arrow"
       d="m 3.9062467,8.9702593 a 0.26635996,0.26635996 0 0 1 0.29203,0.264824 v 0.438682 c 0.0099,-7.4e-4 0.02007,-0.0017 0.03018,-0.0017 h 4.376193 c 0.2210498,0 0.3987238,0.1781 0.3987238,0.3991497 v 0.181508 c 0,0.22105 -0.177674,0.398725 -0.3987238,0.398725 h -4.376192 c -0.01012,0 -0.02026,-9.87e-4 -0.03018,-0.0017 v 0.438682 a 0.26635996,0.26635996 0 0 1 -0.428055,0.211264 L 2.560447,10.373022 a 0.26635996,0.26635996 0 0 1 0,-0.4225287 l 1.2097767,-0.926681 a 0.26635996,0.26635996 0 0 1 0.136025,-0.05356 z" /></g></svg>
