<?xml version="1.0" encoding="UTF-8" standalone="no"?>
<!-- Created with Inkscape (http://www.inkscape.org/) -->

<svg
   width="48"
   height="48"
   viewBox="0 0 12.7 12.7"
   version="1.1"
   id="svg1"
   xml:space="preserve"
   inkscape:version="1.3.2 (091e20e, 2023-11-25, custom)"
   sodipodi:docname="momentum-shift_heroism.svg"
   xmlns:inkscape="http://www.inkscape.org/namespaces/inkscape"
   xmlns:sodipodi="http://sodipodi.sourceforge.net/DTD/sodipodi-0.dtd"
   xmlns="http://www.w3.org/2000/svg"
   xmlns:svg="http://www.w3.org/2000/svg"><sodipodi:namedview
     id="namedview1"
     pagecolor="#505050"
     bordercolor="#eeeeee"
     borderopacity="1"
     inkscape:showpageshadow="0"
     inkscape:pageopacity="0"
     inkscape:pagecheckerboard="0"
     inkscape:deskcolor="#505050"
     inkscape:document-units="mm"
     inkscape:zoom="11.313709"
     inkscape:cx="12.727921"
     inkscape:cy="28.947183"
     inkscape:window-width="2560"
     inkscape:window-height="1369"
     inkscape:window-x="-8"
     inkscape:window-y="-8"
     inkscape:window-maximized="1"
     inkscape:current-layer="layer1"
     showgrid="false"><inkscape:grid
       id="grid157"
       units="mm"
       originx="0"
       originy="0"
       spacingx="0.99999998"
       spacingy="0.99999998"
       empcolor="#0099e5"
       empopacity="0.30196078"
       color="#0099e5"
       opacity="0.14901961"
       empspacing="5"
       dotted="false"
       gridanglex="30"
       gridanglez="30"
       visible="false" /></sodipodi:namedview><defs
     id="defs1" /><g
     inkscape:label="Layer 1"
     inkscape:groupmode="layer"
     id="layer1"><rect
       style="display:none;fill:none;stroke:#000000;stroke-width:2.11667;stroke-dasharray:none;stroke-opacity:1"
       id="rect1"
       width="12.7"
       height="12.7"
       x="0"
       y="0"
       inkscape:label="border spacer"
       sodipodi:insensitive="true" /><path
       id="rect163"
       style="fill:#ffffff;stroke-width:0.542108;stroke-linecap:round;stroke-linejoin:round"
       d="M 6.3488878,0.72809115 5.7137504,3.3175835 6.3488878,2.6824461 6.9840252,3.3175835 Z m 0,2.03277375 -2.7479989,2.7485553 2.7479986,2.7479986 2.7485552,-2.747999 z M 4.525787,2.8598619 4.8144355,4.2168983 5.3917322,3.6396017 Z m 3.6484262,0 L 7.3071558,3.640714 7.8850087,4.2185669 Z M 6.3488878,3.5850978 8.2732099,5.5094198 6.3488878,7.4331862 4.4251215,5.5094198 Z m -4.5549707,0.00334 1.8631442,1.7863943 0.9638298,-0.9638297 z m 9.1121659,0 -2.8280859,0.8225646 0.9638294,0.9643857 z M 6.3488878,3.8959924 4.7354603,5.5094198 6.3488878,7.1228473 7.9623153,5.5094198 Z m -3.481021,1.6134278 0.7341344,0.931572 h 0.8520409 l -0.931572,-0.931572 z m 6.3079948,-4e-7 -0.931572,0.9315721 H 9.0963304 L 9.8310211,5.5094198 Z m -5.4659647,1.105095 0.7346907,0.931572 1.1145493,3e-7 -0.9315722,-0.9315723 z m 4.3608697,0 -0.931572,0.931572 1.1151057,3e-7 L 8.988435,6.6145148 Z M 5.2393437,7.7196094 5.974034,8.6511818 H 6.2526714 V 8.2396216 L 5.7332158,7.7196098 Z m 1.7263283,0 -0.5200121,0.5200122 v 0.4115602 h 0.2791937 l 0.7341343,-0.931572 z"
       inkscape:label="heroism-symbol" /><path
       id="rect13-3"
       style="fill:#ffffff;stroke-width:0.914601;stroke-linecap:round;stroke-linejoin:round"
       inkscape:label="arrow"
       d="M 8.7937511,8.9702843 A 0.26635996,0.26635996 0 0 0 8.5017216,9.2351087 v 0.4386819 c -0.00992,-7.4e-4 -0.020067,-0.00169 -0.03018,-0.00169 H 4.0953494 c -0.2210502,0 -0.3987245,0.1780995 -0.3987245,0.3991494 v 0.181509 c 0,0.22105 0.1776743,0.398725 0.3987245,0.398725 h 4.3761915 c 0.010116,0 0.020258,-9.87e-4 0.030181,-0.0017 v 0.438682 a 0.26635996,0.26635996 0 0 0 0.4280549,0.211264 l 1.2097762,-0.926673 a 0.26635996,0.26635996 0 0 0 0,-0.422529 L 8.9297765,9.0238475 a 0.26635996,0.26635996 0 0 0 -0.1360254,-0.05356 z" /></g></svg>
