<?xml version="1.0" encoding="UTF-8" standalone="no"?>
<!-- Created with Inkscape (http://www.inkscape.org/) -->

<svg
   width="48"
   height="48"
   viewBox="0 0 48 48"
   version="1.1"
   id="svg1"
   xml:space="preserve"
   inkscape:version="1.3.2 (091e20e, 2023-11-25, custom)"
   sodipodi:docname="round-down.svg"
   xmlns:inkscape="http://www.inkscape.org/namespaces/inkscape"
   xmlns:sodipodi="http://sodipodi.sourceforge.net/DTD/sodipodi-0.dtd"
   xmlns="http://www.w3.org/2000/svg"
   xmlns:svg="http://www.w3.org/2000/svg"><sodipodi:namedview
     id="namedview1"
     pagecolor="#505050"
     bordercolor="#eeeeee"
     borderopacity="1"
     inkscape:showpageshadow="0"
     inkscape:pageopacity="0"
     inkscape:pagecheckerboard="0"
     inkscape:deskcolor="#505050"
     inkscape:document-units="px"
     inkscape:zoom="16.000001"
     inkscape:cx="17.812499"
     inkscape:cy="25.093748"
     inkscape:window-width="2560"
     inkscape:window-height="1369"
     inkscape:window-x="-8"
     inkscape:window-y="-8"
     inkscape:window-maximized="1"
     inkscape:current-layer="layer1" /><defs
     id="defs1" /><g
     inkscape:label="Layer 1"
     inkscape:groupmode="layer"
     id="layer1"><path
       style="color:#000000;display:none;fill:#000000;-inkscape-stroke:none"
       d="M 0,0 V 48 H 48 V 0 Z M 4,4 H 44 V 44 H 4 Z"
       id="rect1"
       inkscape:label="border spacer"
       sodipodi:nodetypes="cccccccccc"
       sodipodi:insensitive="true" /><path
       style="font-size:42.6667px;font-family:STRIVE;-inkscape-font-specification:STRIVE;fill:#ffffff;stroke-width:11.5546;paint-order:stroke fill markers"
       d="m 39.040907,32.007277 q 0.648673,0.185335 1.050234,0.756786 0.417004,0.556006 0.417004,1.266458 v 3.55226 q 0,0.710452 -0.417004,1.266458 -0.401561,0.556006 -1.050234,0.741341 z m 1.853353,1.884242 q 0,-0.988455 -0.710452,-1.683462 -0.695008,-0.710452 -1.698907,-0.710452 -1.003899,0 -1.714351,0.710452 -0.695008,0.695007 -0.695008,1.683462 v 3.814818 q 0,1.019344 0.695008,1.729796 0.710452,0.695007 1.714351,0.695007 1.003899,0 1.698907,-0.710452 0.710452,-0.710452 0.710452,-1.714351 z m -5.729949,0 q 0,-1.37457 0.973009,-2.34758 0.973012,-0.97301 2.332137,-0.97301 1.374569,0 2.34758,0.97301 0.97301,0.97301 0.97301,2.34758 v 3.814818 q 0,1.37457 -0.97301,2.34758 -0.973011,0.973011 -2.34758,0.973011 -1.359125,0 -2.332137,-0.973011 -0.973009,-0.97301 -0.973009,-2.34758 z"
       id="path9" /><path
       style="font-size:42.6667px;font-family:STRIVE;-inkscape-font-specification:STRIVE;fill:#ffffff;stroke-width:11.5546;paint-order:stroke fill markers"
       d="m 30.839819,32.007277 q 0.648674,0.185335 1.050234,0.756786 0.417004,0.556006 0.417004,1.266458 v 3.55226 q 0,0.710452 -0.417004,1.266458 -0.40156,0.556006 -1.050234,0.741341 z m 1.853354,1.884242 q 0,-0.988455 -0.710452,-1.683462 -0.695008,-0.710452 -1.698908,-0.710452 -1.003899,0 -1.714351,0.710452 -0.695008,0.695007 -0.695008,1.683462 v 3.814818 q 0,1.019344 0.695008,1.729796 0.710452,0.695007 1.714351,0.695007 1.0039,0 1.698908,-0.710452 0.710452,-0.710452 0.710452,-1.714351 z m -5.72995,0 q 0,-1.37457 0.97301,-2.34758 0.97301,-0.97301 2.332135,-0.97301 1.374571,0 2.347581,0.97301 0.973011,0.97301 0.973011,2.34758 v 3.814818 q 0,1.37457 -0.973011,2.34758 -0.97301,0.973011 -2.347581,0.973011 -1.359125,0 -2.332135,-0.973011 -0.97301,-0.97301 -0.97301,-2.34758 z"
       id="path8" /><path
       style="color:#000000;fill:#ffffff;stroke-width:1;-inkscape-stroke:none;paint-order:stroke fill markers"
       d="M 26.962318,42.118512 V 44 h 14.827918 v -1.881488 z"
       id="path10" /><path
       id="path1"
       style="color:#000000;fill:#ffffff;stroke:none;stroke-width:0.999996;stroke-linecap:round;stroke-linejoin:round;-inkscape-stroke:none"
       d="m 23.644531,30.570312 -4.826172,-5.451171 h 3.427735 C 22.246094,14.981579 14.090577,6.798828 4,6.798828 V 4 c 11.608521,0 21.044922,9.47511 21.044922,21.119141 h 3.427734 z"
       inkscape:label="bent-arrow" /></g></svg>
