<?xml version="1.0" encoding="UTF-8" standalone="no"?>
<!-- Created with Inkscape (http://www.inkscape.org/) -->

<svg
   width="64"
   height="64"
   viewBox="0 0 16.933333 16.933333"
   version="1.1"
   id="svg1"
   xml:space="preserve"
   inkscape:version="1.3.2 (091e20e, 2023-11-25, custom)"
   sodipodi:docname="skull-profile.svg"
   xmlns:inkscape="http://www.inkscape.org/namespaces/inkscape"
   xmlns:sodipodi="http://sodipodi.sourceforge.net/DTD/sodipodi-0.dtd"
   xmlns="http://www.w3.org/2000/svg"
   xmlns:svg="http://www.w3.org/2000/svg"><sodipodi:namedview
     id="namedview1"
     pagecolor="#505050"
     bordercolor="#eeeeee"
     borderopacity="1"
     inkscape:showpageshadow="0"
     inkscape:pageopacity="0"
     inkscape:pagecheckerboard="0"
     inkscape:deskcolor="#505050"
     inkscape:document-units="mm"
     inkscape:zoom="5.6568543"
     inkscape:cx="36.415999"
     inkscape:cy="46.227106"
     inkscape:window-width="2560"
     inkscape:window-height="1369"
     inkscape:window-x="-8"
     inkscape:window-y="-8"
     inkscape:window-maximized="1"
     inkscape:current-layer="layer1"
     showgrid="false"><inkscape:grid
       id="grid157"
       units="mm"
       originx="0"
       originy="0"
       spacingx="0.99999998"
       spacingy="0.99999998"
       empcolor="#0099e5"
       empopacity="0.30196078"
       color="#0099e5"
       opacity="0.14901961"
       empspacing="5"
       dotted="false"
       gridanglex="30"
       gridanglez="30"
       visible="false" /></sodipodi:namedview><defs
     id="defs1" /><g
     inkscape:label="Layer 1"
     inkscape:groupmode="layer"
     id="layer1"><g
       id="g14"
       inkscape:label="skull-profile"
       transform="translate(9.024683,-0.48774791)"
       style="display:inline"><path
         style="display:inline;fill:#850c1c;fill-opacity:1;stroke:#390000;stroke-width:0.259;stroke-linecap:round;stroke-linejoin:round;stroke-dasharray:none;stroke-opacity:1"
         d="m 6.2533826,13.676392 -0.196547,0.0071 -0.08399,0.712945 -0.86304,-0.03931 0.03572,-0.76655 -0.782633,-0.116146 -0.162599,0.871974 -1.879994,-0.529107 0.161717,-2.062 -2.79987014,-0.151621 1.2314195,3.573568 4.60917864,1.425204 0.677223,-0.202158 z"
         id="path12"
         sodipodi:nodetypes="cccccccccccccc"
         inkscape:transform-center-x="-2.8875172"
         inkscape:transform-center-y="2.2871587"
         inkscape:label="jaw" /><path
         style="display:inline;fill:#9f0e21;fill-opacity:1;stroke:#390000;stroke-width:0.259;stroke-linecap:round;stroke-linejoin:round;stroke-dasharray:none;stroke-opacity:1"
         d="M 5.3885606,7.7389697 6.2590916,6.2311591 3.9397106,2.2138703 -1.3871003,1.3063802 -6.361634,3.8508263 -7.39085,9.1970217 l 1.2279345,3.1208293 4.9187628,0.338474 1.78392796,-1.364032 0.71763234,0.163274 0.471724,0.82909 1.629589,0.543195 -0.171538,0.914858 0.914856,0.228715 0.142942,-0.857679 1.000625,0.142942 -0.0286,0.757616 0.671849,0.0286 0.07147,-0.714731 h 0.314497 l -0.669459,-2.140247 0.578476,-1.7824483 z"
         id="path9"
         sodipodi:nodetypes="ccccccccccccccccccccccc"
         inkscape:label="cranium" /><path
         style="fill:#000000;fill-opacity:1;stroke:none;stroke-width:1.41177;stroke-linecap:round;stroke-linejoin:round"
         d="M 4.5977511,8.254171 C 3.6925795,7.137307 3.4920448,6.9919867 2.8647895,6.6594769 2.1278758,7.6844535 2.2494648,8.673788 2.4478428,9.3064814 2.9308579,10.055225 3.1979166,9.7226433 4.4345979,9.5916979 Z"
         id="path10"
         sodipodi:nodetypes="ccccc"
         inkscape:label="eye-cavity" /><path
         style="fill:#000000;fill-opacity:1;stroke:none;stroke-width:1.41177;stroke-linecap:round;stroke-linejoin:round"
         d="M 5.2521166,8.0093413 4.8240801,8.0066253 2.9868871,6.272012 1.6624466,6.3738608 2.8772694,6.6810985 4.5485735,8.3529927 Z"
         id="path11"
         inkscape:label="eye-brow" /><path
         style="fill:#390000;fill-opacity:1;stroke:none;stroke-width:1.41177;stroke-linecap:round;stroke-linejoin:round"
         d="M -3.1912615,11.087825 0.2675848,11.581944 3.2676046,11.193707 4.1852585,11.970182 3.3048368,10.761134 0.28505711,11.185402 -1.7530182,10.920176 Z"
         id="path13" /><path
         style="fill:#390000;fill-opacity:1;stroke:none;stroke-width:1.41177;stroke-linecap:round;stroke-linejoin:round"
         d="M -1.8737148,10.043624 0.32249303,10.405498 1.9617142,9.6760509 1.1146495,6.2348508 2.085245,5.4230797 0.70876538,6.0760263 1.5381824,9.3760484 0.33817404,9.9407578 Z"
         id="path14" /></g></g></svg>
