<?xml version="1.0" encoding="UTF-8" standalone="no"?>
<!-- Created with Inkscape (http://www.inkscape.org/) -->

<svg
   width="64"
   height="64"
   viewBox="0 0 16.933333 16.933333"
   version="1.1"
   id="svg1"
   xml:space="preserve"
   inkscape:version="1.3.2 (091e20e, 2023-11-25, custom)"
   sodipodi:docname="strongarm-solid.svg"
   xmlns:inkscape="http://www.inkscape.org/namespaces/inkscape"
   xmlns:sodipodi="http://sodipodi.sourceforge.net/DTD/sodipodi-0.dtd"
   xmlns="http://www.w3.org/2000/svg"
   xmlns:svg="http://www.w3.org/2000/svg"><sodipodi:namedview
     id="namedview1"
     pagecolor="#505050"
     bordercolor="#eeeeee"
     borderopacity="1"
     inkscape:showpageshadow="0"
     inkscape:pageopacity="0"
     inkscape:pagecheckerboard="0"
     inkscape:deskcolor="#505050"
     inkscape:document-units="mm"
     inkscape:zoom="11.702245"
     inkscape:cx="29.566976"
     inkscape:cy="32.856943"
     inkscape:window-width="2560"
     inkscape:window-height="1369"
     inkscape:window-x="-8"
     inkscape:window-y="-8"
     inkscape:window-maximized="1"
     inkscape:current-layer="layer1" /><defs
     id="defs1" /><g
     inkscape:label="Ebene 1"
     inkscape:groupmode="layer"
     id="layer1"><path
       id="path1"
       style="display:inline;fill:#ffffff;fill-opacity:1;stroke:none;stroke-width:0.763364;stroke-linecap:round;stroke-linejoin:round;stroke-dasharray:none"
       d="M 6.670036,2.1026565 C 5.9051209,2.0940588 4.9917369,2.36558 3.9609869,2.8585662 3.4904242,3.2595305 3.2656122,3.5427655 2.6332903,5.0653401 2.0009681,6.5879142 0.99022186,9.2583359 1.3935777,11.583582 c 0.1404783,0.689284 -0.016992,0.816384 0.9214048,0.969115 l 0.011916,-0.01192 c 2.6441858,1.650265 6.2060895,1.785656 7.490899,1.47877 l 2.9159045,-0.567802 c 0.644157,0.147478 1.257028,0.487809 1.777207,1.379125 H 15.14159 L 15.632113,7.4447164 C 13.913792,7.5658078 12.113006,7.4786089 10.956506,9.004246 9.5329344,8.1757606 7.9665034,7.5343305 5.0299951,9.6453526 5.6107622,7.8701261 5.3427433,6.1701767 4.8585363,4.4896612 5.5739566,4.7926774 6.2545111,5.1548463 7.1247744,5.1904058 8.1928352,4.5170602 8.3982711,3.6062921 8.0223239,2.53354 7.6478713,2.2467008 7.1933999,2.1085336 6.670036,2.1026565 Z m 3.940571,8.2404585 0.006,0.06262 c -1.2323735,1.228289 -3.7112258,1.465215 -5.2883848,0.162512 1.7918747,0.724572 3.5495467,0.555643 5.2824218,-0.225132 z"
       sodipodi:nodetypes="cccccccccccccccccccccc"
       inkscape:label="Strongarm" /></g></svg>
