<?xml version="1.0" encoding="UTF-8" standalone="no"?>
<!-- Created with Inkscape (http://www.inkscape.org/) -->

<svg
   width="512"
   height="512"
   viewBox="0 0 135.46666 135.46667"
   version="1.1"
   id="svg1"
   inkscape:version="1.3.2 (091e20e, 2023-11-25, custom)"
   sodipodi:docname="STRIVE_logo.svg"
   xml:space="preserve"
   inkscape:export-filename="STRIVE_logo.png"
   inkscape:export-xdpi="96.199997"
   inkscape:export-ydpi="96.199997"
   xmlns:inkscape="http://www.inkscape.org/namespaces/inkscape"
   xmlns:sodipodi="http://sodipodi.sourceforge.net/DTD/sodipodi-0.dtd"
   xmlns:xlink="http://www.w3.org/1999/xlink"
   xmlns="http://www.w3.org/2000/svg"
   xmlns:svg="http://www.w3.org/2000/svg"><sodipodi:namedview
     id="namedview1"
     pagecolor="#505050"
     bordercolor="#eeeeee"
     borderopacity="1"
     inkscape:showpageshadow="0"
     inkscape:pageopacity="0"
     inkscape:pagecheckerboard="0"
     inkscape:deskcolor="#505050"
     inkscape:document-units="mm"
     inkscape:zoom="2.089941"
     inkscape:cx="250.00706"
     inkscape:cy="281.5869"
     inkscape:window-width="2560"
     inkscape:window-height="1369"
     inkscape:window-x="-8"
     inkscape:window-y="-8"
     inkscape:window-maximized="1"
     inkscape:current-layer="layer1" /><defs
     id="defs1"><linearGradient
       id="linearGradient205"
       inkscape:collect="always"><stop
         style="stop-color:#ff8000;stop-opacity:0;"
         offset="0.86147189"
         id="stop204" /><stop
         style="stop-color:#ff8000;stop-opacity:0.5;"
         offset="1"
         id="stop205" /></linearGradient><linearGradient
       id="linearGradient202"
       inkscape:collect="always"><stop
         style="stop-color:#ffc300;stop-opacity:0;"
         offset="0.95959604"
         id="stop202" /><stop
         style="stop-color:#ffc300;stop-opacity:0.75;"
         offset="1"
         id="stop203" /></linearGradient><linearGradient
       id="swatch7"
       inkscape:swatch="solid"><stop
         style="stop-color:#000000;stop-opacity:1;"
         offset="0"
         id="stop7" /></linearGradient><filter
       inkscape:collect="always"
       style="color-interpolation-filters:sRGB"
       id="filter193"
       x="-0.016616664"
       y="-0.96367883"
       width="1.0332333"
       height="2.9273577"><feGaussianBlur
         inkscape:collect="always"
         stdDeviation="0.43221798"
         id="feGaussianBlur193" /></filter><filter
       inkscape:collect="always"
       style="color-interpolation-filters:sRGB"
       id="filter194"
       x="-0.016708755"
       y="-0.73025663"
       width="1.0334175"
       height="2.4605133"><feGaussianBlur
         inkscape:collect="always"
         stdDeviation="0.32752619"
         id="feGaussianBlur194" /></filter><filter
       inkscape:collect="always"
       style="color-interpolation-filters:sRGB"
       id="filter195"
       x="-0.019731338"
       y="-0.094899685"
       width="1.0394627"
       height="1.1897994"><feGaussianBlur
         inkscape:collect="always"
         stdDeviation="0.40443803"
         id="feGaussianBlur195" /></filter><radialGradient
       inkscape:collect="always"
       xlink:href="#linearGradient205"
       id="radialGradient203"
       cx="33.870327"
       cy="33.732887"
       fx="33.870327"
       fy="33.732887"
       r="33.732887"
       gradientUnits="userSpaceOnUse"
       spreadMethod="reflect" /><radialGradient
       inkscape:collect="always"
       xlink:href="#linearGradient202"
       id="radialGradient204"
       gradientUnits="userSpaceOnUse"
       cx="33.870327"
       cy="33.732887"
       fx="33.870327"
       fy="33.732887"
       r="33.732887"
       spreadMethod="reflect"
       gradientTransform="translate(3.8801269e-6)" /><filter
       inkscape:collect="always"
       style="color-interpolation-filters:sRGB"
       id="filter229"
       x="-0.033853357"
       y="-0.031566576"
       width="1.0677067"
       height="1.0631332"><feGaussianBlur
         inkscape:collect="always"
         stdDeviation="0.25244142"
         id="feGaussianBlur229" /></filter><filter
       inkscape:collect="always"
       style="color-interpolation-filters:sRGB"
       id="filter230"
       x="-0.271529"
       y="-0.271529"
       width="1.543058"
       height="1.543058"><feGaussianBlur
         inkscape:collect="always"
         stdDeviation="0.39900765"
         id="feGaussianBlur230" /></filter></defs><g
     inkscape:label="Layer 1"
     inkscape:groupmode="layer"
     id="layer1"><g
       id="g205"
       inkscape:label="bg"
       transform="matrix(2.0038573,0,0,2.0038573,-0.13796988,0)"
       style="display:inline"><circle
         style="fill:#3a3a3a;fill-opacity:1;stroke:none;stroke-width:4.63021;stroke-linecap:round;stroke-linejoin:round;stroke-dasharray:none;stroke-dashoffset:0.6;stroke-opacity:1"
         id="path201"
         cx="33.870327"
         cy="33.732887"
         r="33.732887"
         inkscape:label="bg" /><circle
         style="fill:url(#radialGradient203);fill-opacity:1;stroke:none;stroke-width:4.63021;stroke-linecap:round;stroke-linejoin:round;stroke-dasharray:none;stroke-dashoffset:0.6;stroke-opacity:1"
         id="circle202"
         cx="33.870327"
         cy="33.732887"
         r="33.732887"
         inkscape:label="bg glow orange" /><circle
         style="fill:url(#radialGradient204);fill-opacity:1;stroke:none;stroke-width:4.63021;stroke-linecap:round;stroke-linejoin:round;stroke-dasharray:none;stroke-dashoffset:0.6;stroke-opacity:1"
         id="circle203"
         cx="33.870327"
         cy="33.732887"
         r="33.732887"
         inkscape:label="bg glow yellow" /></g><g
       id="g195"
       transform="matrix(2.0038573,0,0,2.0038573,-0.13796988,-10.317988)"
       inkscape:label="h bar 2"><path
         id="path193"
         style="fill:#ff8000;fill-opacity:1;stroke-width:0.750001;stroke-linecap:round;stroke-linejoin:round;stroke-dashoffset:0.6;filter:url(#filter194)"
         d="m 10.344183,43.035064 1.075904,1.07642 H 56.31273 l 1.07642,-1.07642 z"
         sodipodi:nodetypes="ccccc"
         inkscape:label="h bar 2 glow" /><path
         id="path7"
         style="fill:#ffc300;fill-opacity:1;stroke-width:0.750001;stroke-linecap:round;stroke-linejoin:round;stroke-dashoffset:0.6"
         d="m 10.344183,43.035064 1.075904,1.07642 H 56.31273 l 1.07642,-1.07642 z"
         sodipodi:nodetypes="ccccc"
         inkscape:label="h bar 2" /></g><g
       id="g196"
       inkscape:label="h bar 1"
       transform="matrix(2.0038573,0,0,2.0038573,-0.13796988,-7.7811349)"><path
         id="path192"
         style="fill:#ff8000;fill-opacity:1;stroke-width:0.750001;stroke-linecap:round;stroke-linejoin:round;stroke-dashoffset:0.6;filter:url(#filter193)"
         d="m 2.6533266,37.211535 1.0759033,1.07642 H 64.003587 l 1.07642,-1.07642 z"
         sodipodi:nodetypes="ccccc"
         inkscape:label="h bar 1 glow" /><path
         id="path1"
         style="fill:#ffc300;fill-opacity:1;stroke-width:0.750001;stroke-linecap:round;stroke-linejoin:round;stroke-dashoffset:0.6"
         d="m 2.6533266,37.211535 1.0759033,1.07642 H 64.003587 l 1.07642,-1.07642 z"
         sodipodi:nodetypes="ccccc"
         inkscape:label="h bar 1" /></g><g
       id="g206"
       inkscape:label="STRIVE"
       transform="matrix(2.0038573,0,0,2.0038573,-0.13796988,-7.7811349)"><text
         xml:space="preserve"
         style="font-weight:bold;font-size:14.9945px;font-family:Cambria;-inkscape-font-specification:'Cambria Bold';text-align:center;text-anchor:middle;fill:#ff8000;fill-opacity:1;stroke:none;stroke-width:0.264583;stroke-linecap:round;stroke-linejoin:round;stroke-dasharray:none;stroke-dashoffset:0.6;stroke-opacity:1;filter:url(#filter195)"
         x="33.870327"
         y="33.732887"
         id="text195"
         inkscape:label="text glow"><tspan
           sodipodi:role="line"
           id="tspan195"
           style="text-align:center;text-anchor:middle;fill:#ff8000;fill-opacity:1;stroke:none;stroke-width:0.264583;stroke-dasharray:none;stroke-opacity:1"
           x="33.870327"
           y="33.732887">STRIVE</tspan></text><text
         xml:space="preserve"
         style="font-weight:bold;font-size:14.9945px;font-family:Cambria;-inkscape-font-specification:'Cambria Bold';text-align:center;text-anchor:middle;fill:#ffc300;fill-opacity:1;stroke:none;stroke-width:0.264583;stroke-linecap:round;stroke-linejoin:round;stroke-dasharray:none;stroke-dashoffset:0.6;stroke-opacity:1"
         x="33.870327"
         y="33.732887"
         id="text1"><tspan
           sodipodi:role="line"
           id="tspan1"
           style="text-align:center;text-anchor:middle;fill:#ffc300;fill-opacity:1;stroke:none;stroke-width:0.264583;stroke-dasharray:none;stroke-opacity:1"
           x="33.870327"
           y="33.732887">STRIVE</tspan></text><g
         id="g230"
         inkscape:label="i-dot"
         transform="translate(0,3.8830784)"><rect
           style="display:inline;fill:#ff8000;fill-opacity:1;stroke:none;stroke-width:3.071;stroke-linecap:round;stroke-linejoin:round;stroke-dasharray:none;stroke-dashoffset:0.6;stroke-opacity:1;filter:url(#filter230)"
           id="rect230"
           width="3.5267627"
           height="3.5267627"
           x="14.573769"
           y="36.013481"
           transform="rotate(-45)"
           inkscape:label="glow" /><rect
           style="display:inline;fill:#ffc300;fill-opacity:1;stroke:none;stroke-width:3.071;stroke-linecap:round;stroke-linejoin:round;stroke-dasharray:none;stroke-dashoffset:0.6;stroke-opacity:1"
           id="rect229"
           width="3.5267627"
           height="3.5267627"
           x="14.573769"
           y="36.013481"
           transform="rotate(-45)"
           inkscape:label="c" /></g></g><g
       id="g229"
       transform="matrix(2.0038573,0,0,2.0038573,-43.022042,-63.256648)"
       inkscape:label="d6"><path
         id="path229"
         style="fill:#ff8000;fill-opacity:1;filter:url(#filter229)"
         d="m 55.267428,73.055348 c -0.373393,-0.0035 -0.434306,0.0056 -1.031979,0.201538 l -6.892602,3.426664 c -0.67864,0.332572 -0.918626,0.802753 -1.02371,1.534273 v 8.88628 c 0.170528,0.944123 0.533395,1.358681 1.123445,1.647444 l 6.695716,3.276803 c 0.598108,0.292707 1.660089,0.292736 2.25826,0 l 6.695715,-3.276803 c 0.59005,-0.288763 0.952916,-0.703321 1.123446,-1.647444 v -8.88628 c -0.105085,-0.73152 -0.345071,-1.201701 -1.02371,-1.534273 l -6.892603,-3.426664 c -0.597671,-0.19592 -0.658587,-0.205087 -1.031978,-0.201538 z m 0,0.581877 c 0.190817,-0.0069 0.576171,0.08202 0.706416,0.145727 0.130246,0.06371 6.914824,3.383773 6.914824,3.383773 0.0584,0.02858 0.08372,0.105516 0.08372,0.136426 0,0.265529 -6.976243,3.518432 -7.052283,3.538802 -0.212612,0.05844 -0.434056,0.131419 -0.652673,0.135909 -0.218619,-0.0045 -0.440062,-0.07745 -0.652674,-0.135909 -0.07604,-0.02037 -7.052282,-3.273273 -7.052282,-3.538802 0,-0.03091 0.02531,-0.107846 0.08371,-0.136426 0,0 6.791955,-3.323666 6.914824,-3.383773 0.122869,-0.06011 0.515598,-0.138828 0.706418,-0.145727 z m 0.05581,1.057299 a 1.214554,0.62507993 0 0 0 -1.214396,0.624768 1.214554,0.62507993 0 0 0 1.214396,0.625285 1.214554,0.62507993 0 0 0 1.214913,-0.625285 1.214554,0.62507993 0 0 0 -1.214913,-0.624768 z m -2.098063,0.956531 a 1.214554,0.62507993 0 0 0 -1.214396,0.625285 1.214554,0.62507993 0 0 0 1.214396,0.624768 1.214554,0.62507993 0 0 0 1.214913,-0.624768 1.214554,0.62507993 0 0 0 -1.214913,-0.625285 z m -2.098063,0.956531 a 1.214554,0.62507993 0 0 0 -1.214396,0.625285 1.214554,0.62507993 0 0 0 1.214396,0.625285 1.214554,0.62507993 0 0 0 1.214396,-0.625285 1.214554,0.62507993 0 0 0 -1.214396,-0.625285 z m 8.403621,0.06718 a 1.214554,0.62507993 0 0 0 -1.214396,0.625285 1.214554,0.62507993 0 0 0 1.214396,0.624768 1.214554,0.62507993 0 0 0 1.214396,-0.624768 1.214554,0.62507993 0 0 0 -1.214396,-0.625285 z m -2.098063,0.957048 a 1.214554,0.62507993 0 0 0 -1.214396,0.624768 1.214554,0.62507993 0 0 0 1.214396,0.625285 1.214554,0.62507993 0 0 0 1.214396,-0.625285 1.214554,0.62507993 0 0 0 -1.214396,-0.624768 z m -10.196277,0.392224 c 0.09059,8.5e-5 0.190241,0.02394 0.276986,0.06666 l 6.714319,3.306775 c 0.561385,0.27648 0.700466,0.62393 0.701766,1.332736 l 0.0155,8.471834 c 2.4e-4,0.129502 -0.05814,0.52126 -0.82579,0.152962 l -6.542753,-3.24528 c -0.266358,-0.218944 -0.620785,-0.575938 -0.620631,-0.95653 l 0.0036,-8.910567 c 6.1e-5,-0.153036 0.126004,-0.218733 0.276985,-0.218591 z m 16.062069,0 c 0.150981,-1.42e-4 0.276924,0.06555 0.276986,0.218591 l 0.0036,8.910567 c 1.54e-4,0.380592 -0.354272,0.737586 -0.620634,0.956531 l -6.542753,3.24528 c -0.767649,0.368298 -0.826029,-0.02346 -0.825789,-0.152962 l 0.0155,-8.471834 c 0,-0.708807 0.14038,-1.056256 0.701765,-1.332736 L 63.021456,78.0907 c 0.08675,-0.04272 0.186397,-0.06658 0.276986,-0.06666 z m -7.963855,0.564307 a 1.214554,0.62507993 0 0 0 -1.214396,0.625284 1.214554,0.62507993 0 0 0 1.214396,0.624768 1.214554,0.62507993 0 0 0 1.214396,-0.624768 1.214554,0.62507993 0 0 0 -1.214396,-0.625284 z m -6.809403,1.64486 a 1.2245875,0.91287492 56.645553 0 0 -0.712618,1.138949 1.2245875,0.91287492 56.645553 0 0 1.250052,1.139465 1.2245875,0.91287492 56.645553 0 0 0.712618,-1.139465 1.2245875,0.91287492 56.645553 0 0 -1.250052,-1.138949 z m 13.536124,0.600997 a 0.91287492,1.2245875 33.354447 0 0 -1.250053,1.139466 0.91287492,1.2245875 33.354447 0 0 0.712618,1.139465 0.91287492,1.2245875 33.354447 0 0 1.250053,-1.139465 0.91287492,1.2245875 33.354447 0 0 -0.712618,-1.139466 z m -9.430949,1.154969 a 1.2245875,0.91287492 56.645553 0 0 -0.712618,1.139465 1.2245875,0.91287492 56.645553 0 0 1.250053,1.139465 1.2245875,0.91287492 56.645553 0 0 0.712618,-1.139465 1.2245875,0.91287492 56.645553 0 0 -1.250053,-1.139465 z m -2.025199,1.71204 a 1.2245875,0.91287492 56.645553 0 0 -0.712618,1.139465 1.2245875,0.91287492 56.645553 0 0 1.249536,1.139465 1.2245875,0.91287492 56.645553 0 0 0.712618,-1.139465 1.2245875,0.91287492 56.645553 0 0 -1.249536,-1.139465 z m 9.490377,0.117305 a 0.91287492,1.2245875 33.354447 0 0 -1.249536,1.139466 0.91287492,1.2245875 33.354447 0 0 0.712618,1.139465 0.91287492,1.2245875 33.354447 0 0 1.249536,-1.139465 0.91287492,1.2245875 33.354447 0 0 -0.712618,-1.139466 z m -11.728483,1.639693 a 1.2245875,0.91287492 56.645553 0 0 -0.712618,1.139466 1.2245875,0.91287492 56.645553 0 0 1.250053,1.139465 1.2245875,0.91287492 56.645553 0 0 0.712101,-1.139465 1.2245875,0.91287492 56.645553 0 0 -1.249536,-1.139466 z m 9.763228,1.345138 a 0.91287492,1.2245875 33.354447 0 0 -1.250053,1.139465 0.91287492,1.2245875 33.354447 0 0 0.712618,1.139466 0.91287492,1.2245875 33.354447 0 0 1.250053,-1.139466 0.91287492,1.2245875 33.354447 0 0 -0.712618,-1.139465 z m -5.499923,0.680062 a 1.2245875,0.91287492 56.645553 0 0 -0.712618,1.139465 1.2245875,0.91287492 56.645553 0 0 1.250053,1.139465 1.2245875,0.91287492 56.645553 0 0 0.712618,-1.139465 1.2245875,0.91287492 56.645553 0 0 -1.250053,-1.139465 z"
         inkscape:label="d6 glow" /><path
         id="path206"
         style="fill:#ffc300;fill-opacity:0.74902"
         d="m 55.267428,73.055348 c -0.373393,-0.0035 -0.434306,0.0056 -1.031979,0.201538 l -6.892602,3.426664 c -0.67864,0.332572 -0.918626,0.802753 -1.02371,1.534273 v 8.88628 c 0.170528,0.944123 0.533395,1.358681 1.123445,1.647444 l 6.695716,3.276803 c 0.598108,0.292707 1.660089,0.292736 2.25826,0 l 6.695715,-3.276803 c 0.59005,-0.288763 0.952916,-0.703321 1.123446,-1.647444 v -8.88628 c -0.105085,-0.73152 -0.345071,-1.201701 -1.02371,-1.534273 l -6.892603,-3.426664 c -0.597671,-0.19592 -0.658587,-0.205087 -1.031978,-0.201538 z m 0,0.581877 c 0.190817,-0.0069 0.576171,0.08202 0.706416,0.145727 0.130246,0.06371 6.914824,3.383773 6.914824,3.383773 0.0584,0.02858 0.08372,0.105516 0.08372,0.136426 0,0.265529 -6.976243,3.518432 -7.052283,3.538802 -0.212612,0.05844 -0.434056,0.131419 -0.652673,0.135909 -0.218619,-0.0045 -0.440062,-0.07745 -0.652674,-0.135909 -0.07604,-0.02037 -7.052282,-3.273273 -7.052282,-3.538802 0,-0.03091 0.02531,-0.107846 0.08371,-0.136426 0,0 6.791955,-3.323666 6.914824,-3.383773 0.122869,-0.06011 0.515598,-0.138828 0.706418,-0.145727 z m 0.05581,1.057299 a 1.214554,0.62507993 0 0 0 -1.214396,0.624768 1.214554,0.62507993 0 0 0 1.214396,0.625285 1.214554,0.62507993 0 0 0 1.214913,-0.625285 1.214554,0.62507993 0 0 0 -1.214913,-0.624768 z m -2.098063,0.956531 a 1.214554,0.62507993 0 0 0 -1.214396,0.625285 1.214554,0.62507993 0 0 0 1.214396,0.624768 1.214554,0.62507993 0 0 0 1.214913,-0.624768 1.214554,0.62507993 0 0 0 -1.214913,-0.625285 z m -2.098063,0.956531 a 1.214554,0.62507993 0 0 0 -1.214396,0.625285 1.214554,0.62507993 0 0 0 1.214396,0.625285 1.214554,0.62507993 0 0 0 1.214396,-0.625285 1.214554,0.62507993 0 0 0 -1.214396,-0.625285 z m 8.403621,0.06718 a 1.214554,0.62507993 0 0 0 -1.214396,0.625285 1.214554,0.62507993 0 0 0 1.214396,0.624768 1.214554,0.62507993 0 0 0 1.214396,-0.624768 1.214554,0.62507993 0 0 0 -1.214396,-0.625285 z m -2.098063,0.957048 a 1.214554,0.62507993 0 0 0 -1.214396,0.624768 1.214554,0.62507993 0 0 0 1.214396,0.625285 1.214554,0.62507993 0 0 0 1.214396,-0.625285 1.214554,0.62507993 0 0 0 -1.214396,-0.624768 z m -10.196277,0.392224 c 0.09059,8.5e-5 0.190241,0.02394 0.276986,0.06666 l 6.714319,3.306775 c 0.561385,0.27648 0.700466,0.62393 0.701766,1.332736 l 0.0155,8.471834 c 2.4e-4,0.129502 -0.05814,0.52126 -0.82579,0.152962 l -6.542753,-3.24528 c -0.266358,-0.218944 -0.620785,-0.575938 -0.620631,-0.95653 l 0.0036,-8.910567 c 6.1e-5,-0.153036 0.126004,-0.218733 0.276985,-0.218591 z m 16.062069,0 c 0.150981,-1.42e-4 0.276924,0.06555 0.276986,0.218591 l 0.0036,8.910567 c 1.54e-4,0.380592 -0.354272,0.737586 -0.620634,0.956531 l -6.542753,3.24528 c -0.767649,0.368298 -0.826029,-0.02346 -0.825789,-0.152962 l 0.0155,-8.471834 c 0,-0.708807 0.14038,-1.056256 0.701765,-1.332736 L 63.021456,78.0907 c 0.08675,-0.04272 0.186397,-0.06658 0.276986,-0.06666 z m -7.963855,0.564307 a 1.214554,0.62507993 0 0 0 -1.214396,0.625284 1.214554,0.62507993 0 0 0 1.214396,0.624768 1.214554,0.62507993 0 0 0 1.214396,-0.624768 1.214554,0.62507993 0 0 0 -1.214396,-0.625284 z m -6.809403,1.64486 a 1.2245875,0.91287492 56.645553 0 0 -0.712618,1.138949 1.2245875,0.91287492 56.645553 0 0 1.250052,1.139465 1.2245875,0.91287492 56.645553 0 0 0.712618,-1.139465 1.2245875,0.91287492 56.645553 0 0 -1.250052,-1.138949 z m 13.536124,0.600997 a 0.91287492,1.2245875 33.354447 0 0 -1.250053,1.139466 0.91287492,1.2245875 33.354447 0 0 0.712618,1.139465 0.91287492,1.2245875 33.354447 0 0 1.250053,-1.139465 0.91287492,1.2245875 33.354447 0 0 -0.712618,-1.139466 z m -9.430949,1.154969 a 1.2245875,0.91287492 56.645553 0 0 -0.712618,1.139465 1.2245875,0.91287492 56.645553 0 0 1.250053,1.139465 1.2245875,0.91287492 56.645553 0 0 0.712618,-1.139465 1.2245875,0.91287492 56.645553 0 0 -1.250053,-1.139465 z m -2.025199,1.71204 a 1.2245875,0.91287492 56.645553 0 0 -0.712618,1.139465 1.2245875,0.91287492 56.645553 0 0 1.249536,1.139465 1.2245875,0.91287492 56.645553 0 0 0.712618,-1.139465 1.2245875,0.91287492 56.645553 0 0 -1.249536,-1.139465 z m 9.490377,0.117305 a 0.91287492,1.2245875 33.354447 0 0 -1.249536,1.139466 0.91287492,1.2245875 33.354447 0 0 0.712618,1.139465 0.91287492,1.2245875 33.354447 0 0 1.249536,-1.139465 0.91287492,1.2245875 33.354447 0 0 -0.712618,-1.139466 z m -11.728483,1.639693 a 1.2245875,0.91287492 56.645553 0 0 -0.712618,1.139466 1.2245875,0.91287492 56.645553 0 0 1.250053,1.139465 1.2245875,0.91287492 56.645553 0 0 0.712101,-1.139465 1.2245875,0.91287492 56.645553 0 0 -1.249536,-1.139466 z m 9.763228,1.345138 a 0.91287492,1.2245875 33.354447 0 0 -1.250053,1.139465 0.91287492,1.2245875 33.354447 0 0 0.712618,1.139466 0.91287492,1.2245875 33.354447 0 0 1.250053,-1.139466 0.91287492,1.2245875 33.354447 0 0 -0.712618,-1.139465 z m -5.499923,0.680062 a 1.2245875,0.91287492 56.645553 0 0 -0.712618,1.139465 1.2245875,0.91287492 56.645553 0 0 1.250053,1.139465 1.2245875,0.91287492 56.645553 0 0 0.712618,-1.139465 1.2245875,0.91287492 56.645553 0 0 -1.250053,-1.139465 z"
         inkscape:label="d6" /></g></g></svg>
